<svg xmlns="http://www.w3.org/2000/svg" width="200" height="200" viewBox="0 0 52.917 52.917"><defs><path id="a" d="M-249.804 131.097h84.005v23.548h-84.005z"/></defs><g transform="translate(249.804 -91.41)"><rect y="91.409" x="-249.804" height="52.917" width="52.917" style="fill:#222;fill-opacity:1;fill-rule:nonzero;stroke:none;stroke-width:.5;stroke-linecap:butt;stroke-linejoin:round;stroke-miterlimit:4;stroke-dasharray:none;stroke-dashoffset:0;stroke-opacity:.909449;paint-order:normal" rx="3.969" ry="3.969"/><rect style="fill:#ffe000;fill-opacity:1;fill-rule:nonzero;stroke:none;stroke-width:.5;stroke-linecap:butt;stroke-linejoin:round;stroke-miterlimit:4;stroke-dasharray:none;stroke-dashoffset:0;stroke-opacity:.909449;paint-order:normal" width="47.625" height="47.625" x="-247.159" y="94.055" rx="2.646" ry="2.646"/><path d="M-248.35 128.451v8.335a5.544 5.544 0 0 0 5.557 5.556h38.894a5.544 5.544 0 0 0 5.556-5.556v-8.335z" style="fill:#222;fill-opacity:1;fill-rule:nonzero;stroke:none;stroke-width:.5;stroke-linecap:butt;stroke-linejoin:round;stroke-miterlimit:4;stroke-dasharray:none;stroke-dashoffset:0;stroke-opacity:.909449;paint-order:normal"/><path style="fill:#222;stroke-width:.264583;fill-opacity:1" d="m-223.407 113.99-4.035 7.076h2.601v7.515h2.99v-7.515h2.6zM-223.407 108.584l-4.035-7.077h2.601v-7.515h2.99v7.515h2.6zM-226.049 111.226l-7.077-4.035v2.6h-14.394v2.99h14.394v2.6zM-220.643 111.226l7.076-4.035v2.6h14.395v2.99h-14.395v2.6z"/><g aria-label="CENTRALIZED" transform="translate(-97.667 53.522) scale(.5971)" style="font-style:normal;font-weight:400;font-size:10.5833px;line-height:1.25;font-family:sans-serif;white-space:pre;shape-inside:url(#a);fill:#eee;fill-opacity:1;stroke:none;stroke-width:1.67476"><path d="M-245.38 140.952q-1.133 0-2.054-.487-.91-.498-1.44-1.365-.518-.879-.518-1.98 0-1.1.519-1.968.529-.878 1.439-1.365.92-.498 2.064-.498.963 0 1.735.339.784.339 1.313.974l-1.101 1.016q-.751-.868-1.863-.868-.688 0-1.227.307-.54.296-.847.836-.296.54-.296 1.228 0 .687.296 1.227.307.54.847.847.54.296 1.227.296 1.112 0 1.863-.878l1.1 1.016q-.528.645-1.312.984-.783.339-1.746.339zM-235.433 139.449v1.376h-5.736v-7.409h5.599v1.376h-3.895v1.609h3.44v1.333h-3.44v1.715zM-227.273 133.416v7.409h-1.407l-3.694-4.498v4.498h-1.693v-7.409h1.418l3.683 4.498v-4.498zM-223.981 134.813h-2.371v-1.397h6.456v1.397h-2.371v6.012h-1.714zM-214.255 140.825l-1.43-2.064h-1.576v2.064h-1.715v-7.409h3.207q.984 0 1.704.328.73.329 1.122.932.391.603.391 1.429 0 .825-.402 1.428-.391.593-1.122.91l1.662 2.382zm-.032-4.72q0-.625-.402-.953-.403-.339-1.175-.339h-1.397v2.583h1.397q.772 0 1.175-.339.402-.339.402-.952zM-206.318 139.237h-3.44l-.656 1.588h-1.757l3.302-7.409h1.694l3.312 7.409h-1.799zm-.54-1.302-1.174-2.836-1.175 2.836zM-203.09 133.416h1.714v6.012h3.715v1.397h-5.43zM-196.698 133.416h1.715v7.409h-1.715zM-187.226 139.428v1.397h-6.477v-1.112l4.064-4.9h-3.979v-1.397h6.234v1.112l-4.054 4.9zM-180.389 139.449v1.376h-5.736v-7.409h5.598v1.376h-3.894v1.609h3.44v1.333h-3.44v1.715zM-179.024 133.416h3.366q1.206 0 2.127.466.931.455 1.44 1.291.518.836.518 1.948 0 1.11-.519 1.947-.508.836-1.439 1.302-.92.455-2.127.455h-3.366zm3.281 6.001q1.111 0 1.768-.614.666-.624.666-1.682 0-1.059-.666-1.673-.657-.624-1.768-.624h-1.566v4.593z" style="font-style:normal;font-variant:normal;font-weight:700;font-stretch:normal;font-family:Montserrat;-inkscape-font-specification:'Montserrat Bold';fill:#eee;fill-opacity:1;stroke-width:2.80481"/></g></g></svg>