<svg xmlns="http://www.w3.org/2000/svg" width="200" height="200" viewBox="0 0 52.917 52.917"><defs><path id="a" d="M-242.793 132.684h120.518v26.855h-120.518z"/></defs><g transform="translate(249.804 -91.41)"><rect y="91.409" x="-249.804" height="52.917" width="52.917" style="fill:#222;fill-opacity:1;fill-rule:nonzero;stroke:none;stroke-width:.5;stroke-linecap:butt;stroke-linejoin:round;stroke-miterlimit:4;stroke-dasharray:none;stroke-dashoffset:0;stroke-opacity:.909449;paint-order:normal" rx="3.969" ry="3.969"/><rect style="fill:#fff;fill-opacity:1;fill-rule:nonzero;stroke:none;stroke-width:.5;stroke-linecap:butt;stroke-linejoin:round;stroke-miterlimit:4;stroke-dasharray:none;stroke-dashoffset:0;stroke-opacity:.909449;paint-order:normal" width="47.625" height="47.625" x="-247.159" y="94.055" rx="2.646" ry="2.646"/><path d="M-248.35 128.451v8.335a5.544 5.544 0 0 0 5.557 5.556h38.894a5.544 5.544 0 0 0 5.556-5.556v-8.335z" style="fill:#222;fill-opacity:1;fill-rule:nonzero;stroke:none;stroke-width:.5;stroke-linecap:butt;stroke-linejoin:round;stroke-miterlimit:4;stroke-dasharray:none;stroke-dashoffset:0;stroke-opacity:.909449;paint-order:normal"/><g style="stroke-width:.865285;fill:#222;fill-opacity:1"><path style="fill:#222;stroke-width:.22894;fill-opacity:1" d="m-222.535 125.075-3.271-5.737h2.108v-6.092h2.424v6.092h2.108zM-222.535 97.034l-3.271 5.737h2.108v6.093h2.424v-6.093h2.108zM-236.507 111.006l5.737-3.272v2.109h6.093v2.424h-6.093v2.108zM-208.466 111.006l-5.737-3.272v2.109h-6.092v2.424h6.092v2.108z" transform="matrix(1.15569 0 0 1.15569 33.779 -16.76)"/></g><g aria-label="DECENTRALIZED" transform="matrix(.51442 0 0 .51442 -122.865 64.043)" style="font-style:normal;font-weight:400;font-size:10.5833px;line-height:1.25;font-family:sans-serif;white-space:pre;shape-inside:url(#a);fill:#eee;fill-opacity:1;stroke:none;stroke-width:1.94393"><path d="M-241.915 135.002h3.366q1.206 0 2.127.466.932.455 1.44 1.291.518.836.518 1.947 0 1.112-.518 1.948-.508.836-1.44 1.302-.92.455-2.127.455h-3.366zm3.281 6.001q1.112 0 1.768-.614.666-.624.666-1.683 0-1.058-.666-1.672-.656-.624-1.768-.624h-1.566v4.593zM-227.437 141.035v1.376h-5.736v-7.409h5.599v1.376h-3.895v1.609h3.44v1.333h-3.44v1.715zM-222.547 142.538q-1.133 0-2.053-.487-.91-.498-1.44-1.365-.518-.879-.518-1.98 0-1.1.518-1.968.53-.878 1.44-1.365.92-.498 2.063-.498.964 0 1.736.339.783.339 1.312.974l-1.1 1.016q-.752-.868-1.863-.868-.688 0-1.228.307-.54.296-.846.836-.297.54-.297 1.227 0 .688.297 1.228.307.54.846.847.54.296 1.228.296 1.111 0 1.863-.878l1.1 1.016q-.529.645-1.312.984-.783.339-1.746.339zM-212.599 141.035v1.376h-5.736v-7.409h5.599v1.376h-3.895v1.609h3.44v1.333h-3.44v1.715zM-204.44 135.002v7.409h-1.407l-3.693-4.498v4.498h-1.694v-7.409h1.419l3.683 4.498v-4.498zM-201.148 136.4h-2.37v-1.398h6.455v1.397h-2.37v6.012h-1.715zM-191.422 142.41l-1.428-2.063h-1.577v2.064h-1.715v-7.409h3.207q.984 0 1.704.328.73.328 1.122.932.391.603.391 1.428 0 .826-.402 1.43-.392.592-1.122.91l1.662 2.38zm-.032-4.72q0-.624-.402-.952-.402-.339-1.174-.339h-1.397v2.583h1.397q.772 0 1.174-.339.402-.339.402-.953zM-183.484 140.823h-3.44l-.656 1.588h-1.757l3.302-7.409h1.694l3.312 7.409h-1.8zm-.54-1.302-1.175-2.836-1.174 2.836zM-180.256 135.002h1.714v6.012h3.715v1.397h-5.43zM-173.864 135.002h1.714v7.409h-1.714zM-164.392 141.014v1.397h-6.477v-1.112l4.064-4.9h-3.98v-1.397h6.234v1.112l-4.053 4.9zM-157.555 141.035v1.376h-5.736v-7.409h5.598v1.376h-3.894v1.609h3.44v1.333h-3.44v1.715zM-156.19 135.002h3.366q1.206 0 2.127.466.931.455 1.44 1.291.518.836.518 1.947 0 1.112-.519 1.948-.508.836-1.44 1.302-.92.455-2.126.455h-3.366zm3.28 6.001q1.112 0 1.768-.614.667-.624.667-1.683 0-1.058-.667-1.672-.656-.624-1.767-.624h-1.566v4.593z" style="font-style:normal;font-variant:normal;font-weight:700;font-stretch:normal;font-family:Montserrat;-inkscape-font-specification:'Montserrat Bold';fill:#eee;fill-opacity:1;stroke-width:4.18292"/></g></g></svg>