<svg xmlns="http://www.w3.org/2000/svg" width="200" height="200" viewBox="0 0 52.917 52.917"><defs><path id="a" d="M-243.724 131.821h81.563v24.676h-81.563z"/></defs><g transform="translate(249.804 -91.41)"><rect ry="3.969" rx="3.969" style="fill:#222;fill-opacity:1;fill-rule:nonzero;stroke:none;stroke-width:.5;stroke-linecap:butt;stroke-linejoin:round;stroke-miterlimit:4;stroke-dasharray:none;stroke-dashoffset:0;stroke-opacity:.909449;paint-order:normal" width="52.917" height="52.917" x="-249.804" y="91.409"/><rect ry="2.646" rx="2.646" y="94.055" x="-247.159" height="47.625" width="47.625" style="fill:#03a9f4;fill-opacity:1;fill-rule:nonzero;stroke:none;stroke-width:.5;stroke-linecap:butt;stroke-linejoin:round;stroke-miterlimit:4;stroke-dasharray:none;stroke-dashoffset:0;stroke-opacity:.909449;paint-order:normal"/><path style="fill:#222;fill-opacity:1;stroke-width:1" d="M-223.347 96.516a19.2 19.2 0 0 0-1.498.046c-3.822.353-7.16 1.71-10.102 4.11-.632.515-1.879 1.76-2.413 2.41-2.371 2.876-3.742 6.192-4.122 9.956-.076.763-.088 2.431-.02 3.172.36 3.881 1.76 7.277 4.227 10.238.204.245.672.743 1.063 1.134.978.977 1.733 1.6 2.851 2.343a18.083 18.083 0 0 0 8.575 2.942l.718.05c.422.03 1.792-.014 2.4-.07a17.929 17.929 0 0 0 6.448-1.836c5.337-2.659 9.059-7.806 9.89-13.676.14-.987.186-1.62.184-2.656a17.668 17.668 0 0 0-.94-5.777c-.72-2.148-1.829-4.116-3.333-5.922-.471-.566-1.64-1.735-2.195-2.196-2.984-2.475-6.35-3.863-10.235-4.222-.333-.031-.915-.046-1.498-.046zm-4.252 2.862a23.826 23.826 0 0 0-2.668 3.563 27.543 27.543 0 0 0-1.398 2.71l-.055-.019a25.21 25.21 0 0 1-2.098-1.023c-.3-.168-.657-.377-.941-.551a13.76 13.76 0 0 1-.297-.188c.04-.044.071-.085.121-.137a16.08 16.08 0 0 1 4.305-3.226c.895-.464 2.027-.848 3.031-1.129zm8.492.004c2.444.675 4.85 1.953 6.649 3.664.303.288.557.54.73.723.04.042.06.063.09.097-.086.056-.184.121-.304.196-.284.175-.626.38-.868.515-.207.116-.68.359-1.03.532-.352.172-.824.388-1.025.472l-.163.07-.047-.109c-.251-.562-.998-2.016-1.262-2.457a24.209 24.209 0 0 0-2.77-3.703zm-5.367.02c.002.204.006.423.008.734.005.785.008 1.868.008 3.058v4.079h-.062c-.852-.014-2.511-.243-3.676-.512-.418-.096-.814-.2-1.101-.285-.102-.03-.17-.055-.239-.078a22.452 22.452 0 0 1 .668-1.36 20.608 20.608 0 0 1 3.254-4.527c.198-.21.577-.583.907-.895.089-.084.155-.142.234-.215zm2.254 0c.05.046.09.077.144.129.274.254.59.555.77.742a20.763 20.763 0 0 1 3.957 5.719c.075.158.143.3.191.41a5.62 5.62 0 0 1-.28.086 22.787 22.787 0 0 1-4.15.754c-.227.019-.531.034-.648.035v-4.086c0-1.34.006-2.423.012-3.169.002-.271.001-.443.004-.62zm-14.246 6.238c.056.034.108.065.176.11a24.294 24.294 0 0 0 3.71 1.952c.07.029.087.04.126.06l-.098.32c-.526 1.71-.892 3.771-.974 5.503l-2.885.008-2.86.008.008-.121c.027-.464.107-1.076.222-1.703.274-1.486.81-3.04 1.505-4.376.31-.596.796-1.376 1.07-1.761zm26.226.012c1.12 1.655 1.915 3.332 2.372 5.16.231.924.43 2.264.437 2.789h-2.844c-.853 0-1.629 0-2.195-.004a59.57 59.57 0 0 1-.672-.008h-.035v-.004c0-.81-.224-2.473-.492-3.703-.127-.583-.435-1.736-.57-2.12.042-.02.078-.039.128-.06a24.407 24.407 0 0 0 3.708-1.953c.063-.04.111-.067.163-.097zm-6.031 2.577c.068-.022.086.015.219.436.455 1.445.827 3.52.873 4.864l.01.306-3.64.009c-2.894.007-3.645 0-3.658-.036-.01-.025-.014-1.048-.008-2.274l.009-2.229.36-.025c1.799-.13 3.087-.325 4.466-.674a31.741 31.741 0 0 0 1.369-.377zm-14.05.27c1.719.53 3.597.881 5.699 1.028l.145.011V113.585l-3.387.008c-1.135.003-2.048.004-2.676 0-.314-.002-.555-.008-.719-.012h-.015a9.2 9.2 0 0 1 .02-.297c.023-.304.064-.696.108-1.055.138-1.112.436-2.516.743-3.488.046-.146.061-.187.081-.242zm-8.95 7.328h5.731c.01.121.037.464.058.758.119 1.627.437 3.32.922 4.918l.059.187-.254.11c-1.134.48-2.663 1.296-3.59 1.918l-.125.082c-.01-.014-.016-.019-.027-.035a10.078 10.078 0 0 1-.352-.532 19.26 19.26 0 0 1-.797-1.406c-.876-1.745-1.512-4.06-1.617-5.878zm7.985 0 3.394.008 3.415.012v4.043l-.145.012c-2.068.145-3.638.414-5.438.933l-.175.052-.145.038a5.84 5.84 0 0 1-.062-.195c-.076-.25-.173-.592-.262-.953a21.542 21.542 0 0 1-.575-3.793zm15.879 0-.008.157a21.466 21.466 0 0 1-.829 4.726c-.03.104-.048.169-.066.223l-.023-.008c-1.646-.523-3.65-.882-5.719-1.024l-.164-.011v-4.048l3.414-.008zm2.25 0h5.73c-.003.102-.02.368-.047.602-.303 2.627-1.148 4.962-2.578 7.125-.064.097-.118.174-.168.246l-.066-.043c-.954-.64-2.514-1.476-3.653-1.957l-.253-.11.058-.187c.498-1.638.856-3.59.942-5.156.01-.191.025-.416.035-.52zm-11.301 6.329v4.382c0 1.117-.005 2.16-.008 2.907l-.004.769-.008-.008a27.146 27.146 0 0 1-.778-.746 20.584 20.584 0 0 1-4.21-6.105c-.056-.12-.103-.222-.141-.31.031-.01.046-.018.086-.03.211-.064.536-.15.968-.258 1.24-.308 2.777-.54 3.852-.59zm2.222 0 .235.011c.66.031 1.612.141 2.45.29a26.515 26.515 0 0 1 2.429.573l.039.012a21.137 21.137 0 0 1-5.137 7.164c0-.047-.003-.043-.004-.101-.008-.572-.012-1.682-.012-3.785zm-9.496 1.652c.027.054.046.09.102.219.952 2.178 2.342 4.27 3.922 6.046a16.02 16.02 0 0 1-6.152-3.34c-.12-.104-.475-.452-.79-.765-.154-.153-.298-.3-.406-.41.117-.077.27-.173.457-.285.4-.24.916-.53 1.356-.758.249-.13.625-.311.957-.465.265-.123.438-.195.554-.242zm16.77 0c.203.077.57.24 1.031.469.524.26 1.098.562 1.493.793.394.23.658.387.804.488-.08.085-.185.196-.305.316-.241.243-.53.521-.722.696-1.737 1.586-3.999 2.767-6.27 3.418 1.562-1.776 2.92-3.798 3.867-5.961.057-.129.075-.165.102-.22z"/><path d="M-248.35 128.451v8.335a5.544 5.544 0 0 0 5.557 5.556h38.894a5.544 5.544 0 0 0 5.556-5.556v-8.335z" style="fill:#222;fill-opacity:1;fill-rule:nonzero;stroke:none;stroke-width:.5;stroke-linecap:butt;stroke-linejoin:round;stroke-miterlimit:4;stroke-dasharray:none;stroke-dashoffset:0;stroke-opacity:.909449;paint-order:normal"/><g aria-label="GLOBALIST" transform="translate(-2.715 -1.242)" style="font-style:normal;font-weight:400;font-size:7.76111px;line-height:1.25;font-family:sans-serif;white-space:pre;shape-inside:url(#a);fill:#eee;fill-opacity:1;stroke:none"><path d="M-239.41 136.152h1.15v2.204q-.443.334-1.025.512-.582.179-1.172.179-.846 0-1.521-.357-.676-.365-1.064-1.002-.38-.644-.38-1.45 0-.808.38-1.444.388-.645 1.071-1.002.683-.364 1.537-.364.714 0 1.296.24.582.24.978.699l-.807.745q-.582-.613-1.405-.613-.52 0-.923.217-.404.217-.629.613-.225.396-.225.908 0 .505.225.9.225.396.62.621.404.218.917.218.543 0 .978-.233zM-237.097 133.52h1.258v4.409h2.724v1.025h-3.982zM-229.871 139.047q-.846 0-1.529-.365-.675-.365-1.063-1.001-.38-.645-.38-1.444 0-.8.38-1.436.388-.644 1.063-1.009.683-.364 1.529-.364.846 0 1.521.364.675.365 1.063 1.01.388.636.388 1.435 0 .8-.388 1.444-.388.636-1.063 1-.675.366-1.521.366zm0-1.071q.481 0 .87-.218.387-.225.605-.62.225-.396.225-.9 0-.505-.225-.901-.218-.396-.606-.613-.388-.225-.869-.225t-.87.225q-.387.217-.612.613-.218.396-.218.9 0 .505.218.9.225.396.613.621.388.218.869.218zM-221.962 136.128q.465.148.73.497.263.342.263.846 0 .714-.559 1.102-.55.38-1.614.38h-2.81v-5.432h2.655q.993 0 1.52.38.536.38.536 1.032 0 .396-.194.706-.186.31-.527.49zm-2.74-1.66v1.28h1.25q.465 0 .706-.163.24-.163.24-.481 0-.318-.24-.473-.24-.163-.707-.163zm1.467 3.539q.496 0 .745-.163.256-.163.256-.505 0-.675-1.001-.675h-1.467v1.343zM-216.437 137.79h-2.522l-.481 1.164h-1.288l2.421-5.433h1.242l2.429 5.433h-1.32zm-.395-.955-.862-2.08-.861 2.08zM-214.07 133.52h1.258v4.409h2.724v1.025h-3.981zM-209.382 133.52h1.258v5.434h-1.258zM-205.051 139.047q-.644 0-1.25-.171-.597-.179-.962-.458l.427-.947q.35.256.83.411.482.156.963.156.535 0 .791-.156.256-.163.256-.426 0-.194-.155-.319-.147-.132-.388-.21-.233-.077-.636-.17-.621-.147-1.017-.295-.396-.147-.683-.473-.28-.326-.28-.87 0-.473.257-.853.256-.388.768-.613.52-.225 1.265-.225.52 0 1.017.124.497.124.87.357l-.389.954q-.753-.426-1.506-.426-.527 0-.783.17-.249.171-.249.45 0 .28.287.42.295.131.893.263.62.148 1.017.295.395.148.675.466.287.318.287.861 0 .466-.264.854-.256.38-.776.606-.52.225-1.265.225zM-200.837 134.545h-1.738v-1.024h4.734v1.024h-1.738v4.409h-1.258z" style="font-style:normal;font-variant:normal;font-weight:700;font-stretch:normal;font-size:7.76111px;font-family:Montserrat;-inkscape-font-specification:'Montserrat Bold';fill:#eee;fill-opacity:1"/></g></g></svg>