<svg xmlns="http://www.w3.org/2000/svg" width="200" height="200" viewBox="0 0 52.917 52.917"><defs><path id="a" d="M-255.23 125.834h102.525v46.959H-255.23z"/></defs><g transform="translate(249.804 -91.41)"><rect y="91.409" x="-249.804" height="52.917" width="52.917" style="fill:#222;fill-opacity:1;fill-rule:nonzero;stroke:none;stroke-width:.5;stroke-linecap:butt;stroke-linejoin:round;stroke-miterlimit:4;stroke-dasharray:none;stroke-dashoffset:0;stroke-opacity:.909449;paint-order:normal" rx="3.969" ry="3.969"/><rect style="fill:#cd0000;fill-opacity:1;fill-rule:nonzero;stroke:none;stroke-width:.5;stroke-linecap:butt;stroke-linejoin:round;stroke-miterlimit:4;stroke-dasharray:none;stroke-dashoffset:0;stroke-opacity:.909449;paint-order:normal" width="47.625" height="47.625" x="-247.159" y="94.055" rx="2.646" ry="2.646"/><path d="M-248.35 128.451v8.335a5.544 5.544 0 0 0 5.557 5.556h38.894a5.544 5.544 0 0 0 5.556-5.556v-8.335z" style="fill:#222;fill-opacity:1;fill-rule:nonzero;stroke:none;stroke-width:.5;stroke-linecap:butt;stroke-linejoin:round;stroke-miterlimit:4;stroke-dasharray:none;stroke-dashoffset:0;stroke-opacity:.909449;paint-order:normal"/><g style="fill:#222;fill-opacity:1;stroke-width:2.96662"><path d="M-6436.471 1742.927c6.387 7.23 14.963 12.503 24.298 14.939 6.056 1.58 12.473 1.978 18.597.684 6.123-1.294 11.937-4.335 16.158-8.957 4.575-5.01 7.113-11.702 7.64-18.466.529-6.764-.87-13.594-3.427-19.878-4.56-11.21-12.884-20.851-23.31-26.998a45.685 45.685 0 0 1 23.619 9.037 45.684 45.684 0 0 1 15.118 20.271 45.684 45.684 0 0 1 1.926 25.215 45.683 45.683 0 0 1-11.864 22.332c-8.683 8.944-21.18 14.055-33.642 13.76-12.462-.294-24.703-5.99-32.954-15.335l-14.556 14.557-9.382-9.382z" style="fill:#222;fill-opacity:1;stroke:none;stroke-width:.156983;stroke-linecap:butt;stroke-linejoin:miter;stroke-miterlimit:4;stroke-dasharray:none;stroke-opacity:1" transform="matrix(.33709 0 0 .33709 1936.13 -465.902)"/><path d="m-6392.7 1702.504-10.96 10.96 49.264 49.262-11.131 11.24-49.318-49.317-8.654 8.654-12.791-12.79 21.572-21.573c2.681.276 5.403.15 8.047-.37a27.264 27.264 0 0 0 7.417-2.62z" style="fill:#222;fill-opacity:1;stroke:none;stroke-width:.784915px;stroke-linecap:butt;stroke-linejoin:miter;stroke-opacity:1" transform="matrix(.33709 0 0 .33709 1936.13 -465.902)"/></g><g aria-label="LEFT-UNITY" transform="translate(-67.155 42.78) scale(.70206)" style="font-style:normal;font-weight:400;font-size:10.5833px;line-height:1.25;font-family:sans-serif;white-space:pre;shape-inside:url(#a);fill:#eee;fill-opacity:1;stroke:none;stroke-width:1.42438"><path d="M-254.352 128.153h1.714v6.011h3.715v1.397h-5.429zM-242.224 134.185v1.376h-5.736v-7.408h5.599v1.376h-3.895v1.608h3.44v1.334h-3.44v1.714zM-239.144 129.529v1.957h3.43v1.376h-3.43v2.699h-1.714v-7.408h5.598v1.376zM-232.508 129.55h-2.37v-1.397h6.455v1.397h-2.37v6.011h-1.715zM-228.211 131.92h2.995v1.323h-2.995zM-220.507 135.688q-1.587 0-2.476-.878-.879-.879-.879-2.509v-4.148h1.715v4.085q0 1.99 1.65 1.99.805 0 1.229-.477.423-.487.423-1.513v-4.085h1.693v4.148q0 1.63-.889 2.509-.878.878-2.466.878zM-208.664 128.153v7.408h-1.408l-3.693-4.498v4.498h-1.694v-7.408h1.419l3.683 4.498v-4.498zM-206.907 128.153h1.714v7.408h-1.714zM-201.901 129.55h-2.371v-1.397h6.456v1.397h-2.37v6.011h-1.715z" style="font-style:normal;font-variant:normal;font-weight:700;font-stretch:normal;font-family:Montserrat;-inkscape-font-specification:'Montserrat Bold';fill:#eee;fill-opacity:1;stroke-width:2.02885"/><path d="M-193.477 132.936v2.625h-1.715v-2.646l-2.868-4.762h1.82l1.98 3.291 1.979-3.291h1.683z" style="font-style:normal;font-variant:normal;font-weight:700;font-stretch:normal;font-family:Montserrat;-inkscape-font-specification:'Montserrat Bold';fill:#eee;fill-opacity:1;stroke-width:2.02885"/></g></g></svg>