<svg xmlns="http://www.w3.org/2000/svg" width="200" height="200" viewBox="0 0 52.917 52.917"><defs><path id="a" d="M-268.458 130.436h120.121v27.384h-120.121z"/></defs><g transform="translate(249.804 -91.41)"><rect y="91.409" x="-249.804" height="52.917" width="52.917" style="fill:#222;fill-opacity:1;fill-rule:nonzero;stroke:none;stroke-width:.5;stroke-linecap:butt;stroke-linejoin:round;stroke-miterlimit:4;stroke-dasharray:none;stroke-dashoffset:0;stroke-opacity:.909449;paint-order:normal" rx="3.969" ry="3.969"/><rect style="fill:#f60;fill-opacity:1;fill-rule:nonzero;stroke:none;stroke-width:.5;stroke-linecap:butt;stroke-linejoin:round;stroke-miterlimit:4;stroke-dasharray:none;stroke-dashoffset:0;stroke-opacity:.909449;paint-order:normal" width="47.625" height="47.625" x="-247.159" y="94.055" rx="2.646" ry="2.646"/><path d="M-248.35 128.451v8.335a5.544 5.544 0 0 0 5.557 5.556h38.894a5.544 5.544 0 0 0 5.556-5.556v-8.335z" style="fill:#222;fill-opacity:1;fill-rule:nonzero;stroke:none;stroke-width:.5;stroke-linecap:butt;stroke-linejoin:round;stroke-miterlimit:4;stroke-dasharray:none;stroke-dashoffset:0;stroke-opacity:.909449;paint-order:normal"/><g aria-label="LIB-UNITY" transform="matrix(.7749 0 0 .7749 -37.403 29.605)" style="font-style:normal;font-weight:400;font-size:10.5833px;line-height:1.25;font-family:sans-serif;white-space:pre;shape-inside:url(#a);fill:#eee;fill-opacity:1;stroke:none;stroke-width:1.29049"><path d="M-267.579 132.754h1.715v6.012h3.715v1.397h-5.43zM-261.186 132.754h1.714v7.409h-1.714zM-252.275 136.31q.635.201.995.678.36.465.36 1.153 0 .974-.763 1.503-.75.519-2.2.519h-3.832v-7.409h3.62q1.354 0 2.074.519.73.518.73 1.407 0 .54-.265.964-.254.423-.72.666zm-3.736-2.265v1.747h1.704q.635 0 .963-.223.328-.222.328-.656 0-.434-.328-.645-.328-.223-.963-.223zm2 4.826q.677 0 1.016-.222.35-.222.35-.688 0-.92-1.366-.92h-2v1.83zM-249.947 136.522h2.995v1.323h-2.995zM-242.242 140.29q-1.588 0-2.477-.879-.878-.878-.878-2.508v-4.149h1.714v4.085q0 1.99 1.651 1.99.805 0 1.228-.476.423-.487.423-1.514v-4.085h1.694v4.149q0 1.63-.89 2.508-.878.879-2.465.879zM-230.4 132.754v7.409h-1.407l-3.694-4.498v4.498h-1.693v-7.409h1.418l3.683 4.498v-4.498zM-228.643 132.754h1.715v7.409h-1.715zM-223.637 134.151h-2.37v-1.397h6.455v1.397h-2.37v6.012h-1.715z" style="font-style:normal;font-variant:normal;font-weight:700;font-stretch:normal;font-family:Montserrat;-inkscape-font-specification:'Montserrat Bold';fill:#eee;fill-opacity:1;stroke-width:1.82929"/><path d="M-215.213 137.538v2.625h-1.714v-2.646l-2.868-4.763h1.82l1.98 3.292 1.978-3.292h1.683z" style="font-style:normal;font-variant:normal;font-weight:700;font-stretch:normal;font-family:Montserrat;-inkscape-font-specification:'Montserrat Bold';fill:#eee;fill-opacity:1;stroke-width:1.82929"/></g><path class="st0" style="fill:#222;fill-opacity:1;stroke-width:2.57824" transform="translate(-232.47 92.444) scale(.10262)" d="M116.7 216.1h19.6v-18.7H25.2v18.7h19.5v10.3h17.2l11.4 163.7h14.8l11.3-163.7h17.3z"/><path style="fill:#222;fill-opacity:1;stroke-width:.264583" d="M-231.515 106.962c.02-.195.031-.39.062-.585.072-.503.226-.975.441-1.437a5.92 5.92 0 0 1 1.15-1.642 7.233 7.233 0 0 1 1.95-1.426 6.648 6.648 0 0 1 1.96-.636c.184-.031.379-.052.564-.01.256.05.43.194.472.461v.01l.308-.061c.359-.051.708-.041 1.057.072a.915.915 0 0 1 .38.236c.164.174.205.38.184.605l-.03.226c-.032-.02-.062-.03-.083-.041-.349-.174-.698-.174-1.057-.041a2.13 2.13 0 0 0-.862.636c-.308.37-.503.8-.636 1.262a6.322 6.322 0 0 0-.205 1.068v.061l.308-.061c.995-.226 1.95-.565 2.863-1.026a11.178 11.178 0 0 0 2.586-1.786c1.17-1.016 2.083-2.247 2.801-3.623.513-.995.914-2.032 1.18-3.12.113-.461.206-.933.257-1.405v-.031h.01c.154.123.267.287.36.462.143.297.225.615.266.944.02.185.031.37.052.564v.421c-.01.123-.01.236-.02.36-.052.594-.155 1.18-.299 1.764a11.886 11.886 0 0 1-1.036 2.668 12.25 12.25 0 0 1-2.925 3.644 12.15 12.15 0 0 1-4.217 2.288 6.898 6.898 0 0 0-.431.133v.103h.061c.41-.01.821-.072 1.221-.185.719-.184 1.406-.482 2.063-.83.821-.442 1.58-.966 2.288-1.571a10.507 10.507 0 0 0 1.786-1.909c.36-.503.667-1.047.872-1.631.052-.154.093-.298.144-.462.01.02.02.03.03.051.073.144.124.298.155.452.092.44.072.882-.01 1.323a6.007 6.007 0 0 1-.565 1.663 8.153 8.153 0 0 1-1.478 2.063 10.024 10.024 0 0 1-1.785 1.446 13.376 13.376 0 0 1-3.356 1.52c-.76.225-1.519.4-2.299.523-.092.01-.092.02-.082.113.01 0 .03.01.041.01.257 0 .503.02.76.01a8.317 8.317 0 0 0 2.062-.328 11.123 11.123 0 0 0 2.74-1.221 12.106 12.106 0 0 0 1.97-1.488c.011-.01.011-.01.021-.01-.04.42-.205.943-.4 1.323a4.67 4.67 0 0 1-1.262 1.53c-.606.502-1.283.871-2.001 1.159-.832.338-1.694.554-2.586.677-.637.092-1.273.123-1.91.113a9.566 9.566 0 0 1-1.63-.175 7.062 7.062 0 0 1-1.694-.533 4.259 4.259 0 0 1-1.221-.821 3.297 3.297 0 0 1-.719-1.037c-.236-.543-.43-1.108-.513-1.693-.03-.215-.051-.441-.072-.667-.04-.164-.04-.318-.04-.472z"/></g></svg>