<svg xmlns="http://www.w3.org/2000/svg" width="200" height="200" viewBox="0 0 52.917 52.917"><defs><path id="a" d="M-245.969 131.259h80.635v17.025h-80.635z"/></defs><g transform="translate(249.804 -91.41)"><rect y="91.409" x="-249.804" height="52.917" width="52.917" style="fill:#222;fill-opacity:1;fill-rule:nonzero;stroke:none;stroke-width:.5;stroke-linecap:butt;stroke-linejoin:round;stroke-miterlimit:4;stroke-dasharray:none;stroke-dashoffset:0;stroke-opacity:.909449;paint-order:normal" rx="3.969" ry="3.969"/><rect style="fill:#ff9800;fill-opacity:1;fill-rule:nonzero;stroke:none;stroke-width:.5;stroke-linecap:butt;stroke-linejoin:round;stroke-miterlimit:4;stroke-dasharray:none;stroke-dashoffset:0;stroke-opacity:.909449;paint-order:normal" width="47.625" height="47.625" x="-247.159" y="94.055" rx="2.646" ry="2.646"/><path style="fill:#222;fill-opacity:1;stroke-width:1" d="M-229.178 97.639c2.114.003 3.247.58 4.504 2.298 2.607 3.56 3.327 4.047 5.985 4.047 2.262 0 4-.495 9.064-2.58.583-.24 1.485 4.675 1.977 10.77l.29 3.582-1.49.653c-4.062 1.781-7.602 2.448-9.654 1.82-1.2-.368-2.14-1.319-3.812-3.851-1.432-2.17-3.214-2.842-6.194-2.333-1.921.328-5.585 1.554-5.644 1.888-.022.124.864 4.246 1.967 9.162l1.826 8.136a18.894 22.503 47.5 0 1-2.483-.246c-.245-1.666-1.183-6.089-3.148-14.922-1.967-8.843-3.421-15.876-3.34-16.153.232-.793.833-1.008 1.417-.506l.494.425 1.456-.577c2.573-1.019 5.081-1.615 6.785-1.613zm-7.642 3.885a.078.078 0 0 0-.054.02c-.054.047.437 2.477 1.09 5.4.796 3.555 1.256 5.196 1.389 4.957.11-.196.295-1.16.413-2.14.264-2.195-.021-4.127-.859-5.816-.534-1.076-1.652-2.425-1.979-2.42z"/><path d="M-248.35 128.451v8.335a5.544 5.544 0 0 0 5.557 5.556h38.894a5.544 5.544 0 0 0 5.556-5.556v-8.335z" style="fill:#222;fill-opacity:1;fill-rule:nonzero;stroke:none;stroke-width:.5;stroke-linecap:butt;stroke-linejoin:round;stroke-miterlimit:4;stroke-dasharray:none;stroke-dashoffset:0;stroke-opacity:.909449;paint-order:normal"/><g aria-label="LOCALIST" transform="matrix(.8657 0 0 .8657 -34.13 16.55)" style="font-style:normal;font-weight:400;font-size:10.5833px;line-height:1.25;font-family:sans-serif;white-space:pre;shape-inside:url(#a);fill:#eee;fill-opacity:1;stroke:none;stroke-width:1.15513"><path d="M-245.09 133.578h1.714v6.012h3.715v1.397h-5.43zM-235.237 141.114q-1.154 0-2.085-.498-.921-.497-1.45-1.365-.519-.878-.519-1.968 0-1.09.519-1.958.529-.879 1.45-1.376.931-.498 2.085-.498 1.153 0 2.074.498.92.497 1.45 1.376.53.868.53 1.958 0 1.09-.53 1.968-.53.868-1.45 1.365-.92.498-2.074.498zm0-1.46q.656 0 1.185-.297.53-.307.826-.847.306-.54.306-1.227 0-.688-.306-1.228-.297-.54-.826-.836-.53-.307-1.185-.307-.656 0-1.186.307-.529.296-.836.836-.296.54-.296 1.228t.296 1.227q.307.54.836.847.53.296 1.186.296zM-226.347 141.114q-1.133 0-2.053-.487-.91-.497-1.44-1.365-.518-.879-.518-1.98 0-1.1.518-1.968.53-.878 1.44-1.365.92-.498 2.063-.498.963 0 1.736.34.783.338 1.312.973l-1.1 1.016q-.752-.868-1.863-.868-.688 0-1.228.307-.54.296-.846.836-.297.54-.297 1.228t.297 1.227q.306.54.846.847.54.296 1.228.296 1.111 0 1.863-.878l1.1 1.016q-.529.645-1.312.984-.783.339-1.746.339zM-217.404 139.4h-3.44l-.656 1.587h-1.757l3.302-7.408h1.693l3.313 7.408h-1.8zm-.54-1.302-1.175-2.837-1.175 2.837zM-214.177 133.578h1.715v6.012h3.715v1.397h-5.43zM-207.784 133.578h1.714v7.409h-1.714zM-201.879 141.114q-.878 0-1.704-.233-.815-.243-1.312-.624l.582-1.292q.476.35 1.132.561.657.212 1.313.212.73 0 1.08-.212.349-.222.349-.582 0-.264-.212-.434-.201-.18-.53-.285-.317-.106-.867-.233-.847-.201-1.387-.402-.54-.202-.93-.646-.382-.445-.382-1.185 0-.646.35-1.165.349-.529 1.047-.836.71-.307 1.725-.307.71 0 1.387.17t1.185.487l-.53 1.301q-1.026-.582-2.052-.582-.72 0-1.07.233-.338.233-.338.614t.392.571q.402.18 1.217.36.846.201 1.386.402.54.202.92.635.392.434.392 1.175 0 .635-.36 1.164-.349.519-1.058.826-.709.307-1.725.307zM-196.132 134.975h-2.37v-1.396h6.455v1.396h-2.37v6.012h-1.715z" style="font-style:normal;font-variant:normal;font-weight:700;font-stretch:normal;font-family:Montserrat;-inkscape-font-specification:'Montserrat Bold';fill:#eee;fill-opacity:1;stroke-width:1.15513"/></g></g></svg>