<svg xmlns="http://www.w3.org/2000/svg" width="200" height="200" viewBox="0 0 52.917 52.917"><defs><path id="a" d="M-119.348 141.446h58.605v21.034h-58.605z"/></defs><g transform="translate(98.049 -95.143)"><rect ry="3.969" rx="3.969" style="fill:#222;fill-opacity:1;fill-rule:nonzero;stroke:none;stroke-width:.5;stroke-linecap:butt;stroke-linejoin:round;stroke-miterlimit:4;stroke-dasharray:none;stroke-dashoffset:0;stroke-opacity:.909449;paint-order:normal" width="52.917" height="52.917" x="-98.049" y="95.143"/><rect ry="2.646" rx="2.646" y="97.789" x="-95.403" height="47.625" width="47.625" style="fill:#20b8e7;fill-opacity:1;fill-rule:nonzero;stroke:none;stroke-width:.5;stroke-linecap:butt;stroke-linejoin:round;stroke-miterlimit:4;stroke-dasharray:none;stroke-dashoffset:0;stroke-opacity:.909449;paint-order:normal"/><path style="fill:#222;fill-opacity:1;fill-rule:nonzero;stroke:none;stroke-width:.5;stroke-linecap:butt;stroke-linejoin:round;stroke-miterlimit:4;stroke-dasharray:none;stroke-dashoffset:0;stroke-opacity:.909449;paint-order:normal" d="M-96.594 132.185v8.334a5.544 5.544 0 0 0 5.557 5.557h38.893a5.544 5.544 0 0 0 5.557-5.557v-8.334z"/><g style="stroke-width:6.39623;fill:#222;fill-opacity:1"><path d="M147.8 591.1c4.4-.4 8.7-1.1 13-1.8.9-.2 1.9-.2 2.8-.4 2-.4 3.9-.9 5.9-1.4 8.3-1.9 16.5-4.2 24.3-7.3v256.6h612.5V580.2c7.8 3 15.9 5.4 24.3 7.3 2 .4 3.9 1 5.9 1.4.9.2 1.9.3 2.8.4 4.3.7 8.6 1.4 13 1.8 5 .5 10.1.8 15.3.8 10.5 0 20.7-1.1 30.6-2.9v309.2c0 25.3-20.6 45.9-45.9 45.9H147.8c-25.4 0-45.9-20.6-45.9-45.9V588.9c9.9 1.8 20.1 2.9 30.6 2.9 5.2.1 10.3-.2 15.3-.7M990 423.4c0 67.7-54.8 122.5-122.5 122.5S745 491.1 745 423.4c0 67.7-54.8 122.5-122.5 122.5S500 491.1 500 423.4c0 67.7-54.8 122.5-122.5 122.5S255 491.1 255 423.4c0 67.7-54.8 122.5-122.5 122.5S10 491.1 10 423.4l86.1-229.7h807.7z" style="stroke-width:6.39623;fill:#222;fill-opacity:1" transform="matrix(.04137 0 0 .04137 -92.273 94.817)"/><path style="fill:#222;stroke-width:2.0468;fill-opacity:1" d="M477.335 828.74c-17.28-3.164-33.876-10.348-49.139-19.046-9.36-5.335-17.738-12.412-25.412-19.975-7.146-7.044-16.595-19.204-18.942-23.394l-1.558-2.78 24.305-14.835c18.913-11.544 25.484-15.279 29.22-17.378.998 2.33 6.7 12.467 11.909 17.033 10.296 9.025 23.224 15.408 36.458 18.922 8.45 2.243 17.589 2.533 26.206 1.057 12.43-2.128 24.653-7.012 35.14-14.015 7.841-5.236 14.347-12.523 19.747-20.252 4.683-6.703 10.496-18.678 10.601-22.12l.083-2.717-11.762-2.898c-7.282-1.794-11.766-3.24-11.774-3.796a14400.626 14400.626 0 0 1 67.673-40.316c14.809 24.697 25.33 43.214 39.045 67.726-.683.684-15.52-3.332-23.865-6.056-2.341 6.736-1.704 5.499-2.785 8.163-3.814 9.407-7.618 18.934-13.014 27.533-6.684 10.652-14.445 20.84-23.703 29.353-11.272 10.365-24.309 18.973-38.032 25.77-12.867 6.373-26.67 11.352-40.833 13.723-13.009 2.178-26.594 2.675-39.568.299zm-96.18-108.45c-12.501-21.771-28.215-46.565-40.19-65.394.227-.227 5.73.583 12.231 1.8 6.5 1.217 12.053 1.963 12.34 1.658.285-.306 1.859-3.816 3.496-7.801 14.18-34.518 31.903-57.226 57.666-73.887 12.346-7.985 20.327-11.62 34.778-15.845 17.135-5.009 30.401-6.688 47.225-5.977 15.255.644 18.418.367 35.686 5.61 18.087 5.492 25.458 10.966 37.361 18.856 10.678 7.078 26.926 24.33 33.546 33.314 2.834 3.847 5.488 7.107 5.897 7.246.409.138-11.348 7.375-26.126 16.08-14.778 8.707-27.105 15.554-27.394 15.216-.288-.337-2.303-3.866-3.89-5.426-11.491-11.291-24.487-22.356-39.762-27.473-11.043-3.698-23.548-4.028-34.906-1.46-15.44 3.493-30.142 11.699-41.977 22.213-6.637 5.896-9.915 11.422-15.143 21.91-2.58 5.176-3.747 8.405-3.787 10.48l-.059 2.997 7.608 2.04c15.494 4.154 15.532 4.168 14.384 5.315-22.821 13.561-40.154 23.854-64.543 38.447-3.295 2.086-3.19 2.085-4.44.08z" transform="matrix(.04137 0 0 .04137 -92.273 94.817)"/></g><g aria-label="MARKETS" transform="translate(25.858 -7.133)" style="font-style:normal;font-weight:400;font-size:8.46667px;line-height:1.25;font-family:sans-serif;white-space:pre;shape-inside:url(#a);fill:#eee;fill-opacity:1;stroke:none"><path d="m-113.252 149.227-.008-3.556-1.744 2.93h-.618l-1.736-2.854v3.48h-1.286V143.3h1.134l2.218 3.683 2.185-3.683h1.126l.017 5.927zM-106.656 147.957h-2.752l-.525 1.27h-1.405l2.641-5.927h1.355l2.65 5.927h-1.44zm-.432-1.041-.94-2.27-.94 2.27zM-100.298 149.227l-1.143-1.651h-1.261v1.651h-1.372V143.3h2.566q.787 0 1.363.263.584.262.897.745.314.482.314 1.143 0 .66-.322 1.143-.313.474-.898.728l1.33 1.905zm-.025-3.776q0-.5-.322-.762-.322-.271-.94-.271h-1.117v2.066h1.117q.618 0 .94-.271.322-.271.322-.762zM-95.692 146.899l-.796.83v1.498h-1.363V143.3h1.363v2.769l2.625-2.769h1.524l-2.455 2.642 2.599 3.285h-1.6zM-86.997 148.126v1.101h-4.588V143.3h4.478v1.101h-3.115v1.287h2.751v1.067h-2.751v1.371zM-84.677 144.418h-1.896V143.3h5.164v1.118h-1.896v4.809h-1.372zM-78.767 149.329q-.703 0-1.363-.187-.652-.194-1.05-.5l.466-1.032q.38.28.906.449.525.169 1.05.169.584 0 .863-.17.28-.177.28-.465 0-.212-.17-.347-.16-.144-.423-.229-.254-.085-.694-.186-.678-.161-1.11-.322-.431-.16-.745-.516-.304-.356-.304-.949 0-.516.279-.93.28-.424.838-.67.567-.245 1.38-.245.568 0 1.11.135.541.136.948.39l-.424 1.041q-.821-.466-1.642-.466-.576 0-.855.187-.271.186-.271.49 0 .306.313.458.322.144.974.288.677.16 1.109.322.432.16.736.508.314.347.314.94 0 .507-.288.93-.28.416-.847.661-.567.246-1.38.246z" style="font-style:normal;font-variant:normal;font-weight:700;font-stretch:normal;font-size:8.46667px;font-family:Montserrat;-inkscape-font-specification:'Montserrat Bold';fill:#eee;fill-opacity:1"/></g></g></svg>