<svg xmlns="http://www.w3.org/2000/svg" width="200" height="200" viewBox="0 0 52.917 52.917"><defs><path id="a" d="M-247.372 130.511h75.49v17.399h-75.49z"/></defs><g transform="translate(249.804 -91.41)"><rect y="91.409" x="-249.804" height="52.917" width="52.917" style="fill:#222;fill-opacity:1;fill-rule:nonzero;stroke:none;stroke-width:.5;stroke-linecap:butt;stroke-linejoin:round;stroke-miterlimit:4;stroke-dasharray:none;stroke-dashoffset:0;stroke-opacity:.909449;paint-order:normal" rx="3.969" ry="3.969"/><rect style="fill:#006aa7;fill-opacity:1;fill-rule:nonzero;stroke:none;stroke-width:.5;stroke-linecap:butt;stroke-linejoin:round;stroke-miterlimit:4;stroke-dasharray:none;stroke-dashoffset:0;stroke-opacity:.909449;paint-order:normal" width="47.625" height="47.625" x="-247.159" y="94.055" rx="2.646" ry="2.646"/><path d="M-248.35 128.451v8.335a5.544 5.544 0 0 0 5.557 5.556h38.894a5.544 5.544 0 0 0 5.556-5.556v-8.335z" style="fill:#222;fill-opacity:1;fill-rule:nonzero;stroke:none;stroke-width:.5;stroke-linecap:butt;stroke-linejoin:round;stroke-miterlimit:4;stroke-dasharray:none;stroke-dashoffset:0;stroke-opacity:.909449;paint-order:normal"/><g style="fill:#222;fill-opacity:1;stroke-width:2.86344"><path style="fill:#222;fill-opacity:1;stroke-width:3.09197" d="M153.14 88.478c2.51-9.435 8.029-17.777 16.083-25.197 10.296 8.773 13.61 17.546 17.583 26.32-4.71 3.317-9.41 6.582-14.364 11.37-6.782-4.69-10.342-9.039-19.302-12.493zM176.945 104.416c8.771-6.658 17.915-14.667 34.781-16.029 6.481 11.151 10.082 49.134-1.03 58.016-11.15-16.754-20.025-29.201-33.751-41.987zM155.67 161.421c-37.36-6.105-41.277-52.141-28.52-76.45 34.201 3.327 66.154 40.959 79.152 66.186-13.95 10.521-36.102 12.463-50.632 10.264z" transform="matrix(.34923 0 0 .34923 -282.438 75.64)"/></g><g aria-label="MODERATE" transform="matrix(.74627 0 0 .74627 -62.781 33.505)" style="font-style:normal;font-weight:400;font-size:10.5833px;line-height:1.25;font-family:sans-serif;white-space:pre;shape-inside:url(#a);fill:#eee;fill-opacity:1;stroke:none;stroke-width:1.34"><path d="m-239.753 140.239-.01-4.445-2.18 3.662h-.773l-2.17-3.567v4.35h-1.609v-7.409h1.419l2.772 4.604 2.73-4.604h1.408l.022 7.409zM-232.8 140.366q-1.153 0-2.085-.498-.92-.497-1.45-1.365-.518-.878-.518-1.968 0-1.09.518-1.958.53-.879 1.45-1.376.932-.498 2.085-.498 1.154 0 2.074.498.921.497 1.45 1.376.53.868.53 1.958 0 1.09-.53 1.968-.529.868-1.45 1.365-.92.498-2.074.498zm0-1.46q.656 0 1.185-.297.53-.307.826-.847.307-.54.307-1.227 0-.688-.307-1.228-.296-.54-.826-.836-.529-.307-1.185-.307t-1.185.307q-.53.296-.836.836-.297.54-.297 1.228t.297 1.227q.307.54.836.847.529.296 1.185.296zM-227.455 132.83h3.365q1.207 0 2.127.466.932.455 1.44 1.291.518.836.518 1.948 0 1.11-.518 1.947-.508.836-1.44 1.302-.92.455-2.127.455h-3.365zm3.28 6.001q1.112 0 1.768-.614.667-.624.667-1.682 0-1.059-.667-1.673-.656-.624-1.767-.624h-1.567v4.593zM-212.977 138.863v1.376h-5.736v-7.409h5.598v1.376h-3.895v1.609h3.44v1.333h-3.44v1.715zM-206.892 140.239l-1.429-2.064H-209.898v2.064h-1.714v-7.409h3.207q.984 0 1.704.329.73.328 1.121.93.392.604.392 1.43 0 .825-.402 1.428-.392.593-1.122.91l1.661 2.382zm-.032-4.72q0-.625-.402-.953-.402-.339-1.175-.339h-1.397v2.583h1.397q.773 0 1.175-.339t.402-.952zM-198.954 138.651h-3.44l-.656 1.588h-1.757l3.302-7.409h1.693l3.313 7.409h-1.8zm-.54-1.301-1.175-2.837-1.175 2.837zM-194.562 134.227h-2.371v-1.397h6.456v1.397h-2.371v6.012h-1.714zM-183.82 138.863v1.376h-5.737v-7.409h5.599v1.376h-3.895v1.609h3.44v1.333h-3.44v1.715z" style="font-style:normal;font-variant:normal;font-weight:700;font-stretch:normal;font-family:Montserrat;-inkscape-font-specification:'Montserrat Bold';fill:#eee;fill-opacity:1;stroke-width:1.34"/></g></g></svg>