<svg xmlns="http://www.w3.org/2000/svg" width="200" height="200" viewBox="0 0 52.917 52.917"><defs><path id="a" d="M-245.67 131.614h63.045v19.534h-63.045z"/></defs><g transform="translate(249.804 -91.41)"><rect y="91.409" x="-249.804" height="52.917" width="52.917" style="fill:#222;fill-opacity:1;fill-rule:nonzero;stroke:none;stroke-width:.5;stroke-linecap:butt;stroke-linejoin:round;stroke-miterlimit:4;stroke-dasharray:none;stroke-dashoffset:0;stroke-opacity:.909449;paint-order:normal" rx="3.969" ry="3.969"/><rect style="fill:#ff4900;fill-opacity:1;fill-rule:nonzero;stroke:none;stroke-width:.5;stroke-linecap:butt;stroke-linejoin:round;stroke-miterlimit:4;stroke-dasharray:none;stroke-dashoffset:0;stroke-opacity:.909449;paint-order:normal" width="47.625" height="47.625" x="-247.159" y="94.055" rx="2.646" ry="2.646"/><path d="M-248.35 128.451v8.335a5.544 5.544 0 0 0 5.557 5.556h38.894a5.544 5.544 0 0 0 5.556-5.556v-8.335z" style="fill:#222;fill-opacity:1;fill-rule:nonzero;stroke:none;stroke-width:.5;stroke-linecap:butt;stroke-linejoin:round;stroke-miterlimit:4;stroke-dasharray:none;stroke-dashoffset:0;stroke-opacity:.909449;paint-order:normal"/><g style="clip-rule:evenodd;fill-rule:evenodd;stroke-linejoin:round;stroke-miterlimit:2"><path d="M10 372.5h405a9.996 9.996 0 0 0 7.071-2.929l65-65c1.912-1.913 2.904-4.47 2.905-7.071H490v-245c0-5.522-4.477-10-10-10H10c-5.523 0-10 4.478-10 10v310c0 5.522 4.477 10 10 10zm415-34.143V307.5h30.858zM20 62.5h450v225h-55c-5.523 0-10 4.478-10 10v55H20Z" style="fill:#222;fill-rule:nonzero" transform="matrix(.07182 0 0 .07182 -240.94 94.692)"/><path d="M350 92.5H250c-5.523 0-10 4.478-10 10v15h-25c-5.523 0-10 4.478-10 10v75h-80v-35h55c5.523 0 10-4.478 10-10v-60c0-5.522-4.477-10-10-10H60c-5.523 0-10 4.478-10 10v60c0 5.522 4.477 10 10 10h45v45c0 5.522 4.477 10 10 10h90v70c0 5.522 4.477 10 10 10h25v10c0 5.522 4.477 10 10 10h100c5.523 0 10-4.478 10-10v-50c0-5.522-4.477-10-10-10H250c-5.523 0-10 4.478-10 10v20h-15v-60h15v10c0 5.522 4.477 10 10 10h100c5.523 0 10-4.478 10-10v-50c0-5.522-4.477-10-10-10H250c-5.523 0-10 4.478-10 10v20h-15v-65h15v15c0 5.522 4.477 10 10 10h100c5.523 0 10-4.478 10-10v-50c0-5.522-4.477-10-10-10zm-280 55v-40h100v40zm190 125h80v30h-80zm0-80h80v30h-80zm80-50h-80v-30h80z" style="fill:#222;fill-rule:nonzero" transform="matrix(.07182 0 0 .07182 -240.94 94.692)"/><path style="fill:#222" d="M50 247.5h75v20H50zM50 277.5h75v20H50zM50 307.5h130v20H50zM135 247.5h20v20h-20zM380 92.5h25v20h-25zM420 92.5h25v20h-25zM380 122.5h25v20h-25zM420 122.5h25v20h-25zM380 152.5h25v20h-25zM420 152.5h25v20h-25zM380 182.5h25v20h-25zM420 182.5h25v20h-25z" transform="matrix(.07182 0 0 .07182 -240.94 94.692)"/><path d="m483.162 408.013-60-20a9.983 9.983 0 0 0-3.162-.498v-.015H10c-5.523 0-10 4.478-10 10v40c0 5.522 4.477 10 10 10h410.001a9.995 9.995 0 0 0 3.161-.513l60-20a10.001 10.001 0 0 0 0-18.974zM60 427.5H20v-20h40zm350 0H80v-20h330zm20-3.874v-12.252l18.377 6.126z" style="fill:#222;fill-rule:nonzero" transform="matrix(.07182 0 0 .07182 -240.94 94.692)"/></g><g aria-label="PLANNING" transform="translate(-1.595 -1.035)" style="font-style:normal;font-weight:400;font-size:8.46667px;line-height:1.25;font-family:sans-serif;white-space:pre;shape-inside:url(#a);fill:#eee;fill-opacity:1;stroke:none"><path d="M-242.402 133.468q.788 0 1.363.263.585.262.898.745.313.482.313 1.143 0 .652-.313 1.143-.313.482-.898.745-.575.254-1.363.254h-1.194v1.634h-1.371v-5.927zm-.076 3.175q.618 0 .94-.262.322-.271.322-.762 0-.5-.322-.762-.322-.271-.94-.271h-1.118v2.057zM-238.854 133.468h1.371v4.81h2.972v1.117h-4.343zM-229.786 138.125h-2.752l-.525 1.27h-1.406l2.642-5.927h1.355l2.65 5.927h-1.44zm-.432-1.041-.94-2.27-.94 2.27zM-221.769 133.468v5.927h-1.126l-2.954-3.598v3.598h-1.355v-5.927h1.134l2.947 3.599v-3.599zM-214.928 133.468v5.927h-1.126l-2.954-3.598v3.598h-1.355v-5.927h1.134l2.947 3.599v-3.599zM-213.522 133.468h1.372v5.927h-1.372zM-205.31 133.468v5.927h-1.125l-2.955-3.598v3.598h-1.355v-5.927h1.135l2.946 3.599v-3.599zM-199.9 136.338h1.254v2.405q-.483.364-1.118.559-.635.195-1.278.195-.923 0-1.66-.39-.736-.398-1.16-1.092-.414-.703-.414-1.583t.414-1.575q.424-.703 1.169-1.092.745-.398 1.676-.398.78 0 1.414.262.635.263 1.067.762l-.88.813q-.636-.669-1.533-.669-.567 0-1.008.237-.44.237-.685.669-.246.432-.246.99 0 .55.246.983.245.432.677.677.44.237.999.237.593 0 1.067-.254z" style="font-style:normal;font-variant:normal;font-weight:700;font-stretch:normal;font-size:8.46667px;font-family:Montserrat;-inkscape-font-specification:'Montserrat Bold';fill:#eee;fill-opacity:1"/></g></g></svg>