<svg xmlns="http://www.w3.org/2000/svg" width="200" height="200" viewBox="0 0 52.917 52.917"><defs><path id="a" d="M-130.602 134.993h68.568v20.58h-68.568z"/></defs><g transform="translate(98.049 -95.143)"><rect y="95.143" x="-98.049" height="52.917" width="52.917" style="fill:#222;fill-opacity:1;fill-rule:nonzero;stroke:none;stroke-width:.5;stroke-linecap:butt;stroke-linejoin:round;stroke-miterlimit:4;stroke-dasharray:none;stroke-dashoffset:0;stroke-opacity:.909449;paint-order:normal" rx="3.969" ry="3.969"/><rect style="fill:#ff42ff;fill-opacity:1;fill-rule:nonzero;stroke:none;stroke-width:.5;stroke-linecap:butt;stroke-linejoin:round;stroke-miterlimit:4;stroke-dasharray:none;stroke-dashoffset:0;stroke-opacity:.909449;paint-order:normal" width="47.625" height="47.625" x="-95.403" y="97.789" rx="2.646" ry="2.646"/><path style="fill:#222;fill-opacity:1;fill-rule:nonzero;stroke:none;stroke-width:.5;stroke-linecap:butt;stroke-linejoin:round;stroke-miterlimit:4;stroke-dasharray:none;stroke-dashoffset:0;stroke-opacity:.909449;paint-order:normal" d="M-96.594 132.185v8.335a5.544 5.544 0 0 0 5.557 5.556h38.893a5.544 5.544 0 0 0 5.557-5.556v-8.335z"/><g aria-label="PROGRESSIVE" transform="translate(35.145 .523)" style="font-style:normal;font-weight:400;font-size:6.35px;line-height:1.25;font-family:sans-serif;white-space:pre;shape-inside:url(#a);fill:#eee;fill-opacity:1;stroke:none"><path d="M-128.15 136.385q.59 0 1.022.197.438.197.673.559.235.362.235.857 0 .49-.235.858-.235.361-.673.558-.432.19-1.022.19h-.896v1.226h-1.029v-4.445zm-.058 2.382q.464 0 .705-.197.242-.203.242-.572 0-.374-.242-.571-.241-.203-.705-.203h-.838v1.543zM-122.658 140.83l-.857-1.238H-124.461v1.238h-1.029v-4.445h1.924q.59 0 1.023.197.438.197.673.559.235.362.235.857 0 .496-.242.858-.235.355-.673.546l.997 1.428zm-.019-2.832q0-.374-.241-.571-.241-.203-.705-.203h-.838v1.549h.838q.464 0 .705-.203.241-.203.241-.572zM-118.67 140.907q-.692 0-1.25-.299-.553-.298-.87-.819-.312-.527-.312-1.181t.311-1.175q.318-.527.87-.825.559-.299 1.251-.299.692 0 1.245.299.552.298.87.825.317.52.317 1.175 0 .654-.317 1.181-.318.52-.87.82-.553.298-1.245.298zm0-.877q.394 0 .711-.178.318-.184.496-.508.184-.323.184-.736t-.184-.737q-.178-.324-.496-.501-.317-.185-.71-.185-.395 0-.712.185-.318.177-.502.501-.178.324-.178.737t.178.736q.184.324.502.508.317.178.711.178zM-112.46 138.538h.94v1.803q-.362.273-.838.42-.476.146-.959.146-.692 0-1.244-.293-.553-.298-.87-.819-.312-.527-.312-1.187t.312-1.181q.317-.527.876-.82.559-.298 1.257-.298.584 0 1.06.197.477.197.8.572l-.66.61q-.476-.503-1.149-.503-.425 0-.756.178-.33.178-.514.502t-.184.743q0 .413.184.736.184.324.508.508.33.178.75.178.444 0 .8-.19zM-107.735 140.83l-.857-1.238H-109.54v1.238h-1.028v-4.445h1.924q.59 0 1.022.197.438.197.673.559.235.362.235.857 0 .496-.241.858-.235.355-.673.546l.997 1.428zm-.02-2.832q0-.374-.24-.571-.242-.203-.705-.203h-.839v1.549h.839q.463 0 .704-.203.242-.203.242-.572zM-102.458 140.005v.825h-3.442v-4.445h3.36v.826h-2.338v.965h2.064v.8h-2.064v1.029zM-100.179 140.907q-.527 0-1.022-.14-.49-.146-.788-.375l.35-.774q.285.21.68.336.393.127.787.127.438 0 .647-.127.21-.133.21-.35 0-.158-.127-.26-.12-.107-.318-.171-.19-.063-.52-.14-.508-.12-.832-.241-.324-.12-.559-.387-.229-.267-.229-.712 0-.387.21-.698.21-.318.629-.502.425-.184 1.035-.184.425 0 .832.102.406.101.71.292l-.317.78q-.616-.348-1.232-.348-.431 0-.641.14-.203.14-.203.368 0 .228.235.343.241.108.73.215.508.121.832.242.324.12.552.38.235.261.235.706 0 .38-.216.698-.21.311-.635.495-.425.185-1.035.185zM-96.127 140.907q-.528 0-1.023-.14-.489-.146-.787-.375l.349-.774q.286.21.68.336.393.127.787.127.438 0 .648-.127.21-.133.21-.35 0-.158-.128-.26-.12-.107-.317-.171-.19-.063-.521-.14-.508-.12-.832-.241-.324-.12-.559-.387-.228-.267-.228-.712 0-.387.21-.698.209-.318.628-.502.425-.184 1.035-.184.425 0 .832.102.406.101.711.292l-.318.78q-.615-.348-1.231-.348-.432 0-.642.14-.203.14-.203.368 0 .228.235.343.241.108.73.215.508.121.832.242.324.12.553.38.234.261.234.706 0 .38-.215.698-.21.311-.635.495-.426.185-1.035.185zM-93.537 136.385h1.029v4.445h-1.029zM-87.206 136.385l-1.924 4.445h-1.016l-1.917-4.445h1.11l1.353 3.175 1.372-3.175zM-83.396 140.005v.825h-3.441v-4.445h3.359v.826h-2.337v.965h2.064v.8h-2.064v1.029z" style="font-style:normal;font-variant:normal;font-weight:700;font-stretch:normal;font-size:6.35px;font-family:Montserrat;-inkscape-font-specification:'Montserrat Bold';fill:#eee;fill-opacity:1"/></g><path d="M-85.862 99.907v6.343h2.536v-1.903l1.903 1.903-1.903 1.903 1.905 1.9 1.901-1.9.636.626a9.24 9.24 0 0 0-2.013 5.76c-.002 4.647 3.413 8.516 7.883 9.201l-.004 3.284h-3.648v2.855h3.648v3.33h2.855v-3.33h3.648v-2.855h-3.648V123.735c4.453-.69 7.88-4.554 7.88-9.195 0-2.169-.748-4.17-2.002-5.757l4.43-4.436v4.123h2.536v-8.563h-8.563v2.537h4.124l-4.484 4.486a9.25 9.25 0 0 0-5.348-1.699 9.23 9.23 0 0 0-5.345 1.699l-.682-.68 1.903-1.903-1.903-1.903-1.903 1.903-1.903-1.903h1.903v-2.537zm15.31 8.017a6.66 6.66 0 0 1 4.791 9.8zm-2.235.027-4.62 9.795c.018.075-.02-.072 0 0-1.133-1.874-1.156-3.98-.257-5.977a6.66 6.66 0 0 1 4.877-3.818zm1.126 1.807 2.118 4.542h-4.237zm-2.95 6.325h5.9l1.489 3.195c-2.702 2.198-6.46 2.144-8.878-.001z" style="fill:#222;fill-opacity:1;stroke-width:.264583"/></g></svg>