<svg xmlns="http://www.w3.org/2000/svg" width="200" height="200" viewBox="0 0 52.917 52.917"><defs><path id="a" d="M-246.629 131.758h70.776v28.972h-70.776z"/></defs><g transform="translate(249.804 -91.41)"><rect y="91.409" x="-249.804" height="52.917" width="52.917" style="fill:#222;fill-opacity:1;fill-rule:nonzero;stroke:none;stroke-width:.5;stroke-linecap:butt;stroke-linejoin:round;stroke-miterlimit:4;stroke-dasharray:none;stroke-dashoffset:0;stroke-opacity:.909449;paint-order:normal" rx="3.969" ry="3.969"/><rect style="fill:red;fill-opacity:1;fill-rule:nonzero;stroke:none;stroke-width:.5;stroke-linecap:butt;stroke-linejoin:round;stroke-miterlimit:4;stroke-dasharray:none;stroke-dashoffset:0;stroke-opacity:.909449;paint-order:normal" width="47.625" height="47.625" x="-247.159" y="94.055" rx="2.646" ry="2.646"/><path d="M-248.35 128.451v8.335a5.544 5.544 0 0 0 5.557 5.556h38.894a5.544 5.544 0 0 0 5.556-5.556v-8.335z" style="fill:#222;fill-opacity:1;fill-rule:nonzero;stroke:none;stroke-width:.5;stroke-linecap:butt;stroke-linejoin:round;stroke-miterlimit:4;stroke-dasharray:none;stroke-dashoffset:0;stroke-opacity:.909449;paint-order:normal"/><path d="M-223.346 99.726c-8.748 0-15.906 7.158-15.906 15.906 0 8.749 7.158 15.907 15.906 15.907 8.748 0 15.906-7.158 15.906-15.907 0-8.748-7.158-15.906-15.906-15.906zm2.119 3.57a12.462 12.462 0 0 1 10.394 12.336c0 2.311-.617 4.469-1.695 6.32zm-4.242.001-8.697 18.651a12.513 12.513 0 0 1-1.693-6.316 12.463 12.463 0 0 1 10.39-12.335zm2.12 3.48 4.031 8.643h-8.06zm-5.612 12.036h11.225l2.834 6.078a12.476 12.476 0 0 1-8.444 3.254c-3.266 0-6.227-1.23-8.448-3.257z" style="fill:#222;fill-opacity:1"/><g aria-label="RADICAL" transform="matrix(.91367 0 0 .91367 -21.307 9.51)" style="font-style:normal;font-weight:400;font-size:10.5833px;line-height:1.25;font-family:sans-serif;white-space:pre;shape-inside:url(#a);fill:#eee;fill-opacity:1;stroke:none;stroke-width:1.09448"><path d="m-241.03 141.485-1.43-2.064h-1.576v2.064h-1.715v-7.408h3.207q.984 0 1.704.328.73.328 1.122.931.392.603.392 1.429 0 .825-.403 1.428-.391.593-1.121.91l1.661 2.382zm-.032-4.72q0-.625-.402-.953-.402-.338-1.175-.338h-1.397v2.582h1.397q.773 0 1.175-.339.402-.338.402-.952zM-233.093 139.897h-3.44l-.656 1.588h-1.756l3.302-7.408h1.693l3.312 7.408h-1.799zm-.54-1.301-1.174-2.837-1.175 2.837zM-229.865 134.077h3.366q1.206 0 2.127.465.931.455 1.44 1.291.518.836.518 1.948 0 1.11-.519 1.947-.508.836-1.44 1.302-.92.455-2.126.455h-3.366zm3.28 6q1.112 0 1.768-.614.667-.624.667-1.682 0-1.059-.667-1.672-.656-.625-1.767-.625h-1.566v4.593zM-221.123 134.077h1.714v7.408h-1.714zM-214.106 141.612q-1.133 0-2.054-.487-.91-.497-1.439-1.365-.519-.879-.519-1.98 0-1.1.519-1.968.53-.878 1.44-1.365.92-.497 2.063-.497.963 0 1.736.338.783.339 1.312.974l-1.1 1.016q-.752-.868-1.863-.868-.688 0-1.228.307-.54.296-.847.836-.296.54-.296 1.228t.296 1.227q.307.54.847.847.54.296 1.228.296 1.111 0 1.862-.878l1.101 1.016q-.53.646-1.312.984-.783.339-1.746.339zM-205.164 139.897h-3.44l-.655 1.588h-1.757l3.302-7.408h1.693l3.313 7.408h-1.8zm-.54-1.301-1.174-2.837-1.175 2.837zM-201.936 134.077h1.715v6.01h3.715v1.398h-5.43z" style="font-style:normal;font-variant:normal;font-weight:700;font-stretch:normal;font-family:Montserrat;-inkscape-font-specification:'Montserrat Bold';fill:#eee;fill-opacity:1;stroke-width:1.19789"/></g></g></svg>