<svg xmlns="http://www.w3.org/2000/svg" width="200" height="200" viewBox="0 0 52.917 52.917"><defs><path id="a" d="M-230.622 74.079h66.014V90.88h-66.014z"/></defs><g transform="translate(249.804 -91.41)"><rect y="91.409" x="-249.804" height="52.917" width="52.917" style="fill:#222;fill-opacity:1;fill-rule:nonzero;stroke:none;stroke-width:.5;stroke-linecap:butt;stroke-linejoin:round;stroke-miterlimit:4;stroke-dasharray:none;stroke-dashoffset:0;stroke-opacity:.909449;paint-order:normal" rx="3.969" ry="3.969"/><rect style="fill:#ffafe4;fill-opacity:1;fill-rule:nonzero;stroke:none;stroke-width:.5;stroke-linecap:butt;stroke-linejoin:round;stroke-miterlimit:4;stroke-dasharray:none;stroke-dashoffset:0;stroke-opacity:.909449;paint-order:normal" width="47.625" height="47.625" x="-247.159" y="94.055" rx="2.646" ry="2.646"/><path d="M-248.35 128.451v8.335a5.544 5.544 0 0 0 5.557 5.556h38.894a5.544 5.544 0 0 0 5.556-5.556v-8.335z" style="fill:#222;fill-opacity:1;fill-rule:nonzero;stroke:none;stroke-width:.5;stroke-linecap:butt;stroke-linejoin:round;stroke-miterlimit:4;stroke-dasharray:none;stroke-dashoffset:0;stroke-opacity:.909449;paint-order:normal"/><g style="fill:#222;fill-opacity:1"><path style="fill:#222;fill-opacity:1" d="m-82.842 86.408-12.605.395h-10.934l-4.135 20 25.717.295zm-6.832 6.295-.857 8.197-12.248.1 1.582-8.1zM-101.355 61.803l-3.16 18h22l.581-11.225 5.807-3.043-4.61-3.732zm4.074 5h1.703l-.996 2.595 5.039 4.735 4.055-2.07-.249 2.74h-10.787zm4.648 0 5.201.1-3.273 1.884zM-66.74 63.802l-7.046 16.221 17.308-4.473z" transform="matrix(.26458 0 0 .26458 -205.77 95.959)"/><path style="fill:#222;fill-opacity:1" d="m-52.144 44.771-59.781.531-18.59 79.5H-5.38l-18.578-73.324-4.848 3.846 15.014 62.478h-108.723l15.531-65.5 49.649-.535 6.668-5.96z" transform="matrix(.26458 0 0 .26458 -205.77 95.959)"/><path style="fill:#222;fill-opacity:1" d="m-22.015 23.875-42.687 37.328 11.127 12.699 43.06-37.06zM-9.54 17.8c-3.29-.148-7.154 1.252-10.403 4.774l11.051 12.615C2.145 25.952-2.304 18.127-9.54 17.8z" transform="matrix(.26458 0 0 .26458 -205.77 95.959)"/></g><g aria-label="REFORM" transform="translate(-16.916 55.293)" style="font-style:normal;font-weight:400;font-size:10.5833px;line-height:1.25;font-family:sans-serif;white-space:pre;shape-inside:url(#a);fill:#eee;fill-opacity:1;stroke:none"><path d="m-225.024 83.807-1.43-2.064h-1.576v2.064h-1.715V76.4h3.207q.984 0 1.704.328.73.328 1.122.931.391.603.391 1.429 0 .825-.402 1.429-.391.592-1.122.91l1.662 2.381zm-.032-4.72q0-.624-.402-.953-.403-.338-1.175-.338h-1.397v2.582h1.397q.772 0 1.175-.339.402-.338.402-.952zM-216.23 82.431v1.376h-5.736V76.4h5.599v1.376h-3.895v1.608h3.44v1.334h-3.44v1.714zM-213.15 77.775v1.958h3.429v1.375h-3.429v2.7h-1.715v-7.41h5.599v1.377zM-204.588 83.934q-1.154 0-2.085-.497-.92-.498-1.45-1.366-.519-.878-.519-1.968 0-1.09.519-1.958.53-.878 1.45-1.376.931-.497 2.085-.497 1.153 0 2.074.497.92.498 1.45 1.376.53.868.53 1.958 0 1.09-.53 1.968-.53.868-1.45 1.366-.92.497-2.074.497zm0-1.46q.656 0 1.185-.297.53-.307.826-.846.307-.54.307-1.228t-.307-1.228q-.297-.54-.826-.836-.529-.307-1.185-.307t-1.185.307q-.53.297-.837.836-.296.54-.296 1.228t.296 1.228q.307.54.837.846.529.297 1.185.297zM-194.523 83.807l-1.43-2.064h-1.576v2.064h-1.715V76.4h3.207q.984 0 1.704.328.73.328 1.122.931.391.603.391 1.429 0 .825-.402 1.429-.391.592-1.122.91l1.662 2.381zm-.032-4.72q0-.624-.402-.953-.403-.338-1.175-.338h-1.397v2.582h1.397q.772 0 1.175-.339.402-.338.402-.952zM-184.723 83.807l-.01-4.445-2.181 3.662h-.773l-2.17-3.567v4.35h-1.608V76.4h1.418l2.773 4.604 2.73-4.604h1.408l.021 7.408z" style="font-style:normal;font-variant:normal;font-weight:700;font-stretch:normal;font-family:Montserrat;-inkscape-font-specification:'Montserrat Bold';fill:#eee;fill-opacity:1"/></g></g></svg>