<svg xmlns="http://www.w3.org/2000/svg" width="200" height="200" viewBox="0 0 52.917 52.917"><defs><path id="a" d="M-247.026 132.023h85.196v26.723h-85.196z"/></defs><g transform="translate(249.804 -91.41)"><rect y="91.409" x="-249.804" height="52.917" width="52.917" style="fill:#222;fill-opacity:1;fill-rule:nonzero;stroke:none;stroke-width:.5;stroke-linecap:butt;stroke-linejoin:round;stroke-miterlimit:4;stroke-dasharray:none;stroke-dashoffset:0;stroke-opacity:.909449;paint-order:normal" rx="3.969" ry="3.969"/><rect style="fill:#890000;fill-opacity:1;fill-rule:nonzero;stroke:none;stroke-width:.5;stroke-linecap:butt;stroke-linejoin:round;stroke-miterlimit:4;stroke-dasharray:none;stroke-dashoffset:0;stroke-opacity:.909449;paint-order:normal" width="47.625" height="47.625" x="-247.159" y="94.055" rx="2.646" ry="2.646"/><path d="M-248.35 128.451v8.335a5.544 5.544 0 0 0 5.557 5.556h38.894a5.544 5.544 0 0 0 5.556-5.556v-8.335z" style="fill:#222;fill-opacity:1;fill-rule:nonzero;stroke:none;stroke-width:.5;stroke-linecap:butt;stroke-linejoin:round;stroke-miterlimit:4;stroke-dasharray:none;stroke-dashoffset:0;stroke-opacity:.909449;paint-order:normal"/><g style="visibility:visible;fill:#222;fill-opacity:1;stroke:none;stroke-width:204.737;stroke-opacity:1" transform="matrix(.0013 0 0 .0013 -237.06 96.215)"><g style="fill:#222;fill-opacity:1;stroke:none;stroke-width:204.737;stroke-opacity:1"><g style="fill:#222;fill-opacity:1;stroke:none;stroke-width:204.737;stroke-opacity:1"><path d="M8639 426 6546 3840l2873 1321 1899-3052Z" style="fill:#222;fill-opacity:1;stroke:none;stroke-width:204.737;stroke-opacity:1"/><g style="fill:#222;fill-opacity:1;stroke:none;stroke-width:204.737;stroke-opacity:1"><path d="M8682 453 6589 3867l-43-27-43-27L8596 399l43 27z" style="fill:#222;fill-opacity:1;stroke:none;stroke-width:204.737;stroke-opacity:1"/><path d="m6546 3840-21 46-8-4-7-6-6-7-4-7-3-9-2-8v-9l2-9 3-8 3-6zM6567 3794l2873 1321-21 46-21 46-2873-1321 21-46zM9419 5161l43 27-5 7-7 6-7 5-8 3-9 2-9 1-9-1-8-3-2-1z" style="fill:#222;fill-opacity:1;stroke:none;stroke-width:204.737;stroke-opacity:1"/><path d="m9376 5134 1899-3052 43 27 43 27-1899 3052-43-27z" style="fill:#222;fill-opacity:1;stroke:none;stroke-width:204.737;stroke-opacity:1"/><path d="m11318 2109 27-43 7 5 6 7 5 7 4 8 2 9v9l-1 9-3 8-4 8z" style="fill:#222;fill-opacity:1;stroke:none;stroke-width:204.737;stroke-opacity:1"/><path d="M11291 2152 8612 469l27-43 27-43 2679 1683-27 43z" style="fill:#222;fill-opacity:1;stroke:none;stroke-width:204.737;stroke-opacity:1"/><path d="m8639 426-43-27 5-7 6-6 8-5 8-3 8-2 9-1 9 1 9 3 8 4z" style="fill:#222;fill-opacity:1;stroke:none;stroke-width:204.737;stroke-opacity:1"/></g></g></g><g style="fill:#222;fill-opacity:1;stroke:none;stroke-width:204.737;stroke-opacity:1"><g style="fill:#222;fill-opacity:1;stroke:none;stroke-width:204.737;stroke-opacity:1"><path d="m12291 2748-1800 2958 2191 1093-148 1184 2484-3779z" style="fill:#222;fill-opacity:1;stroke:none;stroke-width:204.737;stroke-opacity:1"/><g style="fill:#222;fill-opacity:1;stroke:none;stroke-width:204.737;stroke-opacity:1"><path d="m12335 2775-1800 2958-44-27-44-27 1800-2958 44 27z" style="fill:#222;fill-opacity:1;stroke:none;stroke-width:204.737;stroke-opacity:1"/><path d="m10491 5706-23 46-7-5-7-6-6-7-4-8-3-8-1-9v-9l2-8 3-9 2-4z" style="fill:#222;fill-opacity:1;stroke:none;stroke-width:204.737;stroke-opacity:1"/><path d="m10514 5660 2191 1093-23 46-23 46-2191-1093 23-46z" style="fill:#222;fill-opacity:1;stroke:none;stroke-width:204.737;stroke-opacity:1"/><path d="m12682 6799 23-46 7 5 7 6 6 7 4 8 3 8 1 9v9z" style="fill:#222;fill-opacity:1;stroke:none;stroke-width:204.737;stroke-opacity:1"/><path d="m12733 6805-148 1184-51-6-51-6 148-1184 51 6z" style="fill:#222;fill-opacity:1;stroke:none;stroke-width:204.737;stroke-opacity:1"/><path d="m12534 7983 43 28-6 7-7 6-7 5-8 3-9 2h-9l-9-1-8-3-8-4-7-6-6-7-5-7-3-8-2-9v-12z" style="fill:#222;fill-opacity:1;stroke:none;stroke-width:204.737;stroke-opacity:1"/><path d="m12491 7955 2484-3779 43 28 43 28-2484 3779-43-28z" style="fill:#222;fill-opacity:1;stroke:none;stroke-width:204.737;stroke-opacity:1"/><path d="m15018 4204 24-45 7 5 7 6 5 7 4 8 3 8 1 9-1 9-2 9-3 8-2 4z" style="fill:#222;fill-opacity:1;stroke:none;stroke-width:204.737;stroke-opacity:1"/><path d="m14994 4249-2727-1456 24-45 24-45 2727 1456-24 45z" style="fill:#222;fill-opacity:1;stroke:none;stroke-width:204.737;stroke-opacity:1"/><path d="m12291 2748-44-27 6-7 6-6 8-5 8-3 8-2 9-1 9 1 9 2 5 3z" style="fill:#222;fill-opacity:1;stroke:none;stroke-width:204.737;stroke-opacity:1"/></g></g></g><g style="fill:#222;fill-opacity:1;stroke:none;stroke-width:204.737;stroke-opacity:1"><g style="fill:#222;fill-opacity:1;stroke:none;stroke-width:204.737;stroke-opacity:1"><path d="m15701 5479-3896 5462 2337 864 3847-4552h-49z" style="fill:#222;fill-opacity:1;stroke:none;stroke-width:204.737;stroke-opacity:1"/><g style="fill:#222;fill-opacity:1;stroke:none;stroke-width:204.737;stroke-opacity:1"><path d="m15743 5509-3896 5462-42-30-42-30 3896-5462 42 30z" style="fill:#222;fill-opacity:1;stroke:none;stroke-width:204.737;stroke-opacity:1"/><path d="m11805 10941-18 48-8-4-7-5-6-6-5-8-4-8-2-8-1-9 1-9 2-9 4-8 2-4z" style="fill:#222;fill-opacity:1;stroke:none;stroke-width:204.737;stroke-opacity:1"/><path d="m11823 10893 2337 864-18 48-18 48-2337-864 18-48z" style="fill:#222;fill-opacity:1;stroke:none;stroke-width:204.737;stroke-opacity:1"/><path d="m14142 11805 39 33-6 6-8 5-8 4-8 2-9 1-9-1-9-2z" style="fill:#222;fill-opacity:1;stroke:none;stroke-width:204.737;stroke-opacity:1"/><path d="m14103 11772 3847-4552 39 33 39 33-3847 4552-39-33z" style="fill:#222;fill-opacity:1;stroke:none;stroke-width:204.737;stroke-opacity:1"/><path d="M17989 7253v-51l9 1 8 2 8 4 8 5 6 6 5 7 4 9 2 8 1 9-1 9-2 8-4 8-5 8zM17989 7304h-49v-102h49v51zM17940 7253v51l-9-1-8-2-8-4-7-4z" style="fill:#222;fill-opacity:1;stroke:none;stroke-width:204.737;stroke-opacity:1"/><path d="m17908 7293-2239-1774 32-40 32-40 2239 1774-32 40z" style="fill:#222;fill-opacity:1;stroke:none;stroke-width:204.737;stroke-opacity:1"/><path d="m15701 5479-42-30 6-6 7-6 8-4 8-3 9-2h9l9 2 8 3 8 4 2 2z" style="fill:#222;fill-opacity:1;stroke:none;stroke-width:204.737;stroke-opacity:1"/></g></g></g><g style="fill:#222;fill-opacity:1;stroke:none;stroke-width:204.737;stroke-opacity:1"><g style="fill:#222;fill-opacity:1;stroke:none;stroke-width:204.737;stroke-opacity:1"><path d="m18573 8255-3603 4189 1119 1138 4139-3689z" style="fill:#222;fill-opacity:1;stroke:none;stroke-width:204.737;stroke-opacity:1"/><g style="fill:#222;fill-opacity:1;stroke:none;stroke-width:204.737;stroke-opacity:1"><path d="m18612 8288-3603 4189-39-33-39-33 3603-4189 39 33z" style="fill:#222;fill-opacity:1;stroke:none;stroke-width:204.737;stroke-opacity:1"/><path d="m14970 12444-36 36-6-7-4-8-3-8-2-9v-9l2-9 3-8 4-8 3-3zM15006 12408l1119 1138-36 36-36 36-1119-1138 36-36zM16089 13582l34 38-7 5-8 4-9 3-8 1-9-1-9-2-8-3-8-5-4-4z" style="fill:#222;fill-opacity:1;stroke:none;stroke-width:204.737;stroke-opacity:1"/><path d="m16055 13544 4139-3689 34 38 34 38-4139 3689-34-38z" style="fill:#222;fill-opacity:1;stroke:none;stroke-width:204.737;stroke-opacity:1"/><path d="m20228 9893 36-36 6 7 4 7 3 9 2 8v9l-2 9-3 8-4 8-6 7-2 2z" style="fill:#222;fill-opacity:1;stroke:none;stroke-width:204.737;stroke-opacity:1"/><path d="m20192 9929-1655-1638 36-36 36-36 1655 1638-36 36z" style="fill:#222;fill-opacity:1;stroke:none;stroke-width:204.737;stroke-opacity:1"/><path d="m18573 8255-39-33 7-6 7-5 8-4 9-2 9-1 8 1 9 2 8 4 7 5 3 3z" style="fill:#222;fill-opacity:1;stroke:none;stroke-width:204.737;stroke-opacity:1"/></g></g></g><g style="fill:#222;fill-opacity:1;stroke:none;stroke-width:204.737;stroke-opacity:1"><g style="fill:#222;fill-opacity:1;stroke:none;stroke-width:204.737;stroke-opacity:1"><path d="M5377 4568 995 11077l6720 7693-1267 7375 9884-91-438-6692 2290-2913 584-3916-2629 2186-2192-1957-3992-957 3896 6101 876 637-1412 45-438 1594-586-1594-1460 229 1606-1411-3798-5873-2970-1001 1072-957-293-1592h633l974 1365 2191-91 1169-637 146-1458z" style="fill:#222;fill-opacity:1;stroke:none;stroke-width:204.737;stroke-opacity:1"/><g style="fill:#222;fill-opacity:1;stroke:none;stroke-width:204.737;stroke-opacity:1"><path d="m5419 4596-4382 6509-42-28-42-28 4382-6509 42 28z" style="fill:#222;fill-opacity:1;stroke:none;stroke-width:204.737;stroke-opacity:1"/><path d="m995 11077-38 34-6-8-4-8-2-8-1-9 1-9 2-8 3-9 3-3zM1033 11043l6720 7693-38 34-38 34-6720-7693 38-34zM7715 18770l38-34 6 8 4 8 2 8 1 9-1 9v1z" style="fill:#222;fill-opacity:1;stroke:none;stroke-width:204.737;stroke-opacity:1"/><path d="m7765 18779-1267 7375-50-9-50-9 1267-7375 50 9z" style="fill:#222;fill-opacity:1;stroke:none;stroke-width:204.737;stroke-opacity:1"/><path d="M6448 26145v51l-8-1-9-2-8-4-7-5-7-6-5-7-4-8-2-9-1-9 1-8v-1zM6448 26094l9884-91v102l-9884 91v-51zM16332 26054l51-3v9l-2 8-3 9-5 7-6 7-7 5-7 5-9 3-9 1h-3z" style="fill:#222;fill-opacity:1;stroke:none;stroke-width:204.737;stroke-opacity:1"/><path d="m16281 26057-438-6692 51-3 51-3 438 6692-51 3z" style="fill:#222;fill-opacity:1;stroke:none;stroke-width:204.737;stroke-opacity:1"/><path d="m15894 19362-51 3v-9l2-8 3-9 5-7 1-2z" style="fill:#222;fill-opacity:1;stroke:none;stroke-width:204.737;stroke-opacity:1"/><path d="m15854 19330 2290-2913 40 32 40 32-2290 2913-40-32z" style="fill:#222;fill-opacity:1;stroke:none;stroke-width:204.737;stroke-opacity:1"/><path d="m18184 16449 50 8-2 8-3 8-5 8z" style="fill:#222;fill-opacity:1;stroke:none;stroke-width:204.737;stroke-opacity:1"/><path d="m18134 16441 584-3916 50 8 50 8-584 3916-50-8z" style="fill:#222;fill-opacity:1;stroke:none;stroke-width:204.737;stroke-opacity:1"/><path d="m18768 12533-33-39 8-5 8-4 8-2 9-1 9 1 9 2 8 4 7 5 6 6 5 8 4 8 2 8 1 9-1 8z" style="fill:#222;fill-opacity:1;stroke:none;stroke-width:204.737;stroke-opacity:1"/><path d="m18801 12572-2629 2186-33-39-33-39 2629-2186 33 39z" style="fill:#222;fill-opacity:1;stroke:none;stroke-width:204.737;stroke-opacity:1"/><path d="m16139 14719 33 39-8 5-8 4-8 2-9 1-9-1-9-2-8-4-7-5-1-1z" style="fill:#222;fill-opacity:1;stroke:none;stroke-width:204.737;stroke-opacity:1"/><path d="m16105 14757-2192-1957 34-38 34-38 2192 1957-34 38z" style="fill:#222;fill-opacity:1;stroke:none;stroke-width:204.737;stroke-opacity:1"/><path d="m13947 12762 12-50 8 3 8 4 6 5z" style="fill:#222;fill-opacity:1;stroke:none;stroke-width:204.737;stroke-opacity:1"/><path d="m13935 12812-3992-957 12-50 12-50 3992 957-12 50z" style="fill:#222;fill-opacity:1;stroke:none;stroke-width:204.737;stroke-opacity:1"/><path d="m9955 11805-43 27-4-7-3-9-1-9v-9l2-8 4-9 5-7 6-7 7-5 7-4 9-3 9-1h9l5 1z" style="fill:#222;fill-opacity:1;stroke:none;stroke-width:204.737;stroke-opacity:1"/><path d="m9998 11778 3896 6101-43 27-43 27-3896-6101 43-27z" style="fill:#222;fill-opacity:1;stroke:none;stroke-width:204.737;stroke-opacity:1"/><path d="m13851 17906-30 41-7-6-5-6-1-2z" style="fill:#222;fill-opacity:1;stroke:none;stroke-width:204.737;stroke-opacity:1"/><path d="m13881 17865 876 637-30 41-30 41-876-637 30-41z" style="fill:#222;fill-opacity:1;stroke:none;stroke-width:204.737;stroke-opacity:1"/><path d="m14727 18543 30-41 7 6 5 6 5 8 2 9 2 8v9l-2 9-3 8-5 8-6 7-6 5-8 5-9 2-8 2h-2z" style="fill:#222;fill-opacity:1;stroke:none;stroke-width:204.737;stroke-opacity:1"/><path d="m14729 18594-1412 45-2-51-2-51 1412-45 2 51z" style="fill:#222;fill-opacity:1;stroke:none;stroke-width:204.737;stroke-opacity:1"/><path d="m13315 18588-49-14 3-8 4-8 6-6 7-6 8-4 8-3 9-2h2z" style="fill:#222;fill-opacity:1;stroke:none;stroke-width:204.737;stroke-opacity:1"/><path d="m13364 18602-438 1594-49-14-49-14 438-1594 49 14z" style="fill:#222;fill-opacity:1;stroke:none;stroke-width:204.737;stroke-opacity:1"/><path d="m12877 20182 49 14-3 8-4 8-6 6-7 6-8 4-8 3-9 2h-9l-9-2-8-3-8-4-6-6-6-7-4-8-2-3z" style="fill:#222;fill-opacity:1;stroke:none;stroke-width:204.737;stroke-opacity:1"/><path d="m12829 20200-586-1594 48-18 48-18 586 1594-48 18z" style="fill:#222;fill-opacity:1;stroke:none;stroke-width:204.737;stroke-opacity:1"/><path d="m12291 18588-8-50 9-1 9 1 8 2 8 4 8 6 6 6 5 7 3 7z" style="fill:#222;fill-opacity:1;stroke:none;stroke-width:204.737;stroke-opacity:1"/><path d="m12299 18638-1460 229-8-50-8-50 1460-229 8 50z" style="fill:#222;fill-opacity:1;stroke:none;stroke-width:204.737;stroke-opacity:1"/><path d="m10831 18817 8 50-9 1-9-1-8-2-8-4-8-6-6-6-5-7-3-8-2-9-1-9 1-9 2-8 4-8 6-8 4-4z" style="fill:#222;fill-opacity:1;stroke:none;stroke-width:204.737;stroke-opacity:1"/><path d="m10797 18779 1606-1411 34 38 34 38-1606 1411-34-38z" style="fill:#222;fill-opacity:1;stroke:none;stroke-width:204.737;stroke-opacity:1"/><path d="m12437 17406 43-28 4 8 3 9 1 8v9l-2 9-4 8-4 8-6 6-1 1z" style="fill:#222;fill-opacity:1;stroke:none;stroke-width:204.737;stroke-opacity:1"/><path d="m12394 17434-3798-5873 43-28 43-28 3798 5873-43 28z" style="fill:#222;fill-opacity:1;stroke:none;stroke-width:204.737;stroke-opacity:1"/><path d="m8639 11533 16-48 8 3 8 5 6 6 5 6z" style="fill:#222;fill-opacity:1;stroke:none;stroke-width:204.737;stroke-opacity:1"/><path d="m8623 11581-2970-1001 16-48 16-48 2970 1001-16 48z" style="fill:#222;fill-opacity:1;stroke:none;stroke-width:204.737;stroke-opacity:1"/><path d="m5669 10532-16 48-8-3-8-5-6-6-6-7-3-8-3-9-1-9 1-9 2-8 3-8 5-8 6-6z" style="fill:#222;fill-opacity:1;stroke:none;stroke-width:204.737;stroke-opacity:1"/><path d="m5635 10494 1072-957 34 38 34 38-1072 957-34-38z" style="fill:#222;fill-opacity:1;stroke:none;stroke-width:204.737;stroke-opacity:1"/><path d="m6741 9575 50-9 1 9-1 8-2 9-4 8-5 7-5 6z" style="fill:#222;fill-opacity:1;stroke:none;stroke-width:204.737;stroke-opacity:1"/><path d="m6691 9584-293-1592 50-9 50-9 293 1592-50 9z" style="fill:#222;fill-opacity:1;stroke:none;stroke-width:204.737;stroke-opacity:1"/><path d="m6448 7983-50 9-1-9 1-8 2-9 4-8 5-7 6-7 7-5 8-4 9-2 9-1zM6448 7932h633v102h-633v-51zM7081 7983v-51l9 1 8 2 8 4 8 5 6 6 3 3z" style="fill:#222;fill-opacity:1;stroke:none;stroke-width:204.737;stroke-opacity:1"/><path d="m7123 7953 974 1365-42 30-42 30-974-1365 42-30zM8055 9348l2 51h-9l-8-2-9-4-7-5-7-6-4-4z" style="fill:#222;fill-opacity:1;stroke:none;stroke-width:204.737;stroke-opacity:1"/><path d="m8053 9297 2191-91 2 51 2 51-2191 91-2-51z" style="fill:#222;fill-opacity:1;stroke:none;stroke-width:204.737;stroke-opacity:1"/><path d="m10246 9257 24 45-8 3-8 2-6 1z" style="fill:#222;fill-opacity:1;stroke:none;stroke-width:204.737;stroke-opacity:1"/><path d="m10222 9212 1169-637 24 45 24 45-1169 637-24-45z" style="fill:#222;fill-opacity:1;stroke:none;stroke-width:204.737;stroke-opacity:1"/><path d="m11415 8620 51 5-2 9-3 8-5 8-5 7-7 5-5 3z" style="fill:#222;fill-opacity:1;stroke:none;stroke-width:204.737;stroke-opacity:1"/><path d="m11364 8615 146-1458 51 5 51 5-146 1458-51-5z" style="fill:#222;fill-opacity:1;stroke:none;stroke-width:204.737;stroke-opacity:1"/><path d="m11561 7162 20-47 8 4 7 6 6 6 4 8 4 8 2 9v11z" style="fill:#222;fill-opacity:1;stroke:none;stroke-width:204.737;stroke-opacity:1"/><path d="M11541 7209 5357 4615l20-47 20-47 6184 2594-20 47z" style="fill:#222;fill-opacity:1;stroke:none;stroke-width:204.737;stroke-opacity:1"/><path d="m5377 4568-42-28 5-7 7-6 8-5 8-3 9-2h9l8 2 8 2z" style="fill:#222;fill-opacity:1;stroke:none;stroke-width:204.737;stroke-opacity:1"/></g></g></g><g style="fill:#222;fill-opacity:1;stroke:none;stroke-width:204.737;stroke-opacity:1"><g style="fill:#222;fill-opacity:1;stroke:none;stroke-width:204.737;stroke-opacity:1"><path d="m11513 9849-1120 1184-1218-501z" style="fill:#222;fill-opacity:1;stroke:none;stroke-width:204.737;stroke-opacity:1"/><g style="fill:#222;fill-opacity:1;stroke:none;stroke-width:204.737;stroke-opacity:1"><path d="m11550 9884-1120 1184-37-35-37-35 1120-1184 37 35z" style="fill:#222;fill-opacity:1;stroke:none;stroke-width:204.737;stroke-opacity:1"/><path d="m10393 11033 37 35-7 6-7 5-8 3-9 2h-9l-9-1-7-3z" style="fill:#222;fill-opacity:1;stroke:none;stroke-width:204.737;stroke-opacity:1"/><path d="m10374 11080-1218-501 19-47 19-47 1218 501-19 47z" style="fill:#222;fill-opacity:1;stroke:none;stroke-width:204.737;stroke-opacity:1"/><path d="m9175 10532-19 47-8-4-7-5-6-7-5-7-4-9-2-8v-9l1-9 3-8 4-8 5-7 7-6 7-5 9-4h1z" style="fill:#222;fill-opacity:1;stroke:none;stroke-width:204.737;stroke-opacity:1"/><path d="m9161 10483 2338-683 14 49 14 49-2338 683-14-49z" style="fill:#222;fill-opacity:1;stroke:none;stroke-width:204.737;stroke-opacity:1"/><path d="m11513 9849-14-49 8-2h9l9 1 9 3 7 5 7 5 6 7 5 7 3 9 2 8v9l-1 9-3 9-5 7-5 7z" style="fill:#222;fill-opacity:1;stroke:none;stroke-width:204.737;stroke-opacity:1"/></g></g></g></g><g aria-label="REVOLUTION" transform="matrix(.62016 0 0 .62016 -92.898 49.785)" style="font-style:normal;font-weight:400;font-size:10.5833px;line-height:1.25;font-family:sans-serif;white-space:pre;shape-inside:url(#a);fill:#eee;fill-opacity:1;stroke:none;stroke-width:1.61248"><path d="m-241.427 141.75-1.429-2.063H-244.433v2.063h-1.714v-7.408h3.207q.984 0 1.704.328.73.328 1.121.932.392.603.392 1.428 0 .826-.402 1.43-.392.592-1.122.91l1.662 2.38zm-.032-4.72q0-.624-.402-.952-.402-.339-1.175-.339h-1.397v2.582h1.397q.773 0 1.175-.338.402-.339.402-.953zM-232.632 140.375v1.375h-5.736v-7.408h5.598v1.376h-3.894v1.609h3.44v1.333h-3.44v1.715zM-224.25 134.342l-3.207 7.408h-1.693l-3.196-7.408h1.852l2.254 5.292 2.286-5.292zM-220.133 141.877q-1.154 0-2.085-.497-.92-.497-1.45-1.365-.519-.879-.519-1.969t.519-1.958q.53-.878 1.45-1.375.931-.498 2.085-.498 1.153 0 2.074.498.92.497 1.45 1.375.53.868.53 1.958 0 1.09-.53 1.969-.53.868-1.45 1.365-.92.497-2.074.497zm0-1.46q.656 0 1.185-.296.53-.307.826-.847.306-.54.306-1.228t-.306-1.227q-.297-.54-.826-.836-.53-.307-1.185-.307-.656 0-1.186.307-.529.296-.836.836-.296.54-.296 1.227 0 .688.296 1.228.307.54.836.847.53.296 1.186.296zM-214.789 134.342h1.715v6.011h3.715v1.397h-5.43zM-205.2 141.877q-1.588 0-2.477-.878-.878-.878-.878-2.508v-4.149h1.714v4.085q0 1.99 1.651 1.99.805 0 1.228-.476.423-.487.423-1.514v-4.085h1.694v4.149q0 1.63-.89 2.508-.878.878-2.465.878zM-198.744 135.74h-2.371v-1.398h6.456v1.397h-2.371v6.011h-1.714zM-193.739 134.342h1.715v7.408h-1.715zM-186.68 141.877q-1.153 0-2.084-.497-.921-.497-1.45-1.365-.519-.879-.519-1.969t.519-1.958q.529-.878 1.45-1.375.93-.498 2.084-.498t2.075.498q.92.497 1.45 1.375.529.868.529 1.958 0 1.09-.53 1.969-.528.868-1.45 1.365-.92.497-2.074.497zm0-1.46q.657 0 1.186-.296.529-.307.825-.847.307-.54.307-1.228t-.307-1.227q-.296-.54-.825-.836-.53-.307-1.186-.307-.656 0-1.185.307-.529.296-.836.836-.296.54-.296 1.227 0 .688.296 1.228.307.54.836.847.53.296 1.185.296zM-174.54 134.342v7.408h-1.408l-3.694-4.497v4.497h-1.693v-7.408h1.418l3.683 4.498v-4.498z" style="font-style:normal;font-variant:normal;font-weight:700;font-stretch:normal;font-family:Montserrat;-inkscape-font-specification:'Montserrat Bold';fill:#eee;fill-opacity:1;stroke-width:2.60008"/></g></g></svg>