<svg xmlns="http://www.w3.org/2000/svg" width="200" height="200" viewBox="0 0 52.917 52.917"><defs><path id="a" d="M-297.694 129.245h41.936v10.848h-41.936z"/></defs><g transform="translate(249.804 -91.41)"><rect ry="3.969" rx="3.969" style="fill:#222;fill-opacity:1;fill-rule:nonzero;stroke:none;stroke-width:.5;stroke-linecap:butt;stroke-linejoin:round;stroke-miterlimit:4;stroke-dasharray:none;stroke-dashoffset:0;stroke-opacity:.909449;paint-order:normal" width="52.917" height="52.917" x="-249.804" y="91.409"/><rect ry="2.646" rx="2.646" y="94.055" x="-247.159" height="47.625" width="47.625" style="fill:#6c9569;fill-opacity:1;fill-rule:nonzero;stroke:none;stroke-width:.5;stroke-linecap:butt;stroke-linejoin:round;stroke-miterlimit:4;stroke-dasharray:none;stroke-dashoffset:0;stroke-opacity:.909449;paint-order:normal"/><path d="M-248.35 128.451v8.335a5.544 5.544 0 0 0 5.557 5.556h38.894a5.544 5.544 0 0 0 5.556-5.556v-8.335z" style="fill:#222;fill-opacity:1;fill-rule:nonzero;stroke:none;stroke-width:.5;stroke-linecap:butt;stroke-linejoin:round;stroke-miterlimit:4;stroke-dasharray:none;stroke-dashoffset:0;stroke-opacity:.909449;paint-order:normal"/><g aria-label="TRADITIONALIST" style="font-style:normal;font-weight:400;font-size:5.29167px;line-height:1.25;font-family:sans-serif;fill:#eee;fill-opacity:1;stroke:none;stroke-width:.264583"><path d="M-245.463 134.243h-1.185v-.699h3.228v.699h-1.185v3.006h-.858zM-240.6 137.249l-.714-1.032h-.788v1.032h-.858v-3.705h1.604q.492 0 .852.164.365.164.56.466.196.302.196.714 0 .413-.2.715-.196.296-.562.455l.831 1.19zm-.015-2.36q0-.313-.202-.477-.2-.17-.587-.17h-.698v1.292h.698q.386 0 .587-.17.202-.169.202-.476zM-236.63 136.455h-1.72l-.329.794h-.878l1.65-3.705h.848l1.656 3.705h-.9zm-.27-.651-.588-1.418-.587 1.418zM-235.017 133.544h1.683q.603 0 1.063.233.466.228.72.646.26.418.26.973 0 .556-.26.974-.254.418-.72.651-.46.228-1.063.228h-1.683zm1.64 3q.556 0 .884-.306.334-.312.334-.842 0-.529-.334-.836-.328-.312-.883-.312h-.784v2.297zM-230.646 133.544h.857v3.705h-.857zM-228.143 134.243h-1.185v-.699h3.228v.699h-1.186v3.006h-.857zM-225.64 133.544h.857v3.705h-.857zM-222.11 137.312q-.577 0-1.043-.249-.46-.248-.725-.682-.26-.44-.26-.985 0-.545.26-.979.265-.439.725-.687.466-.25 1.042-.25.577 0 1.038.25.46.248.725.687.264.434.264.98 0 .544-.264.984-.265.434-.725.682-.46.249-1.038.249zm0-.73q.328 0 .592-.148.265-.154.413-.424.153-.27.153-.614t-.153-.613q-.148-.27-.413-.418-.264-.154-.593-.154-.328 0-.592.154-.265.148-.418.418-.148.27-.148.613 0 .344.148.614.153.27.418.424.264.148.592.148zM-216.041 133.544v3.705h-.704l-1.847-2.25v2.25h-.846v-3.705h.709l1.841 2.25v-2.25zM-212.723 136.455h-1.72l-.328.794h-.878l1.65-3.705h.847l1.657 3.705h-.9zm-.27-.651-.587-1.418-.588 1.418zM-211.11 133.544h.858v3.006h1.857v.699h-2.714zM-207.913 133.544h.857v3.705h-.857zM-204.96 137.312q-.44 0-.852-.116-.408-.122-.656-.313l.29-.645q.239.174.567.28.328.106.656.106.365 0 .54-.106.174-.11.174-.29 0-.133-.105-.218-.101-.09-.265-.143-.159-.052-.434-.116-.423-.1-.693-.201-.27-.1-.466-.323-.19-.222-.19-.593 0-.322.174-.582.175-.264.524-.418.355-.153.863-.153.354 0 .693.085.339.084.593.243l-.265.65q-.513-.29-1.027-.29-.36 0-.534.116-.17.117-.17.307t.196.286q.202.09.609.18.423.1.693.2.27.101.46.318.196.217.196.588 0 .317-.18.582-.174.26-.529.413-.354.153-.862.153zM-202.087 134.243h-1.185v-.699h3.228v.699h-1.186v3.006h-.857z" style="font-style:normal;font-variant:normal;font-weight:700;font-stretch:normal;font-size:5.29167px;font-family:Montserrat;-inkscape-font-specification:'Montserrat Bold';fill:#eee;fill-opacity:1;stroke-width:.264583"/></g><path d="M-228.926 127.758a8.632 8.632 0 0 1-2.169-1.613c-1.217-1.221-1.949-2.59-2.326-4.352-.114-.532-.126-.988-.126-4.836 0-4.027-.037-4.448.145-5.963.182-1.514.348-2.054.474-2.18.092-.092.124-.085.284.065.1.093.432.526.74.963.675.96 1.21 1.537 1.6 1.725.567.275.521.547.523-3.158 0-1.814.03-3.493.064-3.73.25-1.726 1.975-2.793 3.544-2.19.109.041.121-.011.123-.532.007-1.709.467-2.638 1.578-3.185.417-.205.51-.224 1.112-.223.567 0 .712.026 1.053.185.546.254 1.067.759 1.308 1.265.108.227.197.451.197.496 0 .152.13.165.482.05.516-.169 1.367-.11 1.866.13.519.248 1.011.748 1.27 1.292.204.426.217.5.24 1.424l.023.976.425-.135c.58-.184 1.215-.134 1.805.142.613.287.96.627 1.263 1.242l.259.523.02 7.292c.02 7.926.023 7.877-.366 9.225-.612 2.12-2.226 4.043-4.282 5.102l-.484.249c-3.717 1.914-8.544.86-10.168.003zm6.614-.305c1.352-.137 2.646-.492 3.662-1.003 1.724-.867 3.026-2.311 3.579-3.968.385-1.154.37-.84.397-8.599.023-6.479.014-7.212-.086-7.475-.208-.544-.77-.847-1.307-.702-.337.09-.698.456-.795.805-.044.16-.071 1.511-.072 3.594 0 2.84-.015 3.366-.104 3.538-.135.26-.3.344-.668.342-.316-.002-.537-.13-.67-.39-.055-.108-.078-1.676-.078-5.419 0-5.206-.002-5.27-.144-5.566-.364-.751-1.328-.85-1.833-.19l-.199.262-.034 5.393c-.037 5.71-.028 5.571-.361 5.805-.2.14-.67.137-.874-.005-.362-.253-.354-.102-.354-6.763 0-4.433-.022-6.232-.077-6.34-.268-.523-.809-.803-1.297-.671-.334.09-.746.527-.795.844-.02.126-.054 2.73-.078 5.786-.042 5.36-.048 5.565-.178 5.747-.227.318-.824.394-1.155.147l-.185-.138-.034-3.93c-.034-3.896-.036-3.932-.186-4.171-.255-.406-.701-.599-1.125-.484-.28.075-.647.42-.757.713-.049.128-.074 1.497-.074 4.04 0 2.312-.027 3.945-.068 4.092-.086.307-.437.645-.787.757-.625.2-1.36-.066-2.254-.813-.56-.47-.59-.484-.652-.34-.1.227-.136 7.665-.041 8.475.208 1.785.836 3.107 2.027 4.261.9.875 1.749 1.384 3.059 1.838 1.453.503 3.048.686 4.598.529zm-2.462-1.838c-1.472-.314-3.128-1.238-4.585-2.556-.598-.542-.768-.794-.768-1.14 0-.284.124-.46.762-1.067 1.79-1.707 4.027-2.72 6.007-2.72 1.957 0 4.146.983 5.97 2.683.687.64.8.806.8 1.175 0 .294-.025.332-.57.868-1.417 1.393-3.24 2.436-4.833 2.763-.675.138-2.123.136-2.783-.005zm2.556-1.539c1.119-.269 2.18-.829 3.335-1.76l.433-.35-.33-.306a9.853 9.853 0 0 0-1-.745c-2.09-1.374-3.88-1.595-5.856-.723-.686.303-1.78 1.003-2.3 1.475l-.331.298.434.353c1.954 1.586 3.855 2.182 5.615 1.758zm-2.006-.305c-.426-.199-.882-.7-1.029-1.131-.332-.976.048-1.98.938-2.473.329-.182.435-.205.957-.205s.628.023.957.205c.748.414 1.088 1.05 1.031 1.928-.05.779-.462 1.38-1.16 1.696-.453.205-1.23.196-1.694-.02z" style="fill:#222;fill-opacity:1;stroke-width:.282223"/></g></svg>