<svg xmlns="http://www.w3.org/2000/svg" width="512" height="512" viewBox="0 0 135.467 135.467"><path d="M24.946 0h85.574c13.82 0 24.947 11.1 24.947 24.886v85.695c0 13.787-11.126 24.886-24.947 24.886H24.946C11.126 135.467 0 124.367 0 110.58V24.886C0 11.099 11.126 0 24.946 0Z" style="fill:#e6e6e6;stroke-width:.264581;opacity:.992"/><path d="M153.14 88.478c2.51-9.435 8.029-17.777 16.083-25.197 10.296 8.773 13.61 17.546 17.583 26.32-4.71 3.317-9.41 6.582-14.364 11.37-6.782-4.69-10.342-9.039-19.302-12.493zm23.805 15.938c8.771-6.658 17.915-14.667 34.781-16.029 6.481 11.151 10.082 49.134-1.03 58.016-11.15-16.754-20.025-29.201-33.751-41.987zm-21.275 57.005c-37.36-6.105-41.277-52.141-28.52-76.45 34.201 3.327 66.154 40.959 79.152 66.186-13.95 10.521-36.102 12.463-50.632 10.264z" style="fill:#006aa7;fill-opacity:1;stroke:#000;stroke-width:1.43172;stroke-miterlimit:4;stroke-dasharray:none;stroke-opacity:1" transform="translate(-16.143 -11.785) scale(.34923)"/><path stroke-width=".265" d="M93.598 11.686c-8.748 0-15.906 7.158-15.906 15.906 0 8.749 7.158 15.906 15.906 15.906 8.749 0 15.907-7.157 15.907-15.906 0-8.748-7.158-15.906-15.907-15.906zm2.12 3.57a12.462 12.462 0 0 1 10.393 12.336c0 2.311-.616 4.469-1.695 6.32zm-4.243.001-8.697 18.651a12.513 12.513 0 0 1-1.692-6.316 12.463 12.463 0 0 1 10.39-12.335zm2.121 3.48 4.03 8.643h-8.06zm-5.612 12.036h11.225l2.834 6.078a12.476 12.476 0 0 1-8.445 3.254 12.477 12.477 0 0 1-8.447-3.257z" style="fill:red;fill-opacity:1;stroke:#000;stroke-width:.5;stroke-miterlimit:4;stroke-dasharray:none;stroke-opacity:1"/><path d="M29.293 48.603a9.47 9.47 0 0 1 3.928 4.55c.431 1.06.667 2.211.578 3.351a5.518 5.518 0 0 1-.605 2.129l-5.106-5.106 1.848-1.847-1.105-1.105a4.595 4.595 0 0 1-2.606.504l-3.636 3.636 2.155 2.156 1.459-1.459 5.13 5.131a5.436 5.436 0 0 1-1.545.583c-1.032.218-2.114.151-3.134-.115a8.3 8.3 0 0 1-4.096-2.518l-3.67 3.67 1.58 1.581 2.454-2.453a7.752 7.752 0 0 0 5.554 2.585 7.763 7.763 0 0 0 4.705-1.486l1.334 1.334 1.876-1.894-1.369-1.37a7.69 7.69 0 0 0 1.124-2.667 7.7 7.7 0 0 0-.325-4.25 7.7 7.7 0 0 0-2.548-3.416 7.7 7.7 0 0 0-3.98-1.524z" style="fill:#cd0000;fill-opacity:1;stroke:#000;stroke-width:.499999;stroke-linecap:butt;stroke-linejoin:miter;stroke-miterlimit:4;stroke-dasharray:none;stroke-opacity:1"/><path d="m81.224 59.606-2.018 3.538h1.3v3.758h1.495v-3.758h1.3zm0-2.703-2.018-3.538h1.3v-3.758h1.495v3.758h1.3z" style="fill:#ffe000;fill-opacity:1;stroke:#000;stroke-width:.499999;stroke-miterlimit:4;stroke-dasharray:none;stroke-opacity:1"/><g style="fill:#000;fill-opacity:1;stroke-width:1.73058"><path d="m-222.535 125.075-3.271-5.737h2.108v-6.092h2.424v6.092h2.108zm0-28.041-3.271 5.737h2.108v6.093h2.424v-6.093h2.108zm-13.972 13.972 5.737-3.272v2.109h6.093v2.424h-6.093v2.108zm28.041 0-5.737-3.272v2.109h-6.092v2.424h6.092v2.108z" style="fill:#000;fill-opacity:1;stroke-width:.457882" transform="translate(236.227 -6.128) scale(.57784)"/></g><path d="M19.96 76.13c1.057.002 1.624.29 2.252 1.15 1.304 1.78 1.664 2.023 2.993 2.023 1.13 0 2-.247 4.532-1.29.291-.12.742 2.337.988 5.385l.145 1.791-.744.326c-2.032.89-3.802 1.225-4.828.91-.6-.183-1.07-.659-1.906-1.925-.715-1.085-1.607-1.42-3.097-1.167-.96.164-2.792.777-2.822.945-.01.061.432 2.123.984 4.58l.913 4.068a9.447 11.252 47.5 0 1-1.242-.123c-.122-.832-.59-3.044-1.573-7.46-.984-4.422-1.711-7.938-1.67-8.077.115-.397.416-.504.708-.253l.247.212.728-.288c1.286-.51 2.54-.808 3.392-.807zm-3.82 1.943a.04.04 0 0 0-.028.01c-.027.023.219 1.238.546 2.7.397 1.777.627 2.598.694 2.478.055-.098.148-.58.206-1.07.132-1.097-.01-2.063-.43-2.907-.266-.539-.825-1.213-.989-1.211z" style="fill:#ff9800;fill-opacity:1;stroke:#000;stroke-width:.5;stroke-miterlimit:4;stroke-dasharray:none;stroke-opacity:1" transform="translate(8.421 -.426)"/><path d="M48.284 75.343c-.29 0-.582.008-.749.023-1.91.177-3.58.855-5.05 2.055-.317.258-.94.88-1.207 1.205-1.186 1.439-1.871 3.097-2.061 4.979a11.59 11.59 0 0 0-.01 1.586c.18 1.94.88 3.638 2.113 5.119.102.122.336.37.532.566.488.49.866.8 1.425 1.172a9.042 9.042 0 0 0 4.287 1.47c.149.012.31.023.36.026.21.016.896-.007 1.2-.035a8.964 8.964 0 0 0 3.224-.918 9.1 9.1 0 0 0 5.037-8.166 8.82 8.82 0 0 0-.47-2.889 9.11 9.11 0 0 0-1.667-2.96c-.235-.283-.82-.868-1.097-1.098-1.492-1.238-3.175-1.932-5.118-2.112a9.605 9.605 0 0 0-.749-.023zm-2.125 1.432a11.914 11.914 0 0 0-1.335 1.78 13.771 13.771 0 0 0-.699 1.356l-.027-.01a12.609 12.609 0 0 1-1.049-.512 14.418 14.418 0 0 1-.619-.368c.02-.023.036-.043.06-.069a8.04 8.04 0 0 1 2.153-1.613c.448-.232 1.013-.424 1.516-.564zm4.246.002c1.221.337 2.424.976 3.324 1.832.151.144.279.27.365.36l.045.05c-.043.028-.092.06-.152.097-.142.088-.313.19-.434.258a14.044 14.044 0 0 1-1.027.502l-.082.035-.024-.054a18.771 18.771 0 0 0-.63-1.229 12.104 12.104 0 0 0-1.385-1.851zm-2.684.01c0 .102.003.211.004.367.003.392.004.933.004 1.529v2.039h-.031c-.426-.007-1.256-.121-1.838-.256a8.89 8.89 0 0 1-.55-.143c-.052-.015-.085-.027-.12-.039l.088-.191c.075-.16.171-.35.246-.488a10.304 10.304 0 0 1 2.08-2.711c.045-.043.078-.072.117-.108zm1.127 0c.025.022.045.038.072.064.137.127.295.278.385.37a10.382 10.382 0 0 1 1.979 2.86c.037.08.071.15.095.205a2.78 2.78 0 0 1-.14.043c-.652.184-1.387.32-2.075.377-.114.01-.266.018-.324.018v-2.043c0-.67.003-1.212.006-1.584.001-.136 0-.222.002-.31zm-7.123 3.118.088.055c.559.363 1.253.728 1.855.977.035.014.043.02.063.03l-.05.16a11.863 11.863 0 0 0-.486 2.751l-1.443.004-1.43.004.004-.06c.014-.232.054-.539.111-.852.137-.743.406-1.52.753-2.188.154-.298.398-.688.535-.88zm13.113.006c.56.828.957 1.666 1.186 2.58.115.463.215 1.132.218 1.395h-1.421c-.427 0-.815 0-1.098-.002a29.782 29.782 0 0 1-.336-.004h-.017v-.002c0-.405-.113-1.236-.247-1.852a13.427 13.427 0 0 0-.285-1.06l.065-.03a12.204 12.204 0 0 0 1.853-.976l.082-.049zM51.822 81.2c.034-.01.044.008.11.218.227.722.413 1.76.436 2.432l.005.153-1.82.004c-1.447.004-1.822 0-1.829-.018a35.922 35.922 0 0 1-.004-1.136l.005-1.115.18-.013c.9-.065 1.544-.162 2.233-.337.243-.061.556-.147.685-.188zm-7.025.135c.86.265 1.799.44 2.85.514l.072.006v2.023l-1.693.004c-.568.002-1.024.002-1.338 0-.157-.001-.278-.004-.36-.006h-.008l.01-.148a10.905 10.905 0 0 1 .426-2.271c.023-.074.03-.094.04-.122zM40.322 85h2.866l.03.38c.058.813.217 1.66.46 2.458l.03.094-.128.055c-.567.24-1.331.648-1.795.959l-.062.04-.014-.017a5.044 5.044 0 0 1-.176-.266 9.628 9.628 0 0 1-.398-.703c-.438-.873-.756-2.03-.808-2.94zm3.993 0 1.697.004 1.707.006v2.021l-.072.006c-1.034.072-1.82.206-2.719.466l-.088.026-.072.02a10.262 10.262 0 0 1-.162-.574 10.77 10.77 0 0 1-.287-1.898zm7.94 0-.005.078a10.724 10.724 0 0 1-.414 2.364l-.033.111-.012-.004c-.823-.261-1.824-.44-2.86-.512l-.081-.006v-2.024l1.707-.004zm1.124 0h2.865c0 .05-.01.184-.023.3a7.975 7.975 0 0 1-1.29 3.563 2.554 2.554 0 0 1-.083.123l-.033-.021a12.61 12.61 0 0 0-1.826-.978l-.127-.055.029-.094a11.64 11.64 0 0 0 .47-2.578c.006-.096.013-.208.018-.26zm-5.65 3.164v2.191a294.215 294.215 0 0 1-.006 1.838 10.292 10.292 0 0 1-2.498-3.43c-.028-.06-.052-.11-.07-.155.015-.005.022-.009.042-.015a10.966 10.966 0 0 1 2.41-.424zm1.111 0 .117.006a10.58 10.58 0 0 1 2.098.338c.137.035.258.067.342.094l.02.006c-.026.058-.063.142-.12.263a10.568 10.568 0 0 1-2.449 3.319l-.002-.051c-.004-.286-.006-.841-.006-1.893zm-4.748.826c.013.028.023.046.05.11a11.69 11.69 0 0 0 1.962 3.023 8.01 8.01 0 0 1-3.076-1.67c-.06-.052-.238-.226-.395-.382-.077-.077-.15-.15-.203-.206a13.411 13.411 0 0 1 .906-.521c.125-.065.313-.156.479-.232a6.12 6.12 0 0 1 .277-.122zm8.385 0c.101.04.285.12.515.235.262.13.55.281.747.396.197.115.329.194.402.244a11.983 11.983 0 0 1-.514.506c-.868.794-1.999 1.384-3.135 1.71.782-.889 1.46-1.9 1.934-2.981l.05-.11z" style="fill:#03a9f4;fill-opacity:1;stroke:#000;stroke-width:.5;stroke-miterlimit:4;stroke-dasharray:none;stroke-opacity:1" transform="translate(8.421 -.426)"/><path d="M70.31 92.219a5.22 5.22 0 0 1-1.312-.973c-.736-.737-1.179-1.563-1.407-2.626-.069-.321-.076-.596-.076-2.917 0-2.43-.022-2.684.088-3.598.11-.913.21-1.24.287-1.316.055-.055.074-.05.171.04.06.056.262.318.448.581.408.579.732.927.967 1.04.343.166.316.33.317-1.905 0-1.094.018-2.106.039-2.25.15-1.041 1.194-1.684 2.144-1.321.065.025.073-.006.074-.32.004-1.032.282-1.592.954-1.922.253-.124.309-.135.673-.135.343 0 .431.016.637.112.33.153.646.458.791.763.066.137.12.272.12.3 0 .09.078.099.291.03.312-.102.827-.067 1.129.078.314.15.611.451.769.78.123.256.13.3.144.859l.014.588.257-.082c.35-.11.735-.08 1.092.086.37.173.58.379.764.75l.157.315.011 4.399c.013 4.782.014 4.752-.22 5.566-.371 1.279-1.347 2.439-2.591 3.077l-.293.15c-2.248 1.155-5.168.52-6.15.002zm4.001-.184c.818-.083 1.6-.297 2.215-.606 1.043-.523 1.83-1.394 2.165-2.393.233-.696.224-.507.24-5.188.014-3.909.009-4.351-.052-4.51a.669.669 0 0 0-.79-.423.77.77 0 0 0-.481.486c-.027.097-.043.911-.044 2.168 0 1.713-.01 2.03-.063 2.134-.081.157-.18.208-.404.207-.19-.002-.325-.08-.405-.236-.033-.065-.047-1.01-.047-3.269 0-3.14-.001-3.18-.088-3.358a.644.644 0 0 0-1.108-.114l-.12.158-.021 3.253c-.022 3.445-.017 3.361-.219 3.502-.12.084-.405.083-.528-.003-.219-.153-.214-.061-.214-4.08 0-2.674-.014-3.76-.047-3.825-.162-.315-.49-.484-.784-.405-.203.055-.452.319-.481.51-.012.075-.033 1.646-.048 3.49-.025 3.234-.029 3.357-.107 3.467-.137.192-.498.238-.699.09l-.112-.084-.02-2.37c-.021-2.352-.022-2.373-.113-2.518-.154-.244-.424-.36-.68-.292-.17.046-.392.255-.458.43-.03.078-.045.904-.045 2.438 0 1.395-.017 2.38-.041 2.469-.052.185-.264.389-.476.456-.378.12-.823-.04-1.363-.49-.34-.283-.357-.292-.395-.205-.06.137-.082 4.624-.025 5.113.126 1.076.506 1.874 1.226 2.57.545.528 1.058.835 1.85 1.109.88.303 1.845.414 2.782.319zm-1.49-1.11c-.89-.189-1.892-.746-2.773-1.542-.362-.326-.464-.478-.465-.687 0-.171.076-.277.462-.644 1.082-1.03 2.436-1.641 3.633-1.641 1.184 0 2.508.594 3.611 1.619.416.386.484.486.484.708 0 .178-.015.201-.345.524-.856.84-1.96 1.47-2.923 1.667-.408.084-1.284.082-1.683-.003zm1.547-.928c.677-.162 1.318-.5 2.017-1.062l.262-.211-.2-.184a5.958 5.958 0 0 0-.604-.45c-1.265-.829-2.347-.962-3.543-.436-.415.183-1.076.605-1.391.89l-.2.18.262.212c1.182.958 2.332 1.317 3.397 1.061zm-1.214-.184c-.257-.12-.533-.422-.622-.682a1.218 1.218 0 0 1 .567-1.492c.2-.11.264-.124.58-.124.315 0 .38.014.578.124.453.25.659.634.624 1.163-.03.47-.28.833-.701 1.023-.275.124-.745.118-1.026-.012z" style="fill:#6c9569;fill-opacity:1;stroke:#000;stroke-width:.5;stroke-miterlimit:4;stroke-dasharray:none;stroke-opacity:1" transform="translate(8.421 -.426)"/><path d="M92.076 76.145v3.124h1.246v-.937l.935.937-.935.937.936.936.934-.936.312.309a4.582 4.582 0 0 0 2.884 7.368l-.002 1.617h-1.792v1.406h1.792v1.64h1.402v-1.64h1.792V89.5h-1.792v-1.619a4.59 4.59 0 0 0 3.872-4.53 4.566 4.566 0 0 0-.984-2.835l2.176-2.184v2.03h1.246v-4.217h-4.206v1.25h2.025l-2.202 2.209a4.536 4.536 0 0 0-5.253 0l-.335-.335.935-.937-.935-.938-.935.938-.935-.938h.935v-1.249Zm7.521 3.948a3.273 3.273 0 0 1 2.43 1.8c.468.96.44 2.09-.076 3.026zm-1.097.014-2.27 4.824c.009.037-.01-.036 0 0-.557-.923-.568-1.96-.126-2.944a3.273 3.273 0 0 1 2.396-1.88zm.552.89 1.04 2.237h-2.08zm-1.449 3.115h2.898l.732 1.573c-1.327 1.083-3.173 1.056-4.361 0z" style="fill:#ff42ff;fill-opacity:1;stroke:#000;stroke-width:.500001;stroke-miterlimit:4;stroke-dasharray:none;stroke-opacity:1" transform="translate(8.421 -.426)"/><g style="visibility:visible;fill:#890000;fill-opacity:1;stroke:#000;stroke-width:639.922;stroke-miterlimit:4;stroke-dasharray:none;stroke-opacity:1"><g style="fill:#890000;fill-opacity:1;stroke:#000;stroke-width:639.922;stroke-miterlimit:4;stroke-dasharray:none;stroke-opacity:1"><path d="M8639 426 6546 3840l2873 1321 1899-3052Z" style="fill:#890000;fill-opacity:1;stroke:#000;stroke-width:639.922;stroke-miterlimit:4;stroke-dasharray:none;stroke-opacity:1" transform="translate(47.775 99.205) scale(.00078)"/><g style="fill:#890000;fill-opacity:1;stroke:#000;stroke-width:639.922;stroke-miterlimit:4;stroke-dasharray:none;stroke-opacity:1"><path d="M8682 453 6589 3867l-43-27-43-27L8596 399l43 27z" style="fill:#890000;fill-opacity:1;stroke:#000;stroke-width:639.922;stroke-miterlimit:4;stroke-dasharray:none;stroke-opacity:1" transform="translate(47.775 99.205) scale(.00078)"/><path d="m6546 3840-21 46-8-4-7-6-6-7-4-7-3-9-2-8v-9l2-9 3-8 3-6zm21-46 2873 1321-21 46-21 46-2873-1321 21-46zm2852 1367 43 27-5 7-7 6-7 5-8 3-9 2-9 1-9-1-8-3-2-1z" style="fill:#890000;fill-opacity:1;stroke:#000;stroke-width:639.922;stroke-miterlimit:4;stroke-dasharray:none;stroke-opacity:1" transform="translate(47.775 99.205) scale(.00078)"/><path d="m9376 5134 1899-3052 43 27 43 27-1899 3052-43-27z" style="fill:#890000;fill-opacity:1;stroke:#000;stroke-width:639.922;stroke-miterlimit:4;stroke-dasharray:none;stroke-opacity:1" transform="translate(47.775 99.205) scale(.00078)"/><path d="m11318 2109 27-43 7 5 6 7 5 7 4 8 2 9v9l-1 9-3 8-4 8z" style="fill:#890000;fill-opacity:1;stroke:#000;stroke-width:639.922;stroke-miterlimit:4;stroke-dasharray:none;stroke-opacity:1" transform="translate(47.775 99.205) scale(.00078)"/><path d="M11291 2152 8612 469l27-43 27-43 2679 1683-27 43z" style="fill:#890000;fill-opacity:1;stroke:#000;stroke-width:639.922;stroke-miterlimit:4;stroke-dasharray:none;stroke-opacity:1" transform="translate(47.775 99.205) scale(.00078)"/><path d="m8639 426-43-27 5-7 6-6 8-5 8-3 8-2 9-1 9 1 9 3 8 4z" style="fill:#890000;fill-opacity:1;stroke:#000;stroke-width:639.922;stroke-miterlimit:4;stroke-dasharray:none;stroke-opacity:1" transform="translate(47.775 99.205) scale(.00078)"/></g></g><g style="fill:#890000;fill-opacity:1;stroke:#000;stroke-width:639.922;stroke-miterlimit:4;stroke-dasharray:none;stroke-opacity:1"><path d="m12291 2748-1800 2958 2191 1093-148 1184 2484-3779z" style="fill:#890000;fill-opacity:1;stroke:#000;stroke-width:639.922;stroke-miterlimit:4;stroke-dasharray:none;stroke-opacity:1" transform="translate(47.775 99.205) scale(.00078)"/><g style="fill:#890000;fill-opacity:1;stroke:#000;stroke-width:639.922;stroke-miterlimit:4;stroke-dasharray:none;stroke-opacity:1"><path d="m12335 2775-1800 2958-44-27-44-27 1800-2958 44 27z" style="fill:#890000;fill-opacity:1;stroke:#000;stroke-width:639.922;stroke-miterlimit:4;stroke-dasharray:none;stroke-opacity:1" transform="translate(47.775 99.205) scale(.00078)"/><path d="m10491 5706-23 46-7-5-7-6-6-7-4-8-3-8-1-9v-9l2-8 3-9 2-4z" style="fill:#890000;fill-opacity:1;stroke:#000;stroke-width:639.922;stroke-miterlimit:4;stroke-dasharray:none;stroke-opacity:1" transform="translate(47.775 99.205) scale(.00078)"/><path d="m10514 5660 2191 1093-23 46-23 46-2191-1093 23-46z" style="fill:#890000;fill-opacity:1;stroke:#000;stroke-width:639.922;stroke-miterlimit:4;stroke-dasharray:none;stroke-opacity:1" transform="translate(47.775 99.205) scale(.00078)"/><path d="m12682 6799 23-46 7 5 7 6 6 7 4 8 3 8 1 9v9z" style="fill:#890000;fill-opacity:1;stroke:#000;stroke-width:639.922;stroke-miterlimit:4;stroke-dasharray:none;stroke-opacity:1" transform="translate(47.775 99.205) scale(.00078)"/><path d="m12733 6805-148 1184-51-6-51-6 148-1184 51 6z" style="fill:#890000;fill-opacity:1;stroke:#000;stroke-width:639.922;stroke-miterlimit:4;stroke-dasharray:none;stroke-opacity:1" transform="translate(47.775 99.205) scale(.00078)"/><path d="m12534 7983 43 28-6 7-7 6-7 5-8 3-9 2h-9l-9-1-8-3-8-4-7-6-6-7-5-7-3-8-2-9v-12z" style="fill:#890000;fill-opacity:1;stroke:#000;stroke-width:639.922;stroke-miterlimit:4;stroke-dasharray:none;stroke-opacity:1" transform="translate(47.775 99.205) scale(.00078)"/><path d="m12491 7955 2484-3779 43 28 43 28-2484 3779-43-28z" style="fill:#890000;fill-opacity:1;stroke:#000;stroke-width:639.922;stroke-miterlimit:4;stroke-dasharray:none;stroke-opacity:1" transform="translate(47.775 99.205) scale(.00078)"/><path d="m15018 4204 24-45 7 5 7 6 5 7 4 8 3 8 1 9-1 9-2 9-3 8-2 4z" style="fill:#890000;fill-opacity:1;stroke:#000;stroke-width:639.922;stroke-miterlimit:4;stroke-dasharray:none;stroke-opacity:1" transform="translate(47.775 99.205) scale(.00078)"/><path d="m14994 4249-2727-1456 24-45 24-45 2727 1456-24 45z" style="fill:#890000;fill-opacity:1;stroke:#000;stroke-width:639.922;stroke-miterlimit:4;stroke-dasharray:none;stroke-opacity:1" transform="translate(47.775 99.205) scale(.00078)"/><path d="m12291 2748-44-27 6-7 6-6 8-5 8-3 8-2 9-1 9 1 9 2 5 3z" style="fill:#890000;fill-opacity:1;stroke:#000;stroke-width:639.922;stroke-miterlimit:4;stroke-dasharray:none;stroke-opacity:1" transform="translate(47.775 99.205) scale(.00078)"/></g></g><g style="fill:#890000;fill-opacity:1;stroke:#000;stroke-width:639.922;stroke-miterlimit:4;stroke-dasharray:none;stroke-opacity:1"><path d="m15701 5479-3896 5462 2337 864 3847-4552h-49z" style="fill:#890000;fill-opacity:1;stroke:#000;stroke-width:639.922;stroke-miterlimit:4;stroke-dasharray:none;stroke-opacity:1" transform="translate(47.775 99.205) scale(.00078)"/><g style="fill:#890000;fill-opacity:1;stroke:#000;stroke-width:639.922;stroke-miterlimit:4;stroke-dasharray:none;stroke-opacity:1"><path d="m15743 5509-3896 5462-42-30-42-30 3896-5462 42 30z" style="fill:#890000;fill-opacity:1;stroke:#000;stroke-width:639.922;stroke-miterlimit:4;stroke-dasharray:none;stroke-opacity:1" transform="translate(47.775 99.205) scale(.00078)"/><path d="m11805 10941-18 48-8-4-7-5-6-6-5-8-4-8-2-8-1-9 1-9 2-9 4-8 2-4z" style="fill:#890000;fill-opacity:1;stroke:#000;stroke-width:639.922;stroke-miterlimit:4;stroke-dasharray:none;stroke-opacity:1" transform="translate(47.775 99.205) scale(.00078)"/><path d="m11823 10893 2337 864-18 48-18 48-2337-864 18-48z" style="fill:#890000;fill-opacity:1;stroke:#000;stroke-width:639.922;stroke-miterlimit:4;stroke-dasharray:none;stroke-opacity:1" transform="translate(47.775 99.205) scale(.00078)"/><path d="m14142 11805 39 33-6 6-8 5-8 4-8 2-9 1-9-1-9-2z" style="fill:#890000;fill-opacity:1;stroke:#000;stroke-width:639.922;stroke-miterlimit:4;stroke-dasharray:none;stroke-opacity:1" transform="translate(47.775 99.205) scale(.00078)"/><path d="m14103 11772 3847-4552 39 33 39 33-3847 4552-39-33z" style="fill:#890000;fill-opacity:1;stroke:#000;stroke-width:639.922;stroke-miterlimit:4;stroke-dasharray:none;stroke-opacity:1" transform="translate(47.775 99.205) scale(.00078)"/><path d="M17989 7253v-51l9 1 8 2 8 4 8 5 6 6 5 7 4 9 2 8 1 9-1 9-2 8-4 8-5 8zm0 51h-49v-102h49v51zm-49-51v51l-9-1-8-2-8-4-7-4z" style="fill:#890000;fill-opacity:1;stroke:#000;stroke-width:639.922;stroke-miterlimit:4;stroke-dasharray:none;stroke-opacity:1" transform="translate(47.775 99.205) scale(.00078)"/><path d="m17908 7293-2239-1774 32-40 32-40 2239 1774-32 40z" style="fill:#890000;fill-opacity:1;stroke:#000;stroke-width:639.922;stroke-miterlimit:4;stroke-dasharray:none;stroke-opacity:1" transform="translate(47.775 99.205) scale(.00078)"/><path d="m15701 5479-42-30 6-6 7-6 8-4 8-3 9-2h9l9 2 8 3 8 4 2 2z" style="fill:#890000;fill-opacity:1;stroke:#000;stroke-width:639.922;stroke-miterlimit:4;stroke-dasharray:none;stroke-opacity:1" transform="translate(47.775 99.205) scale(.00078)"/></g></g><g style="fill:#890000;fill-opacity:1;stroke:#000;stroke-width:639.922;stroke-miterlimit:4;stroke-dasharray:none;stroke-opacity:1"><path d="m18573 8255-3603 4189 1119 1138 4139-3689z" style="fill:#890000;fill-opacity:1;stroke:#000;stroke-width:639.922;stroke-miterlimit:4;stroke-dasharray:none;stroke-opacity:1" transform="translate(47.775 99.205) scale(.00078)"/><g style="fill:#890000;fill-opacity:1;stroke:#000;stroke-width:639.922;stroke-miterlimit:4;stroke-dasharray:none;stroke-opacity:1"><path d="m18612 8288-3603 4189-39-33-39-33 3603-4189 39 33z" style="fill:#890000;fill-opacity:1;stroke:#000;stroke-width:639.922;stroke-miterlimit:4;stroke-dasharray:none;stroke-opacity:1" transform="translate(47.775 99.205) scale(.00078)"/><path d="m14970 12444-36 36-6-7-4-8-3-8-2-9v-9l2-9 3-8 4-8 3-3zm36-36 1119 1138-36 36-36 36-1119-1138 36-36zm1083 1174 34 38-7 5-8 4-9 3-8 1-9-1-9-2-8-3-8-5-4-4z" style="fill:#890000;fill-opacity:1;stroke:#000;stroke-width:639.922;stroke-miterlimit:4;stroke-dasharray:none;stroke-opacity:1" transform="translate(47.775 99.205) scale(.00078)"/><path d="m16055 13544 4139-3689 34 38 34 38-4139 3689-34-38z" style="fill:#890000;fill-opacity:1;stroke:#000;stroke-width:639.922;stroke-miterlimit:4;stroke-dasharray:none;stroke-opacity:1" transform="translate(47.775 99.205) scale(.00078)"/><path d="m20228 9893 36-36 6 7 4 7 3 9 2 8v9l-2 9-3 8-4 8-6 7-2 2z" style="fill:#890000;fill-opacity:1;stroke:#000;stroke-width:639.922;stroke-miterlimit:4;stroke-dasharray:none;stroke-opacity:1" transform="translate(47.775 99.205) scale(.00078)"/><path d="m20192 9929-1655-1638 36-36 36-36 1655 1638-36 36z" style="fill:#890000;fill-opacity:1;stroke:#000;stroke-width:639.922;stroke-miterlimit:4;stroke-dasharray:none;stroke-opacity:1" transform="translate(47.775 99.205) scale(.00078)"/><path d="m18573 8255-39-33 7-6 7-5 8-4 9-2 9-1 8 1 9 2 8 4 7 5 3 3z" style="fill:#890000;fill-opacity:1;stroke:#000;stroke-width:639.922;stroke-miterlimit:4;stroke-dasharray:none;stroke-opacity:1" transform="translate(47.775 99.205) scale(.00078)"/></g></g><g style="fill:#890000;fill-opacity:1;stroke:#000;stroke-width:639.922;stroke-miterlimit:4;stroke-dasharray:none;stroke-opacity:1"><path d="M5377 4568 995 11077l6720 7693-1267 7375 9884-91-438-6692 2290-2913 584-3916-2629 2186-2192-1957-3992-957 3896 6101 876 637-1412 45-438 1594-586-1594-1460 229 1606-1411-3798-5873-2970-1001 1072-957-293-1592h633l974 1365 2191-91 1169-637 146-1458z" style="fill:#890000;fill-opacity:1;stroke:#000;stroke-width:639.922;stroke-miterlimit:4;stroke-dasharray:none;stroke-opacity:1" transform="translate(47.775 99.205) scale(.00078)"/><g style="fill:#890000;fill-opacity:1;stroke:#000;stroke-width:639.922;stroke-miterlimit:4;stroke-dasharray:none;stroke-opacity:1"><path d="m5419 4596-4382 6509-42-28-42-28 4382-6509 42 28z" style="fill:#890000;fill-opacity:1;stroke:#000;stroke-width:639.922;stroke-miterlimit:4;stroke-dasharray:none;stroke-opacity:1" transform="translate(47.775 99.205) scale(.00078)"/><path d="m995 11077-38 34-6-8-4-8-2-8-1-9 1-9 2-8 3-9 3-3zm38-34 6720 7693-38 34-38 34-6720-7693 38-34zm6682 7727 38-34 6 8 4 8 2 8 1 9-1 9v1z" style="fill:#890000;fill-opacity:1;stroke:#000;stroke-width:639.922;stroke-miterlimit:4;stroke-dasharray:none;stroke-opacity:1" transform="translate(47.775 99.205) scale(.00078)"/><path d="m7765 18779-1267 7375-50-9-50-9 1267-7375 50 9z" style="fill:#890000;fill-opacity:1;stroke:#000;stroke-width:639.922;stroke-miterlimit:4;stroke-dasharray:none;stroke-opacity:1" transform="translate(47.775 99.205) scale(.00078)"/><path d="M6448 26145v51l-8-1-9-2-8-4-7-5-7-6-5-7-4-8-2-9-1-9 1-8v-1zm0-51 9884-91v102l-9884 91v-51zm9884-40 51-3v9l-2 8-3 9-5 7-6 7-7 5-7 5-9 3-9 1h-3z" style="fill:#890000;fill-opacity:1;stroke:#000;stroke-width:639.922;stroke-miterlimit:4;stroke-dasharray:none;stroke-opacity:1" transform="translate(47.775 99.205) scale(.00078)"/><path d="m16281 26057-438-6692 51-3 51-3 438 6692-51 3z" style="fill:#890000;fill-opacity:1;stroke:#000;stroke-width:639.922;stroke-miterlimit:4;stroke-dasharray:none;stroke-opacity:1" transform="translate(47.775 99.205) scale(.00078)"/><path d="m15894 19362-51 3v-9l2-8 3-9 5-7 1-2z" style="fill:#890000;fill-opacity:1;stroke:#000;stroke-width:639.922;stroke-miterlimit:4;stroke-dasharray:none;stroke-opacity:1" transform="translate(47.775 99.205) scale(.00078)"/><path d="m15854 19330 2290-2913 40 32 40 32-2290 2913-40-32z" style="fill:#890000;fill-opacity:1;stroke:#000;stroke-width:639.922;stroke-miterlimit:4;stroke-dasharray:none;stroke-opacity:1" transform="translate(47.775 99.205) scale(.00078)"/><path d="m18184 16449 50 8-2 8-3 8-5 8z" style="fill:#890000;fill-opacity:1;stroke:#000;stroke-width:639.922;stroke-miterlimit:4;stroke-dasharray:none;stroke-opacity:1" transform="translate(47.775 99.205) scale(.00078)"/><path d="m18134 16441 584-3916 50 8 50 8-584 3916-50-8z" style="fill:#890000;fill-opacity:1;stroke:#000;stroke-width:639.922;stroke-miterlimit:4;stroke-dasharray:none;stroke-opacity:1" transform="translate(47.775 99.205) scale(.00078)"/><path d="m18768 12533-33-39 8-5 8-4 8-2 9-1 9 1 9 2 8 4 7 5 6 6 5 8 4 8 2 8 1 9-1 8z" style="fill:#890000;fill-opacity:1;stroke:#000;stroke-width:639.922;stroke-miterlimit:4;stroke-dasharray:none;stroke-opacity:1" transform="translate(47.775 99.205) scale(.00078)"/><path d="m18801 12572-2629 2186-33-39-33-39 2629-2186 33 39z" style="fill:#890000;fill-opacity:1;stroke:#000;stroke-width:639.922;stroke-miterlimit:4;stroke-dasharray:none;stroke-opacity:1" transform="translate(47.775 99.205) scale(.00078)"/><path d="m16139 14719 33 39-8 5-8 4-8 2-9 1-9-1-9-2-8-4-7-5-1-1z" style="fill:#890000;fill-opacity:1;stroke:#000;stroke-width:639.922;stroke-miterlimit:4;stroke-dasharray:none;stroke-opacity:1" transform="translate(47.775 99.205) scale(.00078)"/><path d="m16105 14757-2192-1957 34-38 34-38 2192 1957-34 38z" style="fill:#890000;fill-opacity:1;stroke:#000;stroke-width:639.922;stroke-miterlimit:4;stroke-dasharray:none;stroke-opacity:1" transform="translate(47.775 99.205) scale(.00078)"/><path d="m13947 12762 12-50 8 3 8 4 6 5z" style="fill:#890000;fill-opacity:1;stroke:#000;stroke-width:639.922;stroke-miterlimit:4;stroke-dasharray:none;stroke-opacity:1" transform="translate(47.775 99.205) scale(.00078)"/><path d="m13935 12812-3992-957 12-50 12-50 3992 957-12 50z" style="fill:#890000;fill-opacity:1;stroke:#000;stroke-width:639.922;stroke-miterlimit:4;stroke-dasharray:none;stroke-opacity:1" transform="translate(47.775 99.205) scale(.00078)"/><path d="m9955 11805-43 27-4-7-3-9-1-9v-9l2-8 4-9 5-7 6-7 7-5 7-4 9-3 9-1h9l5 1z" style="fill:#890000;fill-opacity:1;stroke:#000;stroke-width:639.922;stroke-miterlimit:4;stroke-dasharray:none;stroke-opacity:1" transform="translate(47.775 99.205) scale(.00078)"/><path d="m9998 11778 3896 6101-43 27-43 27-3896-6101 43-27z" style="fill:#890000;fill-opacity:1;stroke:#000;stroke-width:639.922;stroke-miterlimit:4;stroke-dasharray:none;stroke-opacity:1" transform="translate(47.775 99.205) scale(.00078)"/><path d="m13851 17906-30 41-7-6-5-6-1-2z" style="fill:#890000;fill-opacity:1;stroke:#000;stroke-width:639.922;stroke-miterlimit:4;stroke-dasharray:none;stroke-opacity:1" transform="translate(47.775 99.205) scale(.00078)"/><path d="m13881 17865 876 637-30 41-30 41-876-637 30-41z" style="fill:#890000;fill-opacity:1;stroke:#000;stroke-width:639.922;stroke-miterlimit:4;stroke-dasharray:none;stroke-opacity:1" transform="translate(47.775 99.205) scale(.00078)"/><path d="m14727 18543 30-41 7 6 5 6 5 8 2 9 2 8v9l-2 9-3 8-5 8-6 7-6 5-8 5-9 2-8 2h-2z" style="fill:#890000;fill-opacity:1;stroke:#000;stroke-width:639.922;stroke-miterlimit:4;stroke-dasharray:none;stroke-opacity:1" transform="translate(47.775 99.205) scale(.00078)"/><path d="m14729 18594-1412 45-2-51-2-51 1412-45 2 51z" style="fill:#890000;fill-opacity:1;stroke:#000;stroke-width:639.922;stroke-miterlimit:4;stroke-dasharray:none;stroke-opacity:1" transform="translate(47.775 99.205) scale(.00078)"/><path d="m13315 18588-49-14 3-8 4-8 6-6 7-6 8-4 8-3 9-2h2z" style="fill:#890000;fill-opacity:1;stroke:#000;stroke-width:639.922;stroke-miterlimit:4;stroke-dasharray:none;stroke-opacity:1" transform="translate(47.775 99.205) scale(.00078)"/><path d="m13364 18602-438 1594-49-14-49-14 438-1594 49 14z" style="fill:#890000;fill-opacity:1;stroke:#000;stroke-width:639.922;stroke-miterlimit:4;stroke-dasharray:none;stroke-opacity:1" transform="translate(47.775 99.205) scale(.00078)"/><path d="m12877 20182 49 14-3 8-4 8-6 6-7 6-8 4-8 3-9 2h-9l-9-2-8-3-8-4-6-6-6-7-4-8-2-3z" style="fill:#890000;fill-opacity:1;stroke:#000;stroke-width:639.922;stroke-miterlimit:4;stroke-dasharray:none;stroke-opacity:1" transform="translate(47.775 99.205) scale(.00078)"/><path d="m12829 20200-586-1594 48-18 48-18 586 1594-48 18z" style="fill:#890000;fill-opacity:1;stroke:#000;stroke-width:639.922;stroke-miterlimit:4;stroke-dasharray:none;stroke-opacity:1" transform="translate(47.775 99.205) scale(.00078)"/><path d="m12291 18588-8-50 9-1 9 1 8 2 8 4 8 6 6 6 5 7 3 7z" style="fill:#890000;fill-opacity:1;stroke:#000;stroke-width:639.922;stroke-miterlimit:4;stroke-dasharray:none;stroke-opacity:1" transform="translate(47.775 99.205) scale(.00078)"/><path d="m12299 18638-1460 229-8-50-8-50 1460-229 8 50z" style="fill:#890000;fill-opacity:1;stroke:#000;stroke-width:639.922;stroke-miterlimit:4;stroke-dasharray:none;stroke-opacity:1" transform="translate(47.775 99.205) scale(.00078)"/><path d="m10831 18817 8 50-9 1-9-1-8-2-8-4-8-6-6-6-5-7-3-8-2-9-1-9 1-9 2-8 4-8 6-8 4-4z" style="fill:#890000;fill-opacity:1;stroke:#000;stroke-width:639.922;stroke-miterlimit:4;stroke-dasharray:none;stroke-opacity:1" transform="translate(47.775 99.205) scale(.00078)"/><path d="m10797 18779 1606-1411 34 38 34 38-1606 1411-34-38z" style="fill:#890000;fill-opacity:1;stroke:#000;stroke-width:639.922;stroke-miterlimit:4;stroke-dasharray:none;stroke-opacity:1" transform="translate(47.775 99.205) scale(.00078)"/><path d="m12437 17406 43-28 4 8 3 9 1 8v9l-2 9-4 8-4 8-6 6-1 1z" style="fill:#890000;fill-opacity:1;stroke:#000;stroke-width:639.922;stroke-miterlimit:4;stroke-dasharray:none;stroke-opacity:1" transform="translate(47.775 99.205) scale(.00078)"/><path d="m12394 17434-3798-5873 43-28 43-28 3798 5873-43 28z" style="fill:#890000;fill-opacity:1;stroke:#000;stroke-width:639.922;stroke-miterlimit:4;stroke-dasharray:none;stroke-opacity:1" transform="translate(47.775 99.205) scale(.00078)"/><path d="m8639 11533 16-48 8 3 8 5 6 6 5 6z" style="fill:#890000;fill-opacity:1;stroke:#000;stroke-width:639.922;stroke-miterlimit:4;stroke-dasharray:none;stroke-opacity:1" transform="translate(47.775 99.205) scale(.00078)"/><path d="m8623 11581-2970-1001 16-48 16-48 2970 1001-16 48z" style="fill:#890000;fill-opacity:1;stroke:#000;stroke-width:639.922;stroke-miterlimit:4;stroke-dasharray:none;stroke-opacity:1" transform="translate(47.775 99.205) scale(.00078)"/><path d="m5669 10532-16 48-8-3-8-5-6-6-6-7-3-8-3-9-1-9 1-9 2-8 3-8 5-8 6-6z" style="fill:#890000;fill-opacity:1;stroke:#000;stroke-width:639.922;stroke-miterlimit:4;stroke-dasharray:none;stroke-opacity:1" transform="translate(47.775 99.205) scale(.00078)"/><path d="m5635 10494 1072-957 34 38 34 38-1072 957-34-38z" style="fill:#890000;fill-opacity:1;stroke:#000;stroke-width:639.922;stroke-miterlimit:4;stroke-dasharray:none;stroke-opacity:1" transform="translate(47.775 99.205) scale(.00078)"/><path d="m6741 9575 50-9 1 9-1 8-2 9-4 8-5 7-5 6z" style="fill:#890000;fill-opacity:1;stroke:#000;stroke-width:639.922;stroke-miterlimit:4;stroke-dasharray:none;stroke-opacity:1" transform="translate(47.775 99.205) scale(.00078)"/><path d="m6691 9584-293-1592 50-9 50-9 293 1592-50 9z" style="fill:#890000;fill-opacity:1;stroke:#000;stroke-width:639.922;stroke-miterlimit:4;stroke-dasharray:none;stroke-opacity:1" transform="translate(47.775 99.205) scale(.00078)"/><path d="m6448 7983-50 9-1-9 1-8 2-9 4-8 5-7 6-7 7-5 8-4 9-2 9-1zm0-51h633v102h-633v-51zm633 51v-51l9 1 8 2 8 4 8 5 6 6 3 3z" style="fill:#890000;fill-opacity:1;stroke:#000;stroke-width:639.922;stroke-miterlimit:4;stroke-dasharray:none;stroke-opacity:1" transform="translate(47.775 99.205) scale(.00078)"/><path d="m7123 7953 974 1365-42 30-42 30-974-1365 42-30zm932 1395 2 51h-9l-8-2-9-4-7-5-7-6-4-4z" style="fill:#890000;fill-opacity:1;stroke:#000;stroke-width:639.922;stroke-miterlimit:4;stroke-dasharray:none;stroke-opacity:1" transform="translate(47.775 99.205) scale(.00078)"/><path d="m8053 9297 2191-91 2 51 2 51-2191 91-2-51z" style="fill:#890000;fill-opacity:1;stroke:#000;stroke-width:639.922;stroke-miterlimit:4;stroke-dasharray:none;stroke-opacity:1" transform="translate(47.775 99.205) scale(.00078)"/><path d="m10246 9257 24 45-8 3-8 2-6 1z" style="fill:#890000;fill-opacity:1;stroke:#000;stroke-width:639.922;stroke-miterlimit:4;stroke-dasharray:none;stroke-opacity:1" transform="translate(47.775 99.205) scale(.00078)"/><path d="m10222 9212 1169-637 24 45 24 45-1169 637-24-45z" style="fill:#890000;fill-opacity:1;stroke:#000;stroke-width:639.922;stroke-miterlimit:4;stroke-dasharray:none;stroke-opacity:1" transform="translate(47.775 99.205) scale(.00078)"/><path d="m11415 8620 51 5-2 9-3 8-5 8-5 7-7 5-5 3z" style="fill:#890000;fill-opacity:1;stroke:#000;stroke-width:639.922;stroke-miterlimit:4;stroke-dasharray:none;stroke-opacity:1" transform="translate(47.775 99.205) scale(.00078)"/><path d="m11364 8615 146-1458 51 5 51 5-146 1458-51-5z" style="fill:#890000;fill-opacity:1;stroke:#000;stroke-width:639.922;stroke-miterlimit:4;stroke-dasharray:none;stroke-opacity:1" transform="translate(47.775 99.205) scale(.00078)"/><path d="m11561 7162 20-47 8 4 7 6 6 6 4 8 4 8 2 9v11z" style="fill:#890000;fill-opacity:1;stroke:#000;stroke-width:639.922;stroke-miterlimit:4;stroke-dasharray:none;stroke-opacity:1" transform="translate(47.775 99.205) scale(.00078)"/><path d="M11541 7209 5357 4615l20-47 20-47 6184 2594-20 47z" style="fill:#890000;fill-opacity:1;stroke:#000;stroke-width:639.922;stroke-miterlimit:4;stroke-dasharray:none;stroke-opacity:1" transform="translate(47.775 99.205) scale(.00078)"/><path d="m5377 4568-42-28 5-7 7-6 8-5 8-3 9-2h9l8 2 8 2z" style="fill:#890000;fill-opacity:1;stroke:#000;stroke-width:639.922;stroke-miterlimit:4;stroke-dasharray:none;stroke-opacity:1" transform="translate(47.775 99.205) scale(.00078)"/></g></g><g style="fill:#890000;fill-opacity:1;stroke:#000;stroke-width:639.922;stroke-miterlimit:4;stroke-dasharray:none;stroke-opacity:1"><path d="m11513 9849-1120 1184-1218-501z" style="fill:#890000;fill-opacity:1;stroke:#000;stroke-width:639.922;stroke-miterlimit:4;stroke-dasharray:none;stroke-opacity:1" transform="translate(47.775 99.205) scale(.00078)"/><g style="fill:#890000;fill-opacity:1;stroke:#000;stroke-width:639.922;stroke-miterlimit:4;stroke-dasharray:none;stroke-opacity:1"><path d="m11550 9884-1120 1184-37-35-37-35 1120-1184 37 35z" style="fill:#890000;fill-opacity:1;stroke:#000;stroke-width:639.922;stroke-miterlimit:4;stroke-dasharray:none;stroke-opacity:1" transform="translate(47.775 99.205) scale(.00078)"/><path d="m10393 11033 37 35-7 6-7 5-8 3-9 2h-9l-9-1-7-3z" style="fill:#890000;fill-opacity:1;stroke:#000;stroke-width:639.922;stroke-miterlimit:4;stroke-dasharray:none;stroke-opacity:1" transform="translate(47.775 99.205) scale(.00078)"/><path d="m10374 11080-1218-501 19-47 19-47 1218 501-19 47z" style="fill:#890000;fill-opacity:1;stroke:#000;stroke-width:639.922;stroke-miterlimit:4;stroke-dasharray:none;stroke-opacity:1" transform="translate(47.775 99.205) scale(.00078)"/><path d="m9175 10532-19 47-8-4-7-5-6-7-5-7-4-9-2-8v-9l1-9 3-8 4-8 5-7 7-6 7-5 9-4h1z" style="fill:#890000;fill-opacity:1;stroke:#000;stroke-width:639.922;stroke-miterlimit:4;stroke-dasharray:none;stroke-opacity:1" transform="translate(47.775 99.205) scale(.00078)"/><path d="m9161 10483 2338-683 14 49 14 49-2338 683-14-49z" style="fill:#890000;fill-opacity:1;stroke:#000;stroke-width:639.922;stroke-miterlimit:4;stroke-dasharray:none;stroke-opacity:1" transform="translate(47.775 99.205) scale(.00078)"/><path d="m11513 9849-14-49 8-2h9l9 1 9 3 7 5 7 5 6 7 5 7 3 9 2 8v9l-1 9-3 9-5 7-5 7z" style="fill:#890000;fill-opacity:1;stroke:#000;stroke-width:639.922;stroke-miterlimit:4;stroke-dasharray:none;stroke-opacity:1" transform="translate(47.775 99.205) scale(.00078)"/></g></g></g><g style="stroke:#000;stroke-width:.5;stroke-miterlimit:4;stroke-dasharray:none;stroke-opacity:1"><path d="m19.035 113.293-2.001.062h-1.736l-.656 3.175 4.082.047zm-1.084.999-.137 1.301-1.944.016.251-1.286zm-1.855-4.906-.502 2.858h3.493l.092-1.782.922-.483-.732-.593zm.647.794h.27l-.158.412.8.752.644-.329-.04.435h-1.712zm.738 0 .825.016-.52.3zm4.158-.462-1.078 2.477 2.646-.683z" style="fill:#ffafe4;fill-opacity:1;stroke:#000;stroke-width:.5;stroke-miterlimit:4;stroke-dasharray:none;stroke-opacity:1" transform="translate(8.421)"/><path d="m23.908 106.683-9.49.084-2.95 12.62h19.864l-2.95-11.64-.769.61 2.384 9.92h-17.26l2.466-10.399 7.881-.085 1.059-.946z" style="fill:#ffafe4;fill-opacity:1;stroke:#000;stroke-width:.5;stroke-miterlimit:4;stroke-dasharray:none;stroke-opacity:1" transform="translate(8.421)"/><path d="m28.691 103.365-6.776 5.926 1.766 2.016 6.836-5.883zm1.981-.964a2.246 2.246 0 0 0-1.722.729l1.871 2.032c1.753-1.467 1-2.71-.15-2.761z" style="fill:#ffafe4;fill-opacity:1;stroke:#000;stroke-width:.5;stroke-miterlimit:4;stroke-dasharray:none;stroke-opacity:1" transform="translate(8.421)"/></g><g style="fill:#20b8e7;fill-opacity:1;stroke:#000;stroke-width:24.1746;stroke-miterlimit:4;stroke-dasharray:none;stroke-opacity:1"><path d="M147.8 591.1c4.4-.4 8.7-1.1 13-1.8.9-.2 1.9-.2 2.8-.4 2-.4 3.9-.9 5.9-1.4 8.3-1.9 16.5-4.2 24.3-7.3v256.6h612.5V580.2c7.8 3 15.9 5.4 24.3 7.3 2 .4 3.9 1 5.9 1.4.9.2 1.9.3 2.8.4 4.3.7 8.6 1.4 13 1.8 5 .5 10.1.8 15.3.8 10.5 0 20.7-1.1 30.6-2.9v309.2c0 25.3-20.6 45.9-45.9 45.9H147.8c-25.4 0-45.9-20.6-45.9-45.9V588.9c9.9 1.8 20.1 2.9 30.6 2.9 5.2.1 10.3-.2 15.3-.7M990 423.4c0 67.7-54.8 122.5-122.5 122.5S745 491.1 745 423.4c0 67.7-54.8 122.5-122.5 122.5S500 491.1 500 423.4c0 67.7-54.8 122.5-122.5 122.5S255 491.1 255 423.4c0 67.7-54.8 122.5-122.5 122.5S10 491.1 10 423.4l86.1-229.7h807.7z" style="fill:#20b8e7;fill-opacity:1;stroke:#000;stroke-width:24.1746;stroke-miterlimit:4;stroke-dasharray:none;stroke-opacity:1" transform="translate(71.766 99.007) scale(.02068)"/><path d="M477.335 828.74c-17.28-3.164-33.876-10.348-49.139-19.046-9.36-5.335-17.738-12.412-25.412-19.975-7.146-7.044-16.595-19.204-18.942-23.394l-1.558-2.78 24.305-14.835c18.913-11.544 25.484-15.279 29.22-17.378.998 2.33 6.7 12.467 11.909 17.033 10.296 9.025 23.224 15.408 36.458 18.922 8.45 2.243 17.589 2.533 26.206 1.057 12.43-2.128 24.653-7.012 35.14-14.015 7.841-5.236 14.347-12.523 19.747-20.252 4.683-6.703 10.496-18.678 10.601-22.12l.083-2.717-11.762-2.898c-7.282-1.794-11.766-3.24-11.774-3.796a14400.626 14400.626 0 0 1 67.673-40.316c14.809 24.697 25.33 43.214 39.045 67.726-.683.684-15.52-3.332-23.865-6.056-2.341 6.736-1.704 5.499-2.785 8.163-3.814 9.407-7.618 18.934-13.014 27.533-6.684 10.652-14.445 20.84-23.703 29.353-11.272 10.365-24.309 18.973-38.032 25.77-12.867 6.373-26.67 11.352-40.833 13.723-13.009 2.178-26.594 2.675-39.568.299zm-96.18-108.45c-12.501-21.771-28.215-46.565-40.19-65.394.227-.227 5.73.583 12.231 1.8 6.5 1.217 12.053 1.963 12.34 1.658.285-.306 1.859-3.816 3.496-7.801 14.18-34.518 31.903-57.226 57.666-73.887 12.346-7.985 20.327-11.62 34.778-15.845 17.135-5.009 30.401-6.688 47.225-5.977 15.255.644 18.418.367 35.686 5.61 18.087 5.492 25.458 10.966 37.361 18.856 10.678 7.078 26.926 24.33 33.546 33.314 2.834 3.847 5.488 7.107 5.897 7.246.409.138-11.348 7.375-26.126 16.08-14.778 8.707-27.105 15.554-27.394 15.216-.288-.337-2.303-3.866-3.89-5.426-11.491-11.291-24.487-22.356-39.762-27.473-11.043-3.698-23.548-4.028-34.906-1.46-15.44 3.493-30.142 11.699-41.977 22.213-6.637 5.896-9.915 11.422-15.143 21.91-2.58 5.176-3.747 8.405-3.787 10.48l-.059 2.997 7.608 2.04c15.494 4.154 15.532 4.168 14.384 5.315-22.821 13.561-40.154 23.854-64.543 38.447-3.295 2.086-3.19 2.085-4.44.08z" style="fill:#20b8e7;fill-opacity:1;stroke:#000;stroke-width:24.1746;stroke-miterlimit:4;stroke-dasharray:none;stroke-opacity:1" transform="translate(71.766 99.007) scale(.02068)"/></g><g style="display:inline;stroke-width:2"><path d="M-185.756 124.13h29.085a.72.72 0 0 0 .508-.21l4.668-4.668a.717.717 0 0 0 .209-.508h.002V101.15a.718.718 0 0 0-.718-.718h-33.754a.718.718 0 0 0-.718.718v22.263c0 .397.322.718.718.718z" style="clip-rule:evenodd;display:inline;fill:#000;fill-opacity:1;fill-rule:nonzero;stroke-width:.14363;stroke-linejoin:round;stroke-miterlimit:2" transform="matrix(.5 0 0 .5 192.575 53.295)"/><path d="m-151.775 126.68-4.31-1.436a.717.717 0 0 0-.226-.035v-.001h-29.445a.718.718 0 0 0-.718.718v2.872c0 .397.322.719.718.719h29.445a.718.718 0 0 0 .227-.037l4.309-1.437a.718.718 0 0 0 0-1.362z" style="clip-rule:evenodd;display:inline;fill:#222;fill-rule:nonzero;stroke-width:.14363;stroke-linejoin:round;stroke-miterlimit:2" transform="matrix(.5 0 0 .5 192.575 53.295)"/><path d="M-155.593 127.802v-.88l1.32.44zm-1.437.278h-23.699v-1.436h23.7zm-25.135 0h-2.873v-1.436h2.873zm-2.873-26.212h32.317v16.158h-3.95a.718.718 0 0 0-.718.718v3.95h-27.649z" style="clip-rule:evenodd;display:inline;fill:#ff4900;fill-opacity:1;fill-rule:nonzero;stroke-width:.14363;stroke-linejoin:round;stroke-miterlimit:2" transform="matrix(.5 0 0 .5 192.575 53.295)"/><path d="M-155.952 121.678v-2.216h2.216z" style="clip-rule:evenodd;display:inline;fill:#ff4900;fill-opacity:1;fill-rule:nonzero;stroke-width:.14363;stroke-linejoin:round;stroke-miterlimit:2" transform="matrix(.5 0 0 .5 192.575 53.295)"/><path d="M-161.339 104.022h-7.181a.718.718 0 0 0-.718.718v1.077h-1.796a.718.718 0 0 0-.718.719v5.386h-5.745v-2.514h3.95a.718.718 0 0 0 .718-.718v-4.309a.718.718 0 0 0-.718-.718h-8.618a.718.718 0 0 0-.718.718v4.31c0 .396.321.717.718.717h3.232v3.232c0 .396.321.718.718.718h6.463v5.027c0 .397.322.718.718.718h1.796v.718c0 .397.321.719.718.719h7.181a.718.718 0 0 0 .719-.719v-3.59a.718.718 0 0 0-.719-.718h-7.181a.718.718 0 0 0-.718.718v1.436h-1.077v-4.309h1.077v.718c0 .397.321.718.718.718h7.181a.718.718 0 0 0 .719-.718v-3.59a.718.718 0 0 0-.719-.719h-7.181a.718.718 0 0 0-.718.718v1.437h-1.077v-4.668h1.077v1.077c0 .397.321.718.718.718h7.181a.718.718 0 0 0 .719-.718v-3.59a.718.718 0 0 0-.719-.719zm-20.108 3.95v-2.873h7.182v2.873zm13.645 8.977h5.745v2.154h-5.745zm0-5.745h5.745v2.154h-5.745zm5.745-3.591h-5.745v-2.155h5.745z" style="clip-rule:evenodd;display:inline;fill:#222;fill-rule:nonzero;stroke-width:.14363;stroke-linejoin:round;stroke-miterlimit:2" transform="matrix(.5 0 0 .5 192.575 53.295)"/><path d="M-182.883 115.153h5.386v1.436h-5.386zm0 2.155h5.386v1.436h-5.386zm0 2.154h9.336v1.436h-9.336zm6.104-4.309h1.436v1.436h-1.436zm17.595-11.131h1.795v1.436h-1.795zm2.873 0h1.795v1.436h-1.795zm-2.873 2.155h1.795v1.436h-1.795zm2.873 0h1.795v1.436h-1.795zm-2.873 2.154h1.795v1.436h-1.795zm2.873 0h1.795v1.436h-1.795zm-2.873 2.154h1.795v1.436h-1.795zm2.873 0h1.795v1.436h-1.795z" style="clip-rule:evenodd;display:inline;fill:#222;fill-rule:evenodd;stroke-width:.14363;stroke-linejoin:round;stroke-miterlimit:2" transform="matrix(.5 0 0 .5 192.575 53.295)"/></g><g style="fill:#f60;fill-opacity:1;stroke:#000;stroke-width:.900108;stroke-miterlimit:4;stroke-dasharray:none;stroke-opacity:1"><path d="M25.2 216.1h19.5v10.3h17.2l11.4 163.7h14.8l11.3-163.7h17.3v-10.3h19.6v-18.7H25.2z" class="st0" style="fill:#f60;fill-opacity:1;stroke:#000;stroke-width:8.77113;stroke-miterlimit:4;stroke-dasharray:none;stroke-opacity:1" transform="matrix(.05681 0 0 .0572 49.274 44.465)"/><path d="M-231.515 106.962c.02-.195.031-.39.062-.585.072-.503.226-.975.441-1.437a5.92 5.92 0 0 1 1.15-1.642 7.233 7.233 0 0 1 1.95-1.426 6.648 6.648 0 0 1 1.96-.636c.184-.031.379-.052.564-.01.256.05.43.194.472.461v.01l.308-.061a2.308 2.308 0 0 1 1.057.072.915.915 0 0 1 .38.236c.164.174.205.38.184.605l-.03.226c-.032-.02-.062-.03-.083-.041-.349-.174-.698-.174-1.057-.041a2.13 2.13 0 0 0-.862.636c-.308.37-.503.8-.636 1.262a6.322 6.322 0 0 0-.205 1.068v.061l.308-.061c.995-.226 1.95-.565 2.863-1.026a11.178 11.178 0 0 0 2.586-1.786c1.17-1.016 2.083-2.247 2.801-3.623.513-.995.914-2.032 1.18-3.12.113-.461.206-.933.257-1.405v-.031h.01c.154.123.267.287.36.462.143.297.225.615.266.944.02.185.031.37.052.564v.421c-.01.123-.01.236-.02.36-.052.594-.155 1.18-.299 1.764a11.886 11.886 0 0 1-1.036 2.668 12.25 12.25 0 0 1-2.925 3.644 12.15 12.15 0 0 1-4.217 2.288 6.898 6.898 0 0 0-.431.133v.103h.061c.41-.01.821-.072 1.221-.185.719-.184 1.406-.482 2.063-.83.821-.442 1.58-.966 2.288-1.571a10.507 10.507 0 0 0 1.786-1.909c.36-.503.667-1.047.872-1.631.052-.154.093-.298.144-.462.01.02.02.03.03.051.073.144.124.298.155.452.092.44.072.882-.01 1.323a6.007 6.007 0 0 1-.565 1.663 8.153 8.153 0 0 1-1.478 2.063 10.024 10.024 0 0 1-1.785 1.446 13.376 13.376 0 0 1-3.356 1.52c-.76.225-1.519.4-2.299.523-.092.01-.092.02-.082.113.01 0 .03.01.041.01.257 0 .503.02.76.01a8.317 8.317 0 0 0 2.062-.328 11.123 11.123 0 0 0 2.74-1.221 12.106 12.106 0 0 0 1.97-1.488c.011-.01.011-.01.021-.01-.04.42-.205.943-.4 1.323a4.67 4.67 0 0 1-1.262 1.53c-.606.502-1.283.871-2.001 1.159-.832.338-1.694.554-2.586.677-.637.092-1.273.123-1.91.113a9.566 9.566 0 0 1-1.63-.175 7.062 7.062 0 0 1-1.694-.533 4.259 4.259 0 0 1-1.221-.821 3.297 3.297 0 0 1-.719-1.037c-.236-.543-.43-1.108-.513-1.693-.03-.215-.051-.441-.072-.667-.04-.164-.04-.318-.04-.472z" style="fill:#f60;fill-opacity:1;stroke:#000;stroke-width:.900108;stroke-miterlimit:4;stroke-dasharray:none;stroke-opacity:1" transform="matrix(.55362 0 0 .55736 177.974 -7.06)"/></g><path d="m81.224 59.606-2.018 3.538h1.3v3.758h1.495v-3.758h1.3zm0-2.703-2.018-3.538h1.3v-3.758h1.495v3.758h1.3z" style="fill:#ffe000;fill-opacity:1;stroke:#000;stroke-width:.499999;stroke-miterlimit:4;stroke-dasharray:none;stroke-opacity:1" transform="rotate(90 81.254 58.254)"/></svg>