<svg xmlns="http://www.w3.org/2000/svg" xml:space="preserve" style="enable-background:new 0 0 122.88 122.89" viewBox="0 0 122.88 122.89"><path fill="#ccc" d="M50.298 7.283A55.381 55.381 0 0 1 56.13 6.4a56.363 56.363 0 0 1 5.877-.261 1.971 1.971 0 0 1 .675 3.816c-8.235 3.24-14.823 9.279-18.864 16.758a36.694 36.694 0 0 0-3.681 24.912l.009.063c2.061 9.954 7.947 18.135 15.822 23.319 7.866 5.184 17.703 7.362 27.657 5.328l.063-.01c7.164-1.484 13.4-4.94 18.27-9.701a37.031 37.031 0 0 0 10.197-18.144 1.967 1.967 0 0 1 3.86.126c2.377 14.58-1.214 28.863-9.053 40.239-7.803 11.321-19.827 19.772-34.362 22.76-14.958 3.078-29.745-.198-41.562-7.974C19.212 99.83 10.365 87.545 7.287 72.587c-3.006-14.607.045-29.052 7.434-40.725 7.425-11.71 19.215-20.646 33.642-24.147.279-.072.603-.144.954-.225h.009z" style="stroke-width:.899998"/></svg>