<?xml version="1.0" encoding="UTF-8" standalone="no"?>
<svg
   xmlns:dc="http://purl.org/dc/elements/1.1/"
   xmlns:cc="http://creativecommons.org/ns#"
   xmlns:rdf="http://www.w3.org/1999/02/22-rdf-syntax-ns#"
   xmlns:svg="http://www.w3.org/2000/svg"
   xmlns="http://www.w3.org/2000/svg"
   xmlns:sodipodi="http://sodipodi.sourceforge.net/DTD/sodipodi-0.dtd"
   xmlns:inkscape="http://www.inkscape.org/namespaces/inkscape"
   width="200"
   height="200"
   viewBox="0 0 52.916668 52.916666"
   version="1.1"
   id="svg8"
   inkscape:version="1.0.2-2 (e86c870879, 2021-01-15)"
   sodipodi:docname="adultism.svg">
  <defs
     id="defs2">
    <rect
       x="-242.79301"
       y="132.68447"
       width="120.51771"
       height="26.855208"
       id="rect954" />
    <inkscape:path-effect
       effect="envelope"
       id="path-effect4658"
       is_visible="true"
       yy="true"
       xx="true"
       bendpath1="m -199.08406,108.42369 h 7.0057"
       bendpath2="m -192.07836,108.42369 v 6.75242"
       bendpath3="m -199.08406,115.17611 h 7.0057"
       bendpath4="m -199.08406,108.42369 v 6.75242" />
    <inkscape:path-effect
       effect="bend_path"
       id="path-effect4656"
       is_visible="true"
       bendpath="m -192.00142,114.60623 c 2.12577,-0.53066 4.48261,0.85111 7.0057,0"
       prop_scale="1"
       scale_y_rel="false"
       vertical="false"
       bendpath-nodetypes="cc" />
    <inkscape:path-effect
       effect="bounding_box"
       id="path-effect4654"
       is_visible="true"
       linkedpath=""
       visualbounds="false" />
  </defs>
  <sodipodi:namedview
     id="base"
     pagecolor="#ffffff"
     bordercolor="#666666"
     borderopacity="1.0"
     inkscape:pageopacity="0.0"
     inkscape:pageshadow="2"
     inkscape:zoom="3.25"
     inkscape:cx="122.93267"
     inkscape:cy="101.24538"
     inkscape:document-units="mm"
     inkscape:current-layer="layer1"
     showgrid="false"
     fit-margin-top="0"
     fit-margin-left="0"
     fit-margin-right="0"
     fit-margin-bottom="0"
     inkscape:window-width="1280"
     inkscape:window-height="961"
     inkscape:window-x="-8"
     inkscape:window-y="-8"
     inkscape:window-maximized="1"
     showguides="false"
     inkscape:object-nodes="true"
     units="px"
     inkscape:snap-page="true"
     inkscape:document-rotation="0" />
  <metadata
     id="metadata5">
    <rdf:RDF>
      <cc:Work
         rdf:about="">
        <dc:format>image/svg+xml</dc:format>
        <dc:type
           rdf:resource="http://purl.org/dc/dcmitype/StillImage" />
        <dc:title />
      </cc:Work>
    </rdf:RDF>
  </metadata>
  <g
     inkscape:label="Layer 1"
     inkscape:groupmode="layer"
     id="layer1"
     transform="translate(249.80447,-91.409467)">
    <rect
       y="91.40947"
       x="-249.80447"
       height="52.916668"
       width="52.916668"
       id="rect5238-5"
       style="fill:#222222;fill-opacity:1;fill-rule:nonzero;stroke:none;stroke-width:0.5;stroke-linecap:butt;stroke-linejoin:round;stroke-miterlimit:4;stroke-dasharray:none;stroke-dashoffset:0;stroke-opacity:0.909449;paint-order:normal"
       rx="3.96875"
       ry="3.96875" />
    <rect
       style="fill:#6b0000;fill-opacity:1;fill-rule:nonzero;stroke:none;stroke-width:0.5;stroke-linecap:butt;stroke-linejoin:round;stroke-miterlimit:4;stroke-dasharray:none;stroke-dashoffset:0;stroke-opacity:0.909449;paint-order:normal"
       id="rect5240-3"
       width="47.625"
       height="47.625"
       x="-247.15863"
       y="94.055298"
       rx="2.6458333"
       ry="2.6458333" />
    <path
       inkscape:connector-curvature="0"
       id="path5244-6"
       d="m -248.34926,128.45114 v 8.33437 c 0,3.07816 2.47808,5.55625 5.55625,5.55625 h 38.89375 c 3.07816,0 5.55625,-2.47809 5.55625,-5.55625 v -8.33437 z"
       style="fill:#222222;fill-opacity:1;fill-rule:nonzero;stroke:none;stroke-width:0.5;stroke-linecap:butt;stroke-linejoin:round;stroke-miterlimit:4;stroke-dasharray:none;stroke-dashoffset:0;stroke-opacity:0.909449;paint-order:normal" />
    <g
       aria-label="ADULTISM"
       transform="scale(0.94747611,1.0554356)"
       id="text3169"
       style="font-weight:bold;font-size:9.17511px;line-height:1.25;font-family:Montserrat;-inkscape-font-specification:'Montserrat Bold';fill:#ffffff;stroke-width:0.229379">
      <path
         d="m -255.50007,130.3658 h -2.98191 l -0.56886,1.37627 h -1.52307 l 2.86264,-6.42258 h 1.46801 l 2.87181,6.42258 h -1.55977 z m -0.46793,-1.12854 -1.01844,-2.45893 -1.01844,2.45893 z"
         style="fill:#ffffff;stroke-width:0.229379"
         id="path3747" />
      <path
         d="m -252.70168,125.31949 h 2.91769 q 1.04596,0 1.8442,0.4037 0.80741,0.39453 1.24781,1.11937 0.44958,0.72483 0.44958,1.68822 0,0.96338 -0.44958,1.68822 -0.4404,0.72483 -1.24781,1.12854 -0.79824,0.39453 -1.8442,0.39453 h -2.91769 z m 2.84429,5.20229 q 0.96339,0 1.53224,-0.53216 0.57803,-0.54133 0.57803,-1.45884 0,-0.91751 -0.57803,-1.44967 -0.56885,-0.54133 -1.53224,-0.54133 h -1.35792 v 3.982 z"
         style="fill:#ffffff;stroke-width:0.229379"
         id="path3749" />
      <path
         d="m -242.26959,131.85217 q -1.37627,0 -2.14698,-0.76154 -0.76153,-0.76153 -0.76153,-2.1745 v -3.59664 h 1.48637 v 3.54159 q 0,1.72492 1.43131,1.72492 0.69731,0 1.06432,-0.41288 0.367,-0.42205 0.367,-1.31204 v -3.54159 h 1.46802 v 3.59664 q 0,1.41297 -0.77071,2.1745 -0.76153,0.76154 -2.1378,0.76154 z"
         style="fill:#ffffff;stroke-width:0.229379"
         id="path3751" />
      <path
         d="m -237.89308,125.31949 h 1.48637 v 5.21146 h 3.22046 v 1.21112 h -4.70683 z"
         style="fill:#ffffff;stroke-width:0.229379"
         id="path3753" />
      <path
         d="m -231.61733,126.5306 h -2.05522 v -1.21111 h 5.59682 v 1.21111 h -2.05523 v 5.21147 h -1.48637 z"
         style="fill:#ffffff;stroke-width:0.229379"
         id="path3755" />
      <path
         d="m -227.27752,125.31949 h 1.48637 v 6.42258 h -1.48637 z"
         style="fill:#ffffff;stroke-width:0.229379"
         id="path3757" />
      <path
         d="m -222.15782,131.85217 q -0.76153,0 -1.47719,-0.20186 -0.70648,-0.21102 -1.13771,-0.54133 l 0.50463,-1.11936 q 0.41288,0.30278 0.98174,0.48628 0.56885,0.1835 1.13771,0.1835 0.63308,0 0.93586,-0.1835 0.30278,-0.19268 0.30278,-0.50463 0,-0.22938 -0.1835,-0.37618 -0.17433,-0.15598 -0.45876,-0.24773 -0.27525,-0.0918 -0.75236,-0.20185 -0.73401,-0.17433 -1.20194,-0.34865 -0.46793,-0.17433 -0.80741,-0.55969 -0.3303,-0.38535 -0.3303,-1.02761 0,-0.55968 0.30278,-1.00926 0.30278,-0.45876 0.90833,-0.72483 0.61474,-0.26608 1.49555,-0.26608 0.61473,0 1.20194,0.1468 0.5872,0.1468 1.02761,0.42205 l -0.45876,1.12854 q -0.88998,-0.50463 -1.77997,-0.50463 -0.62391,0 -0.92668,0.20185 -0.29361,0.20186 -0.29361,0.53216 0,0.3303 0.33948,0.49546 0.34866,0.15597 1.05514,0.31195 0.73401,0.17433 1.20194,0.34865 0.46793,0.17433 0.79823,0.55051 0.33948,0.37618 0.33948,1.01844 0,0.5505 -0.31195,1.00926 -0.30278,0.44958 -0.91751,0.71566 -0.61474,0.26608 -1.49555,0.26608 z"
         style="fill:#ffffff;stroke-width:0.229379"
         id="path3759" />
      <path
         d="m -212.56984,131.74207 -0.009,-3.85355 -1.89007,3.17459 h -0.66979 l -1.88089,-3.09201 v 3.77097 h -1.39462 v -6.42258 h 1.22946 l 2.40388,3.99117 2.36718,-3.99117 h 1.22029 l 0.0183,6.42258 z"
         style="fill:#ffffff;stroke-width:0.229379"
         id="path3761" />
    </g>
    <ellipse
       style="fill:#000000;fill-opacity:1;stroke-width:0.264583"
       id="path3732"
       cx="-223.46825"
       cy="110.7851"
       rx="15.264422"
       ry="15.305128" />
    <ellipse
       style="fill:#6b0000;fill-opacity:1;stroke-width:0.264583"
       id="path3734"
       cx="-223.59036"
       cy="110.94793"
       rx="12.45577"
       ry="12.618589" />
    <g
       aria-label="18"
       transform="scale(0.96236732,1.0391043)"
       id="text3738"
       style="font-weight:bold;font-size:19.7078px;line-height:1.25;font-family:Montserrat;-inkscape-font-specification:'Montserrat Bold';stroke-width:0.492696">
      <path
         d="m -236.03325,99.835781 v 13.795459 h -3.19266 v -11.23345 h -2.75909 v -2.562009 z"
         style="stroke-width:0.492696"
         id="path3742" />
      <path
         d="m -224.18889,106.37877 q 1.0248,0.5124 1.55692,1.34013 0.55181,0.82773 0.55181,1.91166 0,1.281 -0.72919,2.24669 -0.72918,0.94597 -2.04961,1.47808 -1.32042,0.5124 -3.05471,0.5124 -1.73428,0 -3.0547,-0.5124 -1.30072,-0.53211 -2.02991,-1.47808 -0.70948,-0.96569 -0.70948,-2.24669 0,-1.08393 0.53211,-1.91166 0.55182,-0.82773 1.55692,-1.34013 -0.76861,-0.47299 -1.18247,-1.18247 -0.41386,-0.72919 -0.41386,-1.65545 0,-1.20218 0.67006,-2.08903 0.67007,-0.88685 1.87224,-1.35984 1.20218,-0.492693 2.75909,-0.492693 1.57663,0 2.7788,0.492693 1.22189,0.47299 1.89195,1.35984 0.67007,0.88685 0.67007,2.08903 0,0.92626 -0.41387,1.65545 -0.41386,0.70948 -1.20217,1.18247 z m -3.72478,-4.43425 q -0.96568,0 -1.55691,0.47298 -0.57153,0.45328 -0.57153,1.2613 0,0.78831 0.57153,1.24159 0.57152,0.45328 1.55691,0.45328 0.98539,0 1.57663,-0.45328 0.59123,-0.45328 0.59123,-1.24159 0,-0.80802 -0.59123,-1.2613 -0.59124,-0.47298 -1.57663,-0.47298 z m 0,9.57799 q 1.20218,0 1.89195,-0.53211 0.70948,-0.55182 0.70948,-1.45838 0,-0.90656 -0.70948,-1.43867 -0.68977,-0.53211 -1.89195,-0.53211 -1.18246,0 -1.87224,0.53211 -0.68977,0.53211 -0.68977,1.43867 0,0.92627 0.68977,1.45838 0.68978,0.53211 1.87224,0.53211 z"
         style="stroke-width:0.492696"
         id="path3744" />
    </g>
    <rect
       style="fill:#000000;fill-opacity:1;stroke-width:0.264583"
       id="rect3740"
       width="29.307693"
       height="3.0121794"
       x="-94.102592"
       y="235.24969"
       rx="0"
       ry="0"
       transform="rotate(45)" />
  </g>
</svg>
