<?xml version="1.0" encoding="UTF-8" standalone="no"?>
<svg
   xmlns:dc="http://purl.org/dc/elements/1.1/"
   xmlns:cc="http://creativecommons.org/ns#"
   xmlns:rdf="http://www.w3.org/1999/02/22-rdf-syntax-ns#"
   xmlns:svg="http://www.w3.org/2000/svg"
   xmlns="http://www.w3.org/2000/svg"
   xmlns:sodipodi="http://sodipodi.sourceforge.net/DTD/sodipodi-0.dtd"
   xmlns:inkscape="http://www.inkscape.org/namespaces/inkscape"
   width="200"
   height="200"
   viewBox="0 0 52.916668 52.916666"
   version="1.1"
   id="svg8"
   inkscape:version="1.0.2-2 (e86c870879, 2021-01-15)"
   sodipodi:docname="cis.svg">
  <defs
     id="defs2">
    <rect
       x="-297.69405"
       y="129.24488"
       width="41.936458"
       height="10.847917"
       id="rect860" />
    <inkscape:path-effect
       effect="envelope"
       id="path-effect4658"
       is_visible="true"
       yy="true"
       xx="true"
       bendpath1="m -199.08406,108.42369 h 7.0057"
       bendpath2="m -192.07836,108.42369 v 6.75242"
       bendpath3="m -199.08406,115.17611 h 7.0057"
       bendpath4="m -199.08406,108.42369 v 6.75242" />
    <inkscape:path-effect
       effect="bend_path"
       id="path-effect4656"
       is_visible="true"
       bendpath="m -192.00142,114.60623 c 2.12577,-0.53066 4.48261,0.85111 7.0057,0"
       prop_scale="1"
       scale_y_rel="false"
       vertical="false"
       bendpath-nodetypes="cc" />
    <inkscape:path-effect
       effect="bounding_box"
       id="path-effect4654"
       is_visible="true"
       linkedpath=""
       visualbounds="false" />
  </defs>
  <sodipodi:namedview
     id="base"
     pagecolor="#ffffff"
     bordercolor="#666666"
     borderopacity="1.0"
     inkscape:pageopacity="0.0"
     inkscape:pageshadow="2"
     inkscape:zoom="2.14"
     inkscape:cx="105.21275"
     inkscape:cy="113.32281"
     inkscape:document-units="mm"
     inkscape:current-layer="layer1"
     showgrid="false"
     fit-margin-top="0"
     fit-margin-left="0"
     fit-margin-right="0"
     fit-margin-bottom="0"
     inkscape:window-width="1280"
     inkscape:window-height="961"
     inkscape:window-x="-8"
     inkscape:window-y="-8"
     inkscape:window-maximized="1"
     showguides="false"
     inkscape:object-nodes="true"
     units="px"
     inkscape:snap-page="true"
     inkscape:document-rotation="0"
     inkscape:snap-grids="false" />
  <metadata
     id="metadata5">
    <rdf:RDF>
      <cc:Work
         rdf:about="">
        <dc:format>image/svg+xml</dc:format>
        <dc:type
           rdf:resource="http://purl.org/dc/dcmitype/StillImage" />
        <dc:title />
      </cc:Work>
    </rdf:RDF>
  </metadata>
  <g
     inkscape:label="Layer 1"
     inkscape:groupmode="layer"
     id="layer1"
     transform="translate(249.80447,-91.409467)">
    <rect
       ry="3.96875"
       rx="3.96875"
       style="fill:#222222;fill-opacity:1;fill-rule:nonzero;stroke:none;stroke-width:0.5;stroke-linecap:butt;stroke-linejoin:round;stroke-miterlimit:4;stroke-dasharray:none;stroke-dashoffset:0;stroke-opacity:0.909449;paint-order:normal"
       id="rect5322"
       width="52.916668"
       height="52.916668"
       x="-249.80447"
       y="91.40947" />
    <rect
       ry="2.6458333"
       rx="2.6458333"
       y="94.055298"
       x="-247.15863"
       height="47.625"
       width="47.625"
       id="rect5324"
       style="fill:#797979;fill-opacity:1;fill-rule:nonzero;stroke:none;stroke-width:0.5;stroke-linecap:butt;stroke-linejoin:round;stroke-miterlimit:4;stroke-dasharray:none;stroke-dashoffset:0;stroke-opacity:0.909449;paint-order:normal" />
    <path
       inkscape:connector-curvature="0"
       id="path5326"
       d="m -248.34926,128.45114 v 8.33437 c 0,3.07817 2.47809,5.55625 5.55625,5.55625 h 38.89375 c 3.07816,0 5.55625,-2.47808 5.55625,-5.55625 v -8.33437 z"
       style="fill:#222222;fill-opacity:1;fill-rule:nonzero;stroke:none;stroke-width:0.5;stroke-linecap:butt;stroke-linejoin:round;stroke-miterlimit:4;stroke-dasharray:none;stroke-dashoffset:0;stroke-opacity:0.909449;paint-order:normal" />
    <text
       xml:space="preserve"
       id="text858"
       style="fill:black;fill-opacity:1;line-height:1.25;stroke:none;font-family:sans-serif;font-style:normal;font-weight:normal;font-size:10.58333333px;white-space:pre;shape-inside:url(#rect860);" />
    <g
       aria-label="CIS"
       transform="scale(0.96852094,1.0325022)"
       id="text1514"
       style="font-style:normal;font-variant:normal;font-weight:bold;font-stretch:normal;font-size:15.0284px;line-height:1.25;font-family:Montserrat;-inkscape-font-specification:'Montserrat Bold';fill:#ffffff;stroke-width:0.37571">
      <path
         d="m -237.59623,137.47146 q -1.60804,0 -2.91551,-0.6913 -1.29244,-0.70634 -2.04386,-1.93867 -0.73639,-1.24735 -0.73639,-2.81031 0,-1.56295 0.73639,-2.79528 0.75142,-1.24736 2.04386,-1.93866 1.30747,-0.70634 2.93054,-0.70634 1.36759,0 2.46466,0.48091 1.1121,0.48091 1.86352,1.38261 l -1.56295,1.44273 q -1.06702,-1.23233 -2.645,-1.23233 -0.97685,0 -1.7433,0.43582 -0.76644,0.4208 -1.20227,1.18725 -0.42079,0.76645 -0.42079,1.74329 0,0.97685 0.42079,1.7433 0.43583,0.76645 1.20227,1.20227 0.76645,0.42079 1.7433,0.42079 1.57798,0 2.645,-1.24735 l 1.56295,1.44272 q -0.75142,0.91674 -1.86352,1.39764 -1.1121,0.48091 -2.47969,0.48091 z"
         style="font-style:normal;font-variant:normal;font-weight:bold;font-stretch:normal;font-family:Montserrat;-inkscape-font-specification:'Montserrat Bold';fill:#ffffff;stroke-width:0.37571"
         id="path3955" />
      <path
         d="m -231.61493,126.77124 h 2.43461 v 10.51988 h -2.43461 z"
         style="font-style:normal;font-variant:normal;font-weight:bold;font-stretch:normal;font-family:Montserrat;-inkscape-font-specification:'Montserrat Bold';fill:#ffffff;stroke-width:0.37571"
         id="path3957" />
      <path
         d="m -223.22909,137.47146 q -1.24736,0 -2.41957,-0.33062 -1.15719,-0.34565 -1.86353,-0.88668 l 0.82657,-1.83346 q 0.67627,0.49594 1.60804,0.7965 0.93176,0.30057 1.86352,0.30057 1.03696,0 1.53289,-0.30057 0.49594,-0.31559 0.49594,-0.82656 0,-0.37571 -0.30057,-0.61616 -0.28554,-0.25549 -0.75142,-0.40577 -0.45085,-0.15028 -1.23233,-0.33062 -1.20227,-0.28554 -1.96872,-0.57108 -0.76644,-0.28554 -1.3225,-0.91674 -0.54102,-0.63119 -0.54102,-1.68318 0,-0.91673 0.49594,-1.65312 0.49594,-0.75142 1.48781,-1.18725 1.0069,-0.43582 2.44963,-0.43582 1.0069,0 1.96872,0.24046 0.96182,0.24045 1.68318,0.6913 l -0.75142,1.8485 q -1.45775,-0.82657 -2.91551,-0.82657 -1.02193,0 -1.51787,0.33063 -0.48091,0.33062 -0.48091,0.87165 0,0.54102 0.55606,0.81153 0.57107,0.25548 1.72826,0.51096 1.20227,0.28554 1.96872,0.57108 0.76645,0.28554 1.30747,0.90171 0.55605,0.61616 0.55605,1.66815 0,0.9017 -0.51096,1.65312 -0.49594,0.7364 -1.50284,1.17222 -1.0069,0.43582 -2.44963,0.43582 z"
         style="font-style:normal;font-variant:normal;font-weight:bold;font-stretch:normal;font-family:Montserrat;-inkscape-font-specification:'Montserrat Bold';fill:#ffffff;stroke-width:0.37571"
         id="path3959" />
    </g>
    <ellipse
       style="fill:#000000;fill-opacity:1;stroke-width:0.264583"
       id="path1518"
       cx="-233.73103"
       cy="113.76676"
       rx="6.6807289"
       ry="6.7468748" />
    <ellipse
       style="fill:#797979;fill-opacity:1;stroke-width:0.264583"
       id="path1523"
       cx="-233.6649"
       cy="113.8329"
       rx="4.7624998"
       ry="4.8286457" />
    <rect
       style="fill:#000000;fill-opacity:1;stroke-width:0.264583"
       id="rect1529"
       width="1.7197917"
       height="11.509375"
       x="-85.079399"
       y="229.53316"
       transform="rotate(45)" />
    <rect
       style="fill:#000000;fill-opacity:1;stroke-width:0.264583"
       id="rect1547"
       width="5.2916665"
       height="1.5875"
       x="-226.54027"
       y="101.77281" />
    <rect
       style="fill:#000000;fill-opacity:1;stroke-width:0.264583"
       id="rect1547-3"
       width="5.2916665"
       height="1.5875"
       x="101.77281"
       y="221.2486"
       transform="rotate(90)" />
    <ellipse
       style="fill:#000000;fill-opacity:1;stroke-width:0.264583"
       id="path1518-4"
       cx="-210.77844"
       cy="107.01988"
       rx="6.6807289"
       ry="6.7468748" />
    <ellipse
       style="fill:#797979;fill-opacity:1;stroke-width:0.264583"
       id="path1523-0"
       cx="-210.64613"
       cy="107.01989"
       rx="4.7624998"
       ry="4.8286457" />
    <rect
       style="fill:#000000;fill-opacity:1;stroke-width:0.170153"
       id="rect1609"
       width="1.9563214"
       height="7.917583"
       x="-211.65508"
       y="112.63729"
       rx="0"
       ry="0" />
    <rect
       style="fill:#000000;fill-opacity:1;stroke-width:0.264583"
       id="rect1613"
       width="7.2547016"
       height="2.2048602"
       x="-214.38445"
       y="116.01856"
       rx="0"
       ry="0" />
  </g>
</svg>
