<?xml version="1.0" encoding="UTF-8" standalone="no"?>
<svg
   xmlns:dc="http://purl.org/dc/elements/1.1/"
   xmlns:cc="http://creativecommons.org/ns#"
   xmlns:rdf="http://www.w3.org/1999/02/22-rdf-syntax-ns#"
   xmlns:svg="http://www.w3.org/2000/svg"
   xmlns="http://www.w3.org/2000/svg"
   xmlns:sodipodi="http://sodipodi.sourceforge.net/DTD/sodipodi-0.dtd"
   xmlns:inkscape="http://www.inkscape.org/namespaces/inkscape"
   width="200"
   height="200"
   viewBox="0 0 52.916668 52.916666"
   version="1.1"
   id="svg8"
   inkscape:version="1.0.2-2 (e86c870879, 2021-01-15)"
   sodipodi:docname="homo.svg">
  <defs
     id="defs2">
    <rect
       x="-243.72409"
       y="131.82062"
       width="81.563263"
       height="24.676347"
       id="rect928" />
    <inkscape:path-effect
       effect="envelope"
       id="path-effect4658"
       is_visible="true"
       yy="true"
       xx="true"
       bendpath1="m -199.08406,108.42369 h 7.0057"
       bendpath2="m -192.07836,108.42369 v 6.75242"
       bendpath3="m -199.08406,115.17611 h 7.0057"
       bendpath4="m -199.08406,108.42369 v 6.75242" />
    <inkscape:path-effect
       effect="bend_path"
       id="path-effect4656"
       is_visible="true"
       bendpath="m -192.00142,114.60623 c 2.12577,-0.53066 4.48261,0.85111 7.0057,0"
       prop_scale="1"
       scale_y_rel="false"
       vertical="false"
       bendpath-nodetypes="cc" />
    <inkscape:path-effect
       effect="bounding_box"
       id="path-effect4654"
       is_visible="true"
       linkedpath=""
       visualbounds="false" />
  </defs>
  <sodipodi:namedview
     id="base"
     pagecolor="#ffffff"
     bordercolor="#666666"
     borderopacity="1.0"
     inkscape:pageopacity="0.0"
     inkscape:pageshadow="2"
     inkscape:zoom="3.99"
     inkscape:cx="97.243508"
     inkscape:cy="131.05223"
     inkscape:document-units="mm"
     inkscape:current-layer="layer1"
     showgrid="false"
     fit-margin-top="0"
     fit-margin-left="0"
     fit-margin-right="0"
     fit-margin-bottom="0"
     inkscape:window-width="1280"
     inkscape:window-height="961"
     inkscape:window-x="-8"
     inkscape:window-y="-8"
     inkscape:window-maximized="1"
     showguides="false"
     inkscape:object-nodes="true"
     units="px"
     inkscape:snap-page="true"
     inkscape:document-rotation="0" />
  <metadata
     id="metadata5">
    <rdf:RDF>
      <cc:Work
         rdf:about="">
        <dc:format>image/svg+xml</dc:format>
        <dc:type
           rdf:resource="http://purl.org/dc/dcmitype/StillImage" />
        <dc:title />
      </cc:Work>
    </rdf:RDF>
  </metadata>
  <g
     inkscape:label="Layer 1"
     inkscape:groupmode="layer"
     id="layer1"
     transform="translate(249.80447,-91.409467)">
    <rect
       ry="3.96875"
       rx="3.96875"
       style="fill:#222222;fill-opacity:1;fill-rule:nonzero;stroke:none;stroke-width:0.5;stroke-linecap:butt;stroke-linejoin:round;stroke-miterlimit:4;stroke-dasharray:none;stroke-dashoffset:0;stroke-opacity:0.909449;paint-order:normal"
       id="rect5252-2"
       width="52.916668"
       height="52.916668"
       x="-249.80447"
       y="91.40947" />
    <rect
       ry="2.6458333"
       rx="2.6458333"
       y="94.055298"
       x="-247.15863"
       height="47.625"
       width="47.625"
       id="rect5254-7"
       style="fill:#0de961;fill-opacity:1;fill-rule:nonzero;stroke:none;stroke-width:0.5;stroke-linecap:butt;stroke-linejoin:round;stroke-miterlimit:4;stroke-dasharray:none;stroke-dashoffset:0;stroke-opacity:0.909449;paint-order:normal" />
    <path
       inkscape:connector-curvature="0"
       id="path5258-9"
       d="m -248.34926,128.45114 v 8.33437 c 0,3.07817 2.47809,5.55625 5.55625,5.55625 h 38.89375 c 3.07816,0 5.55625,-2.47808 5.55625,-5.55625 v -8.33437 z"
       style="fill:#222222;fill-opacity:1;fill-rule:nonzero;stroke:none;stroke-width:0.5;stroke-linecap:butt;stroke-linejoin:round;stroke-miterlimit:4;stroke-dasharray:none;stroke-dashoffset:0;stroke-opacity:0.909449;paint-order:normal" />
    <g
       aria-label="HOMO"
       transform="scale(0.94911348,1.0536148)"
       id="text9541"
       style="font-weight:bold;font-size:12.993px;line-height:1.25;font-family:Montserrat;-inkscape-font-specification:'Montserrat Bold';fill:#ffffff;stroke-width:0.324825">
      <path
         d="m -248.63406,124.21017 v 9.0951 h -2.10487 v -3.72899 h -4.13177 v 3.72899 h -2.10487 v -9.0951 h 2.10487 v 3.58607 h 4.13177 v -3.58607 z"
         style="fill:#ffffff;stroke-width:0.324825"
         id="path10223" />
      <path
         d="m -242.07261,133.46118 q -1.41624,0 -2.55962,-0.61067 -1.1304,-0.61067 -1.78005,-1.67609 -0.63665,-1.07842 -0.63665,-2.4167 0,-1.33828 0.63665,-2.40371 0.64965,-1.07842 1.78005,-1.68909 1.14338,-0.61067 2.55962,-0.61067 1.41623,0 2.54662,0.61067 1.1304,0.61067 1.78005,1.68909 0.64965,1.06543 0.64965,2.40371 0,1.33828 -0.64965,2.4167 -0.64965,1.06542 -1.78005,1.67609 -1.13039,0.61067 -2.54662,0.61067 z m 0,-1.79303 q 0.80556,0 1.45521,-0.3638 0.64965,-0.3768 1.01346,-1.03944 0.37679,-0.66265 0.37679,-1.50719 0,-0.84455 -0.37679,-1.50719 -0.36381,-0.66264 -1.01346,-1.02645 -0.64965,-0.37679 -1.45521,-0.37679 -0.80557,0 -1.45522,0.37679 -0.64965,0.36381 -1.02645,1.02645 -0.3638,0.66264 -0.3638,1.50719 0,0.84454 0.3638,1.50719 0.3768,0.66264 1.02645,1.03944 0.64965,0.3638 1.45522,0.3638 z"
         style="fill:#ffffff;stroke-width:0.324825"
         id="path10225" />
      <path
         d="m -227.23461,133.30527 -0.013,-5.45706 -2.67656,4.49558 h -0.94849 l -2.66356,-4.37865 v 5.34013 h -1.97494 v -9.0951 h 1.74106 l 3.40417,5.65195 3.35219,-5.65195 h 1.72807 l 0.026,9.0951 z"
         style="fill:#ffffff;stroke-width:0.324825"
         id="path10227" />
      <path
         d="m -218.69821,133.46118 q -1.41624,0 -2.55962,-0.61067 -1.13039,-0.61067 -1.78004,-1.67609 -0.63666,-1.07842 -0.63666,-2.4167 0,-1.33828 0.63666,-2.40371 0.64965,-1.07842 1.78004,-1.68909 1.14338,-0.61067 2.55962,-0.61067 1.41624,0 2.54663,0.61067 1.13039,0.61067 1.78004,1.68909 0.64965,1.06543 0.64965,2.40371 0,1.33828 -0.64965,2.4167 -0.64965,1.06542 -1.78004,1.67609 -1.13039,0.61067 -2.54663,0.61067 z m 0,-1.79303 q 0.80557,0 1.45522,-0.3638 0.64965,-0.3768 1.01345,-1.03944 0.3768,-0.66265 0.3768,-1.50719 0,-0.84455 -0.3768,-1.50719 -0.3638,-0.66264 -1.01345,-1.02645 -0.64965,-0.37679 -1.45522,-0.37679 -0.80557,0 -1.45522,0.37679 -0.64965,0.36381 -1.02644,1.02645 -0.36381,0.66264 -0.36381,1.50719 0,0.84454 0.36381,1.50719 0.37679,0.66264 1.02644,1.03944 0.64965,0.3638 1.45522,0.3638 z"
         style="fill:#ffffff;stroke-width:0.324825"
         id="path10229" />
    </g>
    <ellipse
       style="fill:#000000;fill-opacity:0.00401605;stroke:#000000;stroke-width:1.04412;stroke-miterlimit:4;stroke-dasharray:none;stroke-opacity:1"
       id="path9351-2-1"
       cx="-94.718323"
       cy="246.29428"
       rx="4.6767406"
       ry="4.7201886"
       transform="rotate(45)" />
    <rect
       style="fill:#000000;fill-opacity:1;stroke-width:0.264999"
       id="rect10115"
       width="1.1272984"
       height="8.1563292"
       x="-95.118187"
       y="233.5484"
       rx="0"
       ry="0"
       transform="rotate(45)" />
    <rect
       style="fill:#000000;fill-opacity:1;stroke-width:0.264999"
       id="rect10117"
       width="3.6471252"
       height="0.92836487"
       x="-235.25238"
       y="97.753647" />
    <rect
       style="fill:#000000;fill-opacity:1;stroke-width:0.264999"
       id="rect10117-0"
       width="3.6471252"
       height="0.92836487"
       x="-101.53204"
       y="-232.40237"
       transform="rotate(-90)" />
    <ellipse
       style="fill:#000000;fill-opacity:0.00401605;stroke:#000000;stroke-width:1.04412;stroke-miterlimit:4;stroke-dasharray:none;stroke-opacity:1"
       id="path9351-2-1-7"
       cx="-89.764702"
       cy="242.17615"
       rx="4.6767406"
       ry="4.7201886"
       transform="rotate(45)" />
    <rect
       style="fill:#000000;fill-opacity:1;stroke-width:0.264999"
       id="rect10115-2"
       width="1.1272984"
       height="8.1563292"
       x="-90.164574"
       y="229.4303"
       rx="0"
       ry="0"
       transform="rotate(45)" />
    <rect
       style="fill:#000000;fill-opacity:1;stroke-width:0.264999"
       id="rect10117-6"
       width="3.6471252"
       height="0.92836487"
       x="-228.83771"
       y="98.344437" />
    <rect
       style="fill:#000000;fill-opacity:1;stroke-width:0.264999"
       id="rect10117-0-8"
       width="3.6471252"
       height="0.92836487"
       x="-102.12283"
       y="-225.9877"
       transform="rotate(-90)" />
    <ellipse
       style="fill:#000000;fill-opacity:0.00401605;stroke:#000000;stroke-width:1.04412;stroke-miterlimit:4;stroke-dasharray:none;stroke-opacity:1"
       id="path9351-2-1-7-5"
       cx="-70.880188"
       cy="232.8815"
       rx="4.6767406"
       ry="4.7201886"
       transform="rotate(45)" />
    <rect
       style="fill:#000000;fill-opacity:1;stroke-width:0.264999"
       id="rect10191"
       width="1.1272974"
       height="6.2332916"
       x="-215.25613"
       y="119.26035" />
    <rect
       style="fill:#000000;fill-opacity:1;stroke-width:0.264999"
       id="rect10193"
       width="4.3102551"
       height="1.2599206"
       x="-216.8476"
       y="121.64756" />
    <ellipse
       style="fill:#000000;fill-opacity:0.00401605;stroke:#000000;stroke-width:1.04412;stroke-miterlimit:4;stroke-dasharray:none;stroke-opacity:1"
       id="path9351-2-1-7-5-7"
       cx="-66.151901"
       cy="228.13812"
       rx="4.6767406"
       ry="4.7201886"
       transform="rotate(45)" />
    <rect
       style="fill:#000000;fill-opacity:1;stroke-width:0.264999"
       id="rect10191-9"
       width="1.1272974"
       height="6.2332916"
       x="-208.55865"
       y="119.24968" />
    <rect
       style="fill:#000000;fill-opacity:1;stroke-width:0.264999"
       id="rect10193-6"
       width="4.3102551"
       height="1.2599206"
       x="-210.15012"
       y="121.6369" />
  </g>
</svg>
