<?xml version="1.0" encoding="UTF-8" standalone="no"?>
<svg
   xmlns:dc="http://purl.org/dc/elements/1.1/"
   xmlns:cc="http://creativecommons.org/ns#"
   xmlns:rdf="http://www.w3.org/1999/02/22-rdf-syntax-ns#"
   xmlns:svg="http://www.w3.org/2000/svg"
   xmlns="http://www.w3.org/2000/svg"
   xmlns:sodipodi="http://sodipodi.sourceforge.net/DTD/sodipodi-0.dtd"
   xmlns:inkscape="http://www.inkscape.org/namespaces/inkscape"
   width="200"
   height="200"
   viewBox="0 0 52.916668 52.916666"
   version="1.1"
   id="svg8"
   inkscape:version="1.0.2-2 (e86c870879, 2021-01-15)"
   sodipodi:docname="matriarchy.svg">
  <defs
     id="defs2">
    <rect
       x="-255.23004"
       y="125.83378"
       width="102.52459"
       height="46.959256"
       id="rect873" />
    <inkscape:path-effect
       effect="envelope"
       id="path-effect4658"
       is_visible="true"
       yy="true"
       xx="true"
       bendpath1="m -199.08406,108.42369 h 7.0057"
       bendpath2="m -192.07836,108.42369 v 6.75242"
       bendpath3="m -199.08406,115.17611 h 7.0057"
       bendpath4="m -199.08406,108.42369 v 6.75242" />
    <inkscape:path-effect
       effect="bend_path"
       id="path-effect4656"
       is_visible="true"
       bendpath="m -192.00142,114.60623 c 2.12577,-0.53066 4.48261,0.85111 7.0057,0"
       prop_scale="1"
       scale_y_rel="false"
       vertical="false"
       bendpath-nodetypes="cc" />
    <inkscape:path-effect
       effect="bounding_box"
       id="path-effect4654"
       is_visible="true"
       linkedpath=""
       visualbounds="false" />
  </defs>
  <sodipodi:namedview
     id="base"
     pagecolor="#ffffff"
     bordercolor="#666666"
     borderopacity="1.0"
     inkscape:pageopacity="0.0"
     inkscape:pageshadow="2"
     inkscape:zoom="2.8284271"
     inkscape:cx="119.98943"
     inkscape:cy="109.62894"
     inkscape:document-units="mm"
     inkscape:current-layer="layer1"
     showgrid="false"
     fit-margin-top="0"
     fit-margin-left="0"
     fit-margin-right="0"
     fit-margin-bottom="0"
     inkscape:window-width="1280"
     inkscape:window-height="961"
     inkscape:window-x="-8"
     inkscape:window-y="-8"
     inkscape:window-maximized="1"
     showguides="false"
     inkscape:object-nodes="true"
     units="px"
     inkscape:snap-page="true"
     inkscape:document-rotation="0" />
  <metadata
     id="metadata5">
    <rdf:RDF>
      <cc:Work
         rdf:about="">
        <dc:format>image/svg+xml</dc:format>
        <dc:type
           rdf:resource="http://purl.org/dc/dcmitype/StillImage" />
        <dc:title />
      </cc:Work>
    </rdf:RDF>
  </metadata>
  <g
     inkscape:label="Layer 1"
     inkscape:groupmode="layer"
     id="layer1"
     transform="translate(249.80447,-91.409467)">
    <rect
       y="91.40947"
       x="-249.80447"
       height="52.916668"
       width="52.916668"
       id="rect5238-5"
       style="fill:#222222;fill-opacity:1;fill-rule:nonzero;stroke:none;stroke-width:0.5;stroke-linecap:butt;stroke-linejoin:round;stroke-miterlimit:4;stroke-dasharray:none;stroke-dashoffset:0;stroke-opacity:0.909449;paint-order:normal"
       rx="3.96875"
       ry="3.96875" />
    <rect
       style="fill:#eb14eb;fill-opacity:1;fill-rule:nonzero;stroke:none;stroke-width:0.5;stroke-linecap:butt;stroke-linejoin:round;stroke-miterlimit:4;stroke-dasharray:none;stroke-dashoffset:0;stroke-opacity:0.909449;paint-order:normal"
       id="rect5240-3"
       width="47.625"
       height="47.625"
       x="-247.15863"
       y="94.055298"
       rx="2.6458333"
       ry="2.6458333" />
    <path
       inkscape:connector-curvature="0"
       id="path5244-6"
       d="m -248.34926,128.45114 v 8.33437 c 0,3.07816 2.47808,5.55625 5.55625,5.55625 h 38.89375 c 3.07816,0 5.55625,-2.47809 5.55625,-5.55625 v -8.33437 z"
       style="fill:#222222;fill-opacity:1;fill-rule:nonzero;stroke:none;stroke-width:0.5;stroke-linecap:butt;stroke-linejoin:round;stroke-miterlimit:4;stroke-dasharray:none;stroke-dashoffset:0;stroke-opacity:0.909449;paint-order:normal" />
    <g
       aria-label="MATRIARCHY"
       transform="scale(0.9201922,1.0867295)"
       id="text1741"
       style="font-weight:bold;font-size:7.24191px;line-height:1.25;font-family:Montserrat;-inkscape-font-specification:'Montserrat Bold';stroke-width:0.181048">
      <path
         d="m -263.36075,127.3558 -0.007,-3.04161 -1.49183,2.50571 h -0.52866 l -1.48459,-2.44053 v 2.97643 h -1.10077 v -5.06934 h 0.97041 l 1.89738,3.15023 1.86842,-3.15023 h 0.96317 l 0.0145,5.06934 z"
         style="fill:#f9f9f9;stroke-width:0.181048"
         id="path4386" />
      <path
         d="m -257.7193,126.26951 h -2.35362 l -0.449,1.08629 h -1.20215 l 2.25947,-5.06934 h 1.15871 l 2.26671,5.06934 h -1.23112 z m -0.36934,-0.89075 -0.80385,-1.94084 -0.80385,1.94084 z"
         style="fill:#f9f9f9;stroke-width:0.181048"
         id="path4388" />
      <path
         d="m -254.71393,123.24239 h -1.62218 v -0.95593 h 4.41756 v 0.95593 h -1.62219 v 4.11341 h -1.17319 z"
         style="fill:#f9f9f9;stroke-width:0.181048"
         id="path4390" />
      <path
         d="m -248.05862,127.3558 -0.97766,-1.41218 h -0.0579 -1.02111 v 1.41218 h -1.17319 v -5.06934 h 2.1943 q 0.6735,0 1.16595,0.2245 0.49969,0.2245 0.76764,0.63729 0.26795,0.41279 0.26795,0.97765 0,0.56487 -0.27519,0.97766 -0.26795,0.40555 -0.76764,0.62281 l 1.13698,1.62943 z m -0.0217,-3.2299 q 0,-0.42727 -0.27519,-0.65177 -0.2752,-0.23174 -0.80385,-0.23174 h -0.95594 v 1.76703 h 0.95594 q 0.52865,0 0.80385,-0.23174 0.27519,-0.23174 0.27519,-0.65178 z"
         style="fill:#f9f9f9;stroke-width:0.181048"
         id="path4392" />
      <path
         d="m -245.96572,122.28646 h 1.17319 v 5.06934 h -1.17319 z"
         style="fill:#f9f9f9;stroke-width:0.181048"
         id="path4394" />
      <path
         d="m -240.25186,126.26951 h -2.35362 l -0.449,1.08629 h -1.20216 l 2.25948,-5.06934 h 1.1587 l 2.26672,5.06934 h -1.23112 z m -0.36934,-0.89075 -0.80385,-1.94084 -0.80385,1.94084 z"
         style="fill:#f9f9f9;stroke-width:0.181048"
         id="path4396" />
      <path
         d="m -234.8132,127.3558 -0.97765,-1.41218 h -0.0579 -1.02111 v 1.41218 h -1.17319 v -5.06934 h 2.1943 q 0.6735,0 1.16595,0.2245 0.49969,0.2245 0.76764,0.63729 0.26795,0.41279 0.26795,0.97765 0,0.56487 -0.27519,0.97766 -0.26795,0.40555 -0.76764,0.62281 l 1.13698,1.62943 z m -0.0217,-3.2299 q 0,-0.42727 -0.27519,-0.65177 -0.2752,-0.23174 -0.80386,-0.23174 h -0.95593 v 1.76703 h 0.95593 q 0.52866,0 0.80386,-0.23174 0.27519,-0.23174 0.27519,-0.65178 z"
         style="fill:#f9f9f9;stroke-width:0.181048"
         id="path4398" />
      <path
         d="m -230.29425,127.4427 q -0.77489,0 -1.40494,-0.33313 -0.6228,-0.34037 -0.98489,-0.9342 -0.35486,-0.60108 -0.35486,-1.35424 0,-0.75316 0.35486,-1.347 0.36209,-0.60108 0.98489,-0.9342 0.63005,-0.34037 1.41218,-0.34037 0.65901,0 1.18767,0.23174 0.5359,0.23174 0.898,0.66625 l -0.75316,0.69523 q -0.51418,-0.59384 -1.27458,-0.59384 -0.47072,0 -0.84006,0.21002 -0.36934,0.20277 -0.57935,0.57211 -0.20278,0.36933 -0.20278,0.84006 0,0.47072 0.20278,0.84006 0.21001,0.36934 0.57935,0.57935 0.36934,0.20278 0.84006,0.20278 0.7604,0 1.27458,-0.60108 l 0.75316,0.69522 q -0.3621,0.44176 -0.898,0.6735 -0.5359,0.23174 -1.19491,0.23174 z"
         style="fill:#f9f9f9;stroke-width:0.181048"
         id="path4400" />
      <path
         d="m -222.76267,122.28646 v 5.06934 h -1.17319 v -2.07843 h -2.30293 v 2.07843 h -1.17319 v -5.06934 h 1.17319 v 1.99877 h 2.30293 v -1.99877 z"
         style="fill:#f9f9f9;stroke-width:0.181048"
         id="path4402" />
      <path
         d="m -219.12724,125.5598 v 1.796 h -1.17319 v -1.81048 l -1.96255,-3.25886 h 1.2456 l 1.35424,2.25223 1.35424,-2.25223 h 1.15146 z"
         style="fill:#f9f9f9;stroke-width:0.181048"
         id="path4404" />
    </g>
    <ellipse
       style="fill:#000000;fill-opacity:1;stroke-width:0.264583"
       id="path2304"
       cx="-224.64104"
       cy="105.53467"
       rx="8.4189901"
       ry="8.3254452" />
    <rect
       style="fill:#000000;fill-opacity:1;stroke-width:0.264583"
       id="rect2308"
       width="3.3675961"
       height="14.68646"
       x="-226.32484"
       y="112.45694" />
    <rect
       style="fill:#000000;fill-opacity:1;stroke-width:0.264583"
       id="rect2310"
       width="14.03165"
       height="3.3675961"
       x="-231.56332"
       y="118.0696" />
    <ellipse
       style="fill:#eb14eb;fill-opacity:1;stroke-width:0.264583"
       id="path2312"
       cx="-224.73459"
       cy="105.6282"
       rx="6.5481033"
       ry="6.3610148" />
  </g>
</svg>
