<?xml version="1.0" encoding="UTF-8" standalone="no"?>
<svg
   xmlns:dc="http://purl.org/dc/elements/1.1/"
   xmlns:cc="http://creativecommons.org/ns#"
   xmlns:rdf="http://www.w3.org/1999/02/22-rdf-syntax-ns#"
   xmlns:svg="http://www.w3.org/2000/svg"
   xmlns="http://www.w3.org/2000/svg"
   xmlns:sodipodi="http://sodipodi.sourceforge.net/DTD/sodipodi-0.dtd"
   xmlns:inkscape="http://www.inkscape.org/namespaces/inkscape"
   width="200"
   height="200"
   viewBox="0 0 52.916668 52.916666"
   version="1.1"
   id="svg8"
   inkscape:version="1.0.2-2 (e86c870879, 2021-01-15)"
   sodipodi:docname="thin.svg">
  <defs
     id="defs2">
    <rect
       x="-230.62218"
       y="74.079259"
       width="66.013542"
       height="16.801042"
       id="rect885" />
    <inkscape:path-effect
       effect="envelope"
       id="path-effect4658"
       is_visible="true"
       yy="true"
       xx="true"
       bendpath1="m -199.08406,108.42369 h 7.0057"
       bendpath2="m -192.07836,108.42369 v 6.75242"
       bendpath3="m -199.08406,115.17611 h 7.0057"
       bendpath4="m -199.08406,108.42369 v 6.75242" />
    <inkscape:path-effect
       effect="bend_path"
       id="path-effect4656"
       is_visible="true"
       bendpath="m -192.00142,114.60623 c 2.12577,-0.53066 4.48261,0.85111 7.0057,0"
       prop_scale="1"
       scale_y_rel="false"
       vertical="false"
       bendpath-nodetypes="cc" />
    <inkscape:path-effect
       effect="bounding_box"
       id="path-effect4654"
       is_visible="true"
       linkedpath=""
       visualbounds="false" />
  </defs>
  <sodipodi:namedview
     id="base"
     pagecolor="#ffffff"
     bordercolor="#666666"
     borderopacity="1.0"
     inkscape:pageopacity="0.0"
     inkscape:pageshadow="2"
     inkscape:zoom="2"
     inkscape:cx="118.27146"
     inkscape:cy="93.240823"
     inkscape:document-units="mm"
     inkscape:current-layer="layer1"
     showgrid="false"
     fit-margin-top="0"
     fit-margin-left="0"
     fit-margin-right="0"
     fit-margin-bottom="0"
     inkscape:window-width="1280"
     inkscape:window-height="961"
     inkscape:window-x="-8"
     inkscape:window-y="-8"
     inkscape:window-maximized="1"
     showguides="false"
     inkscape:object-nodes="true"
     units="px"
     inkscape:snap-page="true"
     inkscape:document-rotation="0" />
  <metadata
     id="metadata5">
    <rdf:RDF>
      <cc:Work
         rdf:about="">
        <dc:format>image/svg+xml</dc:format>
        <dc:type
           rdf:resource="http://purl.org/dc/dcmitype/StillImage" />
        <dc:title />
      </cc:Work>
    </rdf:RDF>
  </metadata>
  <g
     inkscape:label="Layer 1"
     inkscape:groupmode="layer"
     id="layer1"
     transform="translate(249.80447,-91.409467)">
    <rect
       y="91.40947"
       x="-249.80447"
       height="52.916668"
       width="52.916668"
       id="rect5238-5"
       style="fill:#222222;fill-opacity:1;fill-rule:nonzero;stroke:none;stroke-width:0.5;stroke-linecap:butt;stroke-linejoin:round;stroke-miterlimit:4;stroke-dasharray:none;stroke-dashoffset:0;stroke-opacity:0.909449;paint-order:normal"
       rx="3.96875"
       ry="3.96875" />
    <rect
       style="fill:#540769;fill-opacity:1;fill-rule:nonzero;stroke:none;stroke-width:0.5;stroke-linecap:butt;stroke-linejoin:round;stroke-miterlimit:4;stroke-dasharray:none;stroke-dashoffset:0;stroke-opacity:0.909449;paint-order:normal"
       id="rect5240-3"
       width="47.625"
       height="47.625"
       x="-247.15863"
       y="94.055298"
       rx="2.6458333"
       ry="2.6458333" />
    <path
       inkscape:connector-curvature="0"
       id="path5244-6"
       d="m -248.34926,128.45114 v 8.33437 c 0,3.07816 2.47808,5.55625 5.55625,5.55625 h 38.89375 c 3.07816,0 5.55625,-2.47809 5.55625,-5.55625 v -8.33437 z"
       style="fill:#222222;fill-opacity:1;fill-rule:nonzero;stroke:none;stroke-width:0.5;stroke-linecap:butt;stroke-linejoin:round;stroke-miterlimit:4;stroke-dasharray:none;stroke-dashoffset:0;stroke-opacity:0.909449;paint-order:normal" />
    <g
       aria-label="MALTHUSOCRACY"
       transform="scale(0.8137991,1.2288045)"
       id="text9294"
       style="font-weight:bold;font-size:6.08478px;line-height:1.25;font-family:Montserrat;-inkscape-font-specification:'Montserrat Bold';fill:#ffffff;stroke-width:0.15212">
      <path
         d="m -299.24194,112.74583 -0.006,-2.55561 -1.25346,2.10533 h -0.44419 l -1.24738,-2.05057 v 2.50085 h -0.92489 v -4.25935 h 0.81536 l 1.59421,2.64688 1.56988,-2.64688 h 0.80927 l 0.0122,4.25935 z"
         style="fill:#ffffff;stroke-width:0.15212"
         id="path9300" />
      <path
         d="m -294.5019,111.83311 h -1.97755 l -0.37726,0.91272 h -1.01007 l 1.89845,-4.25935 h 0.97356 l 1.90454,4.25935 h -1.03441 z m -0.31032,-0.74843 -0.67542,-1.63072 -0.67541,1.63072 z"
         style="fill:#ffffff;stroke-width:0.15212"
         id="path9302" />
      <path
         d="m -292.64605,108.48648 h 0.98573 v 3.45616 h 2.13576 v 0.80319 h -3.12149 z"
         style="fill:#ffffff;stroke-width:0.15212"
         id="path9304" />
      <path
         d="m -288.48407,109.28967 h -1.363 v -0.80319 h 3.71172 v 0.80319 h -1.36299 v 3.45616 h -0.98573 z"
         style="fill:#ffffff;stroke-width:0.15212"
         id="path9306" />
      <path
         d="m -281.69956,108.48648 v 4.25935 h -0.98573 v -1.74634 h -1.93496 v 1.74634 h -0.98574 v -4.25935 h 0.98574 v 1.6794 h 1.93496 v -1.6794 z"
         style="fill:#ffffff;stroke-width:0.15212"
         id="path9308" />
      <path
         d="m -278.79712,112.81884 q -0.91272,0 -1.42384,-0.50503 -0.50504,-0.50504 -0.50504,-1.4421 v -2.38523 h 0.98574 v 2.34873 q 0,1.14393 0.94922,1.14393 0.46244,0 0.70584,-0.27381 0.24339,-0.2799 0.24339,-0.87012 v -2.34873 h 0.97356 v 2.38523 q 0,0.93706 -0.51112,1.4421 -0.50504,0.50503 -1.41775,0.50503 z"
         style="fill:#ffffff;stroke-width:0.15212"
         id="path9310" />
      <path
         d="m -274.49519,112.81884 q -0.50504,0 -0.97965,-0.13386 -0.46853,-0.13995 -0.75452,-0.359 l 0.33467,-0.74235 q 0.27381,0.2008 0.65107,0.3225 0.37725,0.12169 0.75451,0.12169 0.41985,0 0.62065,-0.12169 0.2008,-0.12778 0.2008,-0.33467 0,-0.15212 -0.1217,-0.24947 -0.11561,-0.10344 -0.30424,-0.16429 -0.18254,-0.0609 -0.49895,-0.13387 -0.48678,-0.11561 -0.79711,-0.23122 -0.31032,-0.11561 -0.53546,-0.37117 -0.21905,-0.25556 -0.21905,-0.68149 0,-0.37118 0.2008,-0.66933 0.2008,-0.30424 0.60239,-0.4807 0.40768,-0.17646 0.99182,-0.17646 0.40768,0 0.79711,0.0974 0.38942,0.0974 0.68149,0.2799 l -0.30424,0.74843 q -0.59022,-0.33467 -1.18044,-0.33467 -0.41377,0 -0.61457,0.13387 -0.19471,0.13386 -0.19471,0.35292 0,0.21905 0.22514,0.32858 0.23122,0.10344 0.69975,0.20688 0.48678,0.11561 0.7971,0.23122 0.31033,0.11561 0.52938,0.36509 0.22514,0.24947 0.22514,0.67541 0,0.36508 -0.20689,0.66932 -0.2008,0.29816 -0.60848,0.47462 -0.40768,0.17645 -0.99181,0.17645 z"
         style="fill:#ffffff;stroke-width:0.15212"
         id="path9312" />
      <path
         d="m -269.94987,112.81884 q -0.66324,0 -1.19871,-0.28598 -0.52937,-0.28599 -0.83361,-0.78494 -0.29815,-0.50503 -0.29815,-1.13177 0,-0.62673 0.29815,-1.12568 0.30424,-0.50504 0.83361,-0.79102 0.53547,-0.28599 1.19871,-0.28599 0.66324,0 1.19261,0.28599 0.52938,0.28598 0.83362,0.79102 0.30424,0.49895 0.30424,1.12568 0,0.62674 -0.30424,1.13177 -0.30424,0.49895 -0.83362,0.78494 -0.52937,0.28598 -1.19261,0.28598 z m 0,-0.8397 q 0.37725,0 0.68149,-0.17037 0.30424,-0.17646 0.47461,-0.48678 0.17646,-0.31033 0.17646,-0.70584 0,-0.39551 -0.17646,-0.70583 -0.17037,-0.31032 -0.47461,-0.4807 -0.30424,-0.17646 -0.68149,-0.17646 -0.37726,0 -0.6815,0.17646 -0.30424,0.17038 -0.4807,0.4807 -0.17037,0.31032 -0.17037,0.70583 0,0.39551 0.17037,0.70584 0.17646,0.31032 0.4807,0.48678 0.30424,0.17037 0.6815,0.17037 z"
         style="fill:#ffffff;stroke-width:0.15212"
         id="path9314" />
      <path
         d="m -264.83866,112.81884 q -0.65107,0 -1.18044,-0.2799 -0.5233,-0.28598 -0.82753,-0.78493 -0.29816,-0.50504 -0.29816,-1.13786 0,-0.63281 0.29816,-1.13177 0.30423,-0.50503 0.82753,-0.78493 0.52937,-0.28599 1.18653,-0.28599 0.55371,0 0.9979,0.19472 0.45028,0.19471 0.75451,0.5598 l -0.63281,0.58413 q -0.43202,-0.49895 -1.07092,-0.49895 -0.39551,0 -0.70584,0.17646 -0.31032,0.17038 -0.48678,0.4807 -0.17037,0.31032 -0.17037,0.70583 0,0.39551 0.17037,0.70584 0.17646,0.31032 0.48678,0.48678 0.31033,0.17037 0.70584,0.17037 0.6389,0 1.07092,-0.50503 l 0.63281,0.58414 q -0.30423,0.37117 -0.75451,0.56588 -0.45027,0.19471 -1.00399,0.19471 z"
         style="fill:#ffffff;stroke-width:0.15212"
         id="path9316" />
      <path
         d="m -259.70311,112.74583 -0.82144,-1.18654 h -0.0487 -0.85795 v 1.18654 h -0.98574 v -4.25935 h 1.84369 q 0.56588,0 0.97965,0.18863 0.41985,0.18863 0.64499,0.53546 0.22513,0.34683 0.22513,0.82144 0,0.47462 -0.23122,0.82145 -0.22514,0.34075 -0.64499,0.52329 l 0.95532,1.36908 z m -0.0183,-2.71382 q 0,-0.359 -0.23122,-0.54763 -0.23122,-0.19471 -0.67541,-0.19471 h -0.80319 v 1.48469 h 0.80319 q 0.44419,0 0.67541,-0.19472 0.23122,-0.19471 0.23122,-0.54763 z"
         style="fill:#ffffff;stroke-width:0.15212"
         id="path9318" />
      <path
         d="m -255.13953,111.83311 h -1.97755 l -0.37726,0.91272 h -1.01007 l 1.89845,-4.25935 h 0.97356 l 1.90454,4.25935 h -1.03441 z m -0.31032,-0.74843 -0.67541,-1.63072 -0.67541,1.63072 z"
         style="fill:#ffffff;stroke-width:0.15212"
         id="path9320" />
      <path
         d="m -251.30613,112.81884 q -0.65107,0 -1.18044,-0.2799 -0.52329,-0.28598 -0.82753,-0.78493 -0.29816,-0.50504 -0.29816,-1.13786 0,-0.63281 0.29816,-1.13177 0.30424,-0.50503 0.82753,-0.78493 0.52937,-0.28599 1.18653,-0.28599 0.55371,0 0.9979,0.19472 0.45028,0.19471 0.75452,0.5598 l -0.63282,0.58413 q -0.43202,-0.49895 -1.07092,-0.49895 -0.39551,0 -0.70584,0.17646 -0.31032,0.17038 -0.48678,0.4807 -0.17037,0.31032 -0.17037,0.70583 0,0.39551 0.17037,0.70584 0.17646,0.31032 0.48678,0.48678 0.31033,0.17037 0.70584,0.17037 0.6389,0 1.07092,-0.50503 l 0.63282,0.58414 q -0.30424,0.37117 -0.75452,0.56588 -0.45027,0.19471 -1.00399,0.19471 z"
         style="fill:#ffffff;stroke-width:0.15212"
         id="path9322" />
      <path
         d="m -246.8825,111.2368 v 1.50903 h -0.98574 v -1.5212 l -1.64897,-2.73815 h 1.04658 l 1.13785,1.89237 1.13786,-1.89237 h 0.96748 z"
         style="fill:#ffffff;stroke-width:0.15212"
         id="path9324" />
    </g>
    <path
       style="fill:none;stroke:#000000;stroke-width:0.264583px;stroke-linecap:butt;stroke-linejoin:miter;stroke-opacity:1"
       d="m -239.22114,94.319884 c -0.13229,10.318746 0.66146,13.229166 0.66146,13.229166 0,0 1.71979,0.66146 2.77813,0.79375 1.05833,0.13229 3.175,0.92604 3.175,0.92604 0,0 1.98437,1.19063 2.11666,2.11667 0.13229,0.92604 0.79375,3.04271 0.66146,3.83646 -0.13229,0.79375 0.92604,1.19062 -0.79375,1.85208 -1.71979,0.66146 -1.5875,1.19062 -2.51354,1.45521 -0.92604,0.26458 -1.71979,0.92604 -3.04271,1.5875 -1.32292,0.66146 -2.11667,-0.26459 -1.98437,1.32291 0.13229,1.5875 0.26458,1.32292 0.13229,3.175 -0.13229,1.85209 0,3.70417 0,3.70417 v 0.13229"
       id="path9296" />
    <path
       style="fill:none;stroke:#000000;stroke-width:0.263482px;stroke-linecap:butt;stroke-linejoin:miter;stroke-opacity:1"
       d="m -216.33468,99.831068 0.13229,-5.378893 -0.13229,7.346785 0.13229,5.2477 -4.7625,1.18073 -2.38125,3.01743 -0.79375,2.75503 c 0,0 -0.52916,-0.26238 0.52917,1.31193 1.05833,1.57431 0.52917,1.96789 2.11667,2.09908 1.5875,0.13119 2.38125,0.52477 3.175,0.52477 0.79375,0 2.24895,0.26239 2.24895,0.26239 l -0.13229,1.96788 -1.45521,4.59174 0.52917,3.67339 0.13229,-0.26239"
       id="path9298" />
  </g>
</svg>
