<?xml version="1.0" encoding="UTF-8" standalone="no"?>
<svg
   xmlns:dc="http://purl.org/dc/elements/1.1/"
   xmlns:cc="http://creativecommons.org/ns#"
   xmlns:rdf="http://www.w3.org/1999/02/22-rdf-syntax-ns#"
   xmlns:svg="http://www.w3.org/2000/svg"
   xmlns="http://www.w3.org/2000/svg"
   xmlns:sodipodi="http://sodipodi.sourceforge.net/DTD/sodipodi-0.dtd"
   xmlns:inkscape="http://www.inkscape.org/namespaces/inkscape"
   width="200"
   height="200"
   viewBox="0 0 52.916668 52.916666"
   version="1.1"
   id="svg8"
   inkscape:version="1.0.2-2 (e86c870879, 2021-01-15)"
   sodipodi:docname="trans.svg">
  <defs
     id="defs2">
    <rect
       x="-130.60224"
       y="134.99334"
       width="68.567998"
       height="20.579753"
       id="rect880" />
    <inkscape:path-effect
       effect="envelope"
       id="path-effect4658"
       is_visible="true"
       yy="true"
       xx="true"
       bendpath1="m -199.08406,108.42369 h 7.0057"
       bendpath2="m -192.07836,108.42369 v 6.75242"
       bendpath3="m -199.08406,115.17611 h 7.0057"
       bendpath4="m -199.08406,108.42369 v 6.75242" />
    <inkscape:path-effect
       effect="bend_path"
       id="path-effect4656"
       is_visible="true"
       bendpath="m -192.00142,114.60623 c 2.12577,-0.53066 4.48261,0.85111 7.0057,0"
       prop_scale="1"
       scale_y_rel="false"
       vertical="false"
       bendpath-nodetypes="cc" />
    <inkscape:path-effect
       effect="bounding_box"
       id="path-effect4654"
       is_visible="true"
       linkedpath=""
       visualbounds="false" />
  </defs>
  <sodipodi:namedview
     id="base"
     pagecolor="#ffffff"
     bordercolor="#666666"
     borderopacity="1.0"
     inkscape:pageopacity="0.0"
     inkscape:pageshadow="2"
     inkscape:zoom="2.9045061"
     inkscape:cx="87.863634"
     inkscape:cy="127.03647"
     inkscape:document-units="px"
     inkscape:current-layer="layer1"
     showgrid="false"
     fit-margin-top="0"
     fit-margin-left="0"
     fit-margin-right="0"
     fit-margin-bottom="0"
     inkscape:window-width="1280"
     inkscape:window-height="961"
     inkscape:window-x="-8"
     inkscape:window-y="-8"
     inkscape:window-maximized="1"
     showguides="false"
     inkscape:object-nodes="false"
     units="px"
     inkscape:snap-page="false"
     inkscape:document-rotation="0"
     inkscape:snap-grids="false"
     inkscape:snap-to-guides="false"
     inkscape:snap-others="true" />
  <metadata
     id="metadata5">
    <rdf:RDF>
      <cc:Work
         rdf:about="">
        <dc:format>image/svg+xml</dc:format>
        <dc:type
           rdf:resource="http://purl.org/dc/dcmitype/StillImage" />
        <dc:title />
      </cc:Work>
    </rdf:RDF>
  </metadata>
  <g
     inkscape:label="Layer 1"
     inkscape:groupmode="layer"
     id="layer1"
     transform="translate(98.048812,-95.14345)">
    <rect
       y="95.143448"
       x="-98.048813"
       height="52.916668"
       width="52.916668"
       id="rect5163"
       style="fill:#222222;fill-opacity:1;fill-rule:nonzero;stroke:none;stroke-width:0.5;stroke-linecap:butt;stroke-linejoin:round;stroke-miterlimit:4;stroke-dasharray:none;stroke-dashoffset:0;stroke-opacity:0.909449;paint-order:normal"
       rx="3.96875"
       ry="3.96875" />
    <rect
       style="fill:#ececec;fill-opacity:1;fill-rule:nonzero;stroke:none;stroke-width:0.5;stroke-linecap:butt;stroke-linejoin:round;stroke-miterlimit:4;stroke-dasharray:none;stroke-dashoffset:0;stroke-opacity:0.909449;paint-order:normal"
       id="rect5165"
       width="47.625"
       height="47.625"
       x="-95.402977"
       y="97.789284"
       rx="2.6458333"
       ry="2.6458333" />
    <path
       style="fill:#222222;fill-opacity:1;fill-rule:nonzero;stroke:none;stroke-width:0.5;stroke-linecap:butt;stroke-linejoin:round;stroke-miterlimit:4;stroke-dasharray:none;stroke-dashoffset:0;stroke-opacity:0.909449;paint-order:normal"
       d="m -96.593602,132.18512 v 8.33438 c 0,3.07816 2.478088,5.55624 5.55625,5.55624 h 38.893748 c 3.078162,0 5.55625,-2.47808 5.55625,-5.55624 v -8.33438 z"
       id="rect5205-3-6"
       inkscape:connector-curvature="0" />
    <text
       xml:space="preserve"
       style="font-size:10.5833px;line-height:1.25;font-family:Montserrat;-inkscape-font-specification:Montserrat;stroke-width:0.264583"
       x="-104.74094"
       y="115.36853"
       id="text60"><tspan
         sodipodi:role="line"
         id="tspan58"
         x="-104.74094"
         y="115.36853"
         style="stroke-width:0.264583" /></text>
    <g
       aria-label="TRANS"
       transform="scale(0.98506785,1.0151585)"
       id="text64"
       style="font-size:16.1919px;line-height:1.25;font-family:Montserrat;-inkscape-font-specification:Montserrat;fill:#ffffff;stroke-width:0.404798">
      <path
         d="m -89.238103,135.30209 h -2.417991 v -1.42488 h 6.584706 v 1.42488 h -2.41799 v 6.13134 h -1.748725 z"
         style="font-style:normal;font-variant:normal;font-weight:bold;font-stretch:normal;font-size:10.7946px;font-family:Montserrat;-inkscape-font-specification:'Montserrat Bold';fill:#ffffff;stroke-width:0.404798"
         id="path3837" />
      <path
         d="m -79.317887,141.43343 -1.45727,-2.10495 h -0.08636 -1.522039 v 2.10495 h -1.748725 v -7.55622 h 3.270764 q 1.003897,0 1.73793,0.33463 0.744828,0.33463 1.144228,0.94992 0.3994,0.6153 0.3994,1.45727 0,0.84198 -0.410195,1.45728 -0.3994,0.60449 -1.144227,0.92833 l 1.694752,2.42879 z m -0.03238,-4.8144 q 0,-0.63688 -0.410195,-0.97151 -0.410195,-0.34543 -1.198201,-0.34543 h -1.424887 v 2.63389 h 1.424887 q 0.788006,0 1.198201,-0.34543 0.410195,-0.34543 0.410195,-0.97152 z"
         style="font-style:normal;font-variant:normal;font-weight:bold;font-stretch:normal;font-size:10.7946px;font-family:Montserrat;-inkscape-font-specification:'Montserrat Bold';fill:#ffffff;stroke-width:0.404798"
         id="path3839" />
      <path
         d="m -71.221951,139.81424 h -3.508245 l -0.669265,1.61919 h -1.791904 l 3.367915,-7.55622 h 1.727136 l 3.37871,7.55622 h -1.835082 z m -0.550525,-1.32774 -1.1982,-2.89295 -1.198201,2.89295 z"
         style="font-style:normal;font-variant:normal;font-weight:bold;font-stretch:normal;font-size:10.7946px;font-family:Montserrat;-inkscape-font-specification:'Montserrat Bold';fill:#ffffff;stroke-width:0.404798"
         id="path3841" />
      <path
         d="m -60.999477,133.87721 v 7.55622 h -1.435682 l -3.767315,-4.58771 v 4.58771 h -1.727136 v -7.55622 h 1.446477 l 3.75652,4.5877 v -4.5877 z"
         style="font-style:normal;font-variant:normal;font-weight:bold;font-stretch:normal;font-size:10.7946px;font-family:Montserrat;-inkscape-font-specification:'Montserrat Bold';fill:#ffffff;stroke-width:0.404798"
         id="path3843" />
      <path
         d="m -56.724831,141.56296 q -0.895952,0 -1.73793,-0.23748 -0.831184,-0.24828 -1.338531,-0.63688 l 0.593703,-1.31694 q 0.485757,0.35622 1.155022,0.57211 0.669266,0.21589 1.338531,0.21589 0.744827,0 1.101049,-0.21589 0.356222,-0.22669 0.356222,-0.5937 0,-0.26987 -0.215892,-0.44258 -0.205098,-0.18351 -0.53973,-0.29145 -0.323838,-0.10795 -0.885157,-0.23749 -0.863568,-0.20509 -1.414093,-0.41019 -0.550524,-0.2051 -0.949925,-0.65847 -0.388605,-0.45337 -0.388605,-1.209 0,-0.65847 0.356222,-1.1874 0.356221,-0.53973 1.068665,-0.85278 0.723238,-0.31304 1.75952,-0.31304 0.723238,0 1.414092,0.17271 0.690855,0.17272 1.208995,0.49656 l -0.53973,1.32773 q -1.047076,-0.5937 -2.094152,-0.5937 -0.734033,0 -1.090255,0.23748 -0.345427,0.23748 -0.345427,0.62609 0,0.3886 0.3994,0.58291 0.410195,0.1835 1.241379,0.36701 0.863568,0.2051 1.414093,0.4102 0.550525,0.20509 0.93913,0.64767 0.3994,0.44258 0.3994,1.1982 0,0.64768 -0.367016,1.18741 -0.356222,0.52893 -1.07946,0.84198 -0.723238,0.31304 -1.75952,0.31304 z"
         style="font-style:normal;font-variant:normal;font-weight:bold;font-stretch:normal;font-size:10.7946px;font-family:Montserrat;-inkscape-font-specification:'Montserrat Bold';fill:#ffffff;stroke-width:0.404798"
         id="path3845" />
    </g>
    <path
       style="fill:#ffffff;stroke-width:0.562068"
       d="m 10.310583,79.119125 c 0.01173,-57.83647 0.06337,-60.954998 1.044755,-63.092142 0.567825,-1.23655 1.55725,-2.71495 2.198721,-3.285333 2.969814,-2.640702 0.475099,-2.56571 86.113005,-2.588576 53.823136,-0.01437 81.352186,0.171601 82.747076,0.558997 2.67936,0.744132 5.43967,3.071708 6.41714,5.411132 0.63154,1.511491 0.76668,12.587194 0.76668,62.837352 V 139.963 H 99.948098 10.298239 Z"
       id="path66"
       transform="matrix(0.26458333,0,0,0.26458333,-98.048812,95.14345)" />
    <path
       style="fill:#ef187c;fill-opacity:1;stroke-width:0.151352"
       d="m -95.603891,116.10057 c 0.05938,-11.12431 0.139697,-16.505573 0.252222,-16.884238 0.09088,-0.305691 0.39652,-0.759453 0.6793,-1.008349 0.454058,-0.399673 0.670003,-0.466416 1.848087,-0.571275 0.733669,-0.06536 10.721194,-0.118545 22.194509,-0.11833 15.859881,2.96e-4 20.990007,0.04412 21.400534,0.182816 0.296987,0.100398 0.773145,0.423439 1.058145,0.718039 l 0.518173,0.535631 0.09545,4.651766 c 0.05241,2.55846 0.10349,10.09014 0.113374,16.73707 l 0.01804,12.08532 H -71.558453 -95.69084 Z"
       id="path68" />
    <ellipse
       style="fill:#000000;fill-opacity:1;stroke-width:0.270612"
       id="path1617"
       cx="-73.453407"
       cy="115.36633"
       rx="7.1053391"
       ry="7.1964326" />
    <ellipse
       style="fill:#ef187c;fill-opacity:1;stroke-width:0.264583"
       id="path1621"
       cx="-73.453407"
       cy="115.50297"
       rx="5.5567393"
       ry="5.6022863" />
    <rect
       style="fill:#000000;fill-opacity:1;stroke-width:0.264583"
       id="rect1627"
       width="1.5485995"
       height="8.2895613"
       x="-74.364349"
       y="100.88238" />
    <rect
       style="fill:#000000;fill-opacity:1;stroke-width:0.264583"
       id="rect1631"
       width="5.5567393"
       height="1.7307876"
       x="-76.459518"
       y="105.07271" />
    <rect
       style="fill:#000000;fill-opacity:1;stroke-width:0.264583"
       id="rect1633"
       width="4.6457977"
       height="1.4575087"
       x="-127.23945"
       y="18.441006"
       transform="rotate(-45)" />
    <rect
       style="fill:#000000;fill-opacity:1;stroke-width:0.257012"
       id="rect1633-1"
       width="4.5128655"
       height="1.4158044"
       x="-19.470209"
       y="122.04184"
       transform="matrix(-0.68564564,-0.72793548,-0.68564564,0.72793548,0,0)" />
    <rect
       style="fill:#000000;fill-opacity:1;stroke-width:0.264583"
       id="rect1657"
       width="1.8218818"
       height="10.566914"
       x="28.919222"
       y="140.0199"
       transform="rotate(45)" />
    <rect
       style="fill:#000000;fill-opacity:1;stroke-width:0.264583"
       id="rect1661"
       width="1.8218818"
       height="10.658009"
       x="-134.33003"
       y="36.32098"
       transform="rotate(-45)" />
    <rect
       style="fill:#000000;fill-opacity:1;stroke-width:0.264583"
       id="rect1663"
       width="7.1053386"
       height="2.3684461"
       x="26.470718"
       y="144.18352"
       transform="rotate(45)" />
    <rect
       style="fill:#000000;fill-opacity:1;stroke-width:0.264583"
       id="rect1665"
       width="5.8300214"
       height="2.0951641"
       x="-66.439163"
       y="126.11544" />
    <rect
       style="fill:#000000;fill-opacity:1;stroke-width:0.264583"
       id="rect1665-5"
       width="5.8300214"
       height="2.0951641"
       x="122.1984"
       y="60.563595"
       transform="rotate(90)" />
  </g>
</svg>
